<?xml version="1.0" encoding="UTF-8" standalone="no"?>
<!-- Created with Inkscape (http://www.inkscape.org/) -->

<svg
   width="210mm"
   height="297mm"
   viewBox="0 0 210 297"
   version="1.1"
   id="svg3137"
   sodipodi:docname="apple.svg"
   inkscape:version="1.1 (c68e22c387, 2021-05-23)"
   inkscape:export-filename="D:\ucloud\documents\2021\pde_afternoon_pbd\apple.png"
   inkscape:export-xdpi="130.05"
   inkscape:export-ydpi="130.05"
   xmlns:inkscape="http://www.inkscape.org/namespaces/inkscape"
   xmlns:sodipodi="http://sodipodi.sourceforge.net/DTD/sodipodi-0.dtd"
   xmlns:xlink="http://www.w3.org/1999/xlink"
   xmlns="http://www.w3.org/2000/svg"
   xmlns:svg="http://www.w3.org/2000/svg">
  <sodipodi:namedview
     id="namedview3139"
     pagecolor="#ffffff"
     bordercolor="#666666"
     borderopacity="1.0"
     inkscape:pageshadow="2"
     inkscape:pageopacity="0.0"
     inkscape:pagecheckerboard="0"
     inkscape:document-units="mm"
     showgrid="false"
     inkscape:zoom="0.47433592"
     inkscape:cx="327.82674"
     inkscape:cy="273.01327"
     inkscape:window-width="2560"
     inkscape:window-height="1387"
     inkscape:window-x="-8"
     inkscape:window-y="-8"
     inkscape:window-maximized="1"
     inkscape:current-layer="layer1" />
  <defs
     id="defs3134">
    <marker
       style="overflow:visible"
       id="Arrow1Mend"
       refX="0"
       refY="0"
       orient="auto"
       inkscape:stockid="Arrow1Mend"
       inkscape:isstock="true">
      <path
         transform="matrix(-0.4,0,0,-0.4,-4,0)"
         style="fill:context-stroke;fill-rule:evenodd;stroke:context-stroke;stroke-width:1pt"
         d="M 0,0 5,-5 -12.5,0 5,5 Z"
         id="path3277" />
    </marker>
    <marker
       style="overflow:visible"
       id="Arrow1Mend-7"
       refX="0"
       refY="0"
       orient="auto"
       inkscape:stockid="Arrow1Mend"
       inkscape:isstock="true">
      <path
         transform="matrix(-0.4,0,0,-0.4,-4,0)"
         style="fill:context-stroke;fill-rule:evenodd;stroke:context-stroke;stroke-width:1pt"
         d="M 0,0 5,-5 -12.5,0 5,5 Z"
         id="path3277-5" />
    </marker>
    <marker
       style="overflow:visible"
       id="Arrow1Mend-7-4"
       refX="0"
       refY="0"
       orient="auto"
       inkscape:stockid="Arrow1Mend"
       inkscape:isstock="true">
      <path
         transform="matrix(-0.4,0,0,-0.4,-4,0)"
         style="fill:context-stroke;fill-rule:evenodd;stroke:context-stroke;stroke-width:1pt"
         d="M 0,0 5,-5 -12.5,0 5,5 Z"
         id="path3277-5-2" />
    </marker>
    <marker
       style="overflow:visible"
       id="Arrow1Mend-7-4-5"
       refX="0"
       refY="0"
       orient="auto"
       inkscape:stockid="Arrow1Mend"
       inkscape:isstock="true">
      <path
         transform="matrix(-0.4,0,0,-0.4,-4,0)"
         style="fill:context-stroke;fill-rule:evenodd;stroke:context-stroke;stroke-width:1pt"
         d="M 0,0 5,-5 -12.5,0 5,5 Z"
         id="path3277-5-2-5" />
    </marker>
    <g
       id="g9416">
      <symbol
         overflow="visible"
         id="symbol6304">
        <path
           style="stroke:none;"
           d=""
           id="path2280" />
      </symbol>
      <symbol
         overflow="visible"
         id="symbol5054">
        <path
           style="stroke:none;"
           d="M 1.75 -4.296875 L 1.75 -5.453125 C 1.75 -6.328125 2.21875 -6.8125 2.65625 -6.8125 C 2.6875 -6.8125 2.84375 -6.8125 2.984375 -6.734375 C 2.875 -6.703125 2.6875 -6.5625 2.6875 -6.3125 C 2.6875 -6.09375 2.84375 -5.890625 3.125 -5.890625 C 3.40625 -5.890625 3.5625 -6.09375 3.5625 -6.328125 C 3.5625 -6.703125 3.1875 -7.03125 2.65625 -7.03125 C 1.96875 -7.03125 1.109375 -6.5 1.109375 -5.4375 L 1.109375 -4.296875 L 0.328125 -4.296875 L 0.328125 -3.984375 L 1.109375 -3.984375 L 1.109375 -0.75 C 1.109375 -0.3125 1 -0.3125 0.34375 -0.3125 L 0.34375 0 C 0.734375 -0.015625 1.203125 -0.03125 1.46875 -0.03125 C 1.875 -0.03125 2.34375 -0.03125 2.734375 0 L 2.734375 -0.3125 L 2.53125 -0.3125 C 1.796875 -0.3125 1.78125 -0.421875 1.78125 -0.78125 L 1.78125 -3.984375 L 2.90625 -3.984375 L 2.90625 -4.296875 Z M 1.75 -4.296875 "
           id="path83" />
      </symbol>
      <symbol
         overflow="visible"
         id="symbol1353">
        <path
           style="stroke:none;"
           d="M 4.6875 -2.140625 C 4.6875 -3.40625 3.703125 -4.46875 2.5 -4.46875 C 1.25 -4.46875 0.28125 -3.375 0.28125 -2.140625 C 0.28125 -0.84375 1.3125 0.109375 2.484375 0.109375 C 3.6875 0.109375 4.6875 -0.875 4.6875 -2.140625 Z M 2.5 -0.140625 C 2.0625 -0.140625 1.625 -0.34375 1.359375 -0.8125 C 1.109375 -1.25 1.109375 -1.859375 1.109375 -2.21875 C 1.109375 -2.609375 1.109375 -3.140625 1.34375 -3.578125 C 1.609375 -4.03125 2.078125 -4.25 2.484375 -4.25 C 2.921875 -4.25 3.34375 -4.03125 3.609375 -3.59375 C 3.875 -3.171875 3.875 -2.59375 3.875 -2.21875 C 3.875 -1.859375 3.875 -1.3125 3.65625 -0.875 C 3.421875 -0.421875 2.984375 -0.140625 2.5 -0.140625 Z M 2.5 -0.140625 "
           id="path8561" />
      </symbol>
      <symbol
         overflow="visible"
         id="symbol8851">
        <path
           style="stroke:none;"
           d="M 1.671875 -3.3125 L 1.671875 -4.40625 L 0.28125 -4.296875 L 0.28125 -3.984375 C 0.984375 -3.984375 1.0625 -3.921875 1.0625 -3.421875 L 1.0625 -0.75 C 1.0625 -0.3125 0.953125 -0.3125 0.28125 -0.3125 L 0.28125 0 C 0.671875 -0.015625 1.140625 -0.03125 1.421875 -0.03125 C 1.8125 -0.03125 2.28125 -0.03125 2.6875 0 L 2.6875 -0.3125 L 2.46875 -0.3125 C 1.734375 -0.3125 1.71875 -0.421875 1.71875 -0.78125 L 1.71875 -2.3125 C 1.71875 -3.296875 2.140625 -4.1875 2.890625 -4.1875 C 2.953125 -4.1875 2.984375 -4.1875 3 -4.171875 C 2.96875 -4.171875 2.765625 -4.046875 2.765625 -3.78125 C 2.765625 -3.515625 2.984375 -3.359375 3.203125 -3.359375 C 3.375 -3.359375 3.625 -3.484375 3.625 -3.796875 C 3.625 -4.109375 3.3125 -4.40625 2.890625 -4.40625 C 2.15625 -4.40625 1.796875 -3.734375 1.671875 -3.3125 Z M 1.671875 -3.3125 "
           id="path231" />
      </symbol>
      <symbol
         overflow="visible"
         id="symbol4279">
        <path
           style="stroke:none;"
           d="M 1.171875 -2.171875 C 1.171875 -3.796875 1.984375 -4.21875 2.515625 -4.21875 C 2.609375 -4.21875 3.234375 -4.203125 3.578125 -3.84375 C 3.171875 -3.8125 3.109375 -3.515625 3.109375 -3.390625 C 3.109375 -3.125 3.296875 -2.9375 3.5625 -2.9375 C 3.828125 -2.9375 4.03125 -3.09375 4.03125 -3.40625 C 4.03125 -4.078125 3.265625 -4.46875 2.5 -4.46875 C 1.25 -4.46875 0.34375 -3.390625 0.34375 -2.15625 C 0.34375 -0.875 1.328125 0.109375 2.484375 0.109375 C 3.8125 0.109375 4.140625 -1.09375 4.140625 -1.1875 C 4.140625 -1.28125 4.03125 -1.28125 4 -1.28125 C 3.921875 -1.28125 3.890625 -1.25 3.875 -1.1875 C 3.59375 -0.265625 2.9375 -0.140625 2.578125 -0.140625 C 2.046875 -0.140625 1.171875 -0.5625 1.171875 -2.171875 Z M 1.171875 -2.171875 "
           id="path1396" />
      </symbol>
      <symbol
         overflow="visible"
         id="symbol8715">
        <path
           style="stroke:none;"
           d="M 1.109375 -2.515625 C 1.171875 -4 2.015625 -4.25 2.359375 -4.25 C 3.375 -4.25 3.484375 -2.90625 3.484375 -2.515625 Z M 1.109375 -2.296875 L 3.890625 -2.296875 C 4.109375 -2.296875 4.140625 -2.296875 4.140625 -2.515625 C 4.140625 -3.5 3.59375 -4.46875 2.359375 -4.46875 C 1.203125 -4.46875 0.28125 -3.4375 0.28125 -2.1875 C 0.28125 -0.859375 1.328125 0.109375 2.46875 0.109375 C 3.6875 0.109375 4.140625 -1 4.140625 -1.1875 C 4.140625 -1.28125 4.0625 -1.3125 4 -1.3125 C 3.921875 -1.3125 3.890625 -1.25 3.875 -1.171875 C 3.53125 -0.140625 2.625 -0.140625 2.53125 -0.140625 C 2.03125 -0.140625 1.640625 -0.4375 1.40625 -0.8125 C 1.109375 -1.28125 1.109375 -1.9375 1.109375 -2.296875 Z M 1.109375 -2.296875 "
           id="path4979" />
      </symbol>
    </g>
  </defs>
  <g
     inkscape:label="Layer 1"
     inkscape:groupmode="layer"
     id="layer1">
    <path
       style="fill:#000000;stroke:#000000;stroke-width:0.651066px;stroke-linecap:butt;stroke-linejoin:miter;stroke-opacity:1"
       d="m 91.540217,41.341729 c 8.263888,0 9.507903,3.312822 13.328843,3.229998 3.82093,-0.08281 8.17503,-4.058201 14.03971,-3.644096 5.86471,0.414098 12.26255,2.815892 14.39516,6.377173 2.13262,3.561276 2.75461,7.122558 2.75461,7.122558 0,0 -8.6193,3.892561 -9.06358,13.582553 -0.44432,9.689991 5.33153,13.913831 5.33153,13.913831 0,0 -4.88725,8.36487 -9.24134,10.35256 -4.35408,1.98769 -5.50925,0.91102 -7.01985,0.4141 -1.5106,-0.49692 -5.24269,-2.31897 -8.88589,-2.31897 -3.64322,0 -6.15392,-0.0278 -8.773095,0.92664 -2.619178,0.95444 -4.533629,2.78854 -7.85593,1.52726 -3.3223,-1.26128 -8.058046,-5.44322 -10.187928,-9.59311 -4.613979,-8.98994 -7.839307,-20.693108 -4.017108,-30.047173 2.42905,-5.944612 7.108711,-12.588708 15.194868,-11.843324 z"
       id="path4082"
       sodipodi:nodetypes="cssscccssszzaac" />
    <path
       style="fill:#000000;stroke:#000000;stroke-width:0.651066px;stroke-linecap:butt;stroke-linejoin:miter;stroke-opacity:1"
       d="m 119.5308,24.032256 c -17.41636,2.070513 -14.03972,16.315628 -14.03972,16.315628 5.05985,-4.230306 12.57698,-0.646726 14.03972,-16.315628 z"
       id="path4117"
       sodipodi:nodetypes="ccc" />
    <rect
       style="fill:#000000;fill-opacity:1;stroke-width:1.25589;stroke-linecap:round;stroke-linejoin:round;stroke-miterlimit:4;stroke-dasharray:none;stroke-opacity:0.848138"
       id="rect5449"
       width="199.97037"
       height="37.590733"
       x="5.5779738"
       y="231.02309" />
    <path
       style="fill:none;stroke:#000000;stroke-width:1.28706;stroke-linecap:butt;stroke-linejoin:miter;stroke-miterlimit:4;stroke-dasharray:none;stroke-opacity:1;marker-end:url(#Arrow1Mend-7)"
       d="m 105.02104,76.399746 c 0,55.153624 0,60.391664 0,60.391664"
       id="path5718" />
    <g
       inkscape:label=""
       transform="matrix(1.1047766,0,0,1.1047766,9.6573218,28.486448)"
       id="g5850">
      <g
         id="g5920">
        <g
           style="fill:#000000;fill-opacity:1"
           id="g2236">
          <use
             xlink:href="#symbol5054"
             x="91.925003"
             y="81.962997"
             id="use5315"
             width="100%"
             height="100%" />
          <use
             xlink:href="#symbol1353"
             x="94.969574"
             y="81.962997"
             id="use8359"
             width="100%"
             height="100%" />
          <use
             xlink:href="#symbol8851"
             x="99.950874"
             y="81.962997"
             id="use1348"
             width="100%"
             height="100%" />
          <use
             xlink:href="#symbol4279"
             x="103.85322"
             y="81.962997"
             id="use5839"
             width="100%"
             height="100%" />
          <use
             xlink:href="#symbol8715"
             x="108.2806"
             y="81.962997"
             id="use1080"
             width="100%"
             height="100%" />
        </g>
      </g>
    </g>
  </g>
</svg>
