<?xml version="1.0" encoding="UTF-8" standalone="no"?>
<!-- Created with Inkscape (http://www.inkscape.org/) -->

<svg
   width="297mm"
   height="210mm"
   viewBox="0 0 297 210"
   version="1.1"
   id="svg5"
   sodipodi:docname="plan.svg"
   inkscape:version="1.1 (c68e22c387, 2021-05-23)"
   inkscape:export-filename="D:\ucloud\documents\2021\pde_afternoon_pbd\plan.png"
   inkscape:export-xdpi="130.05"
   inkscape:export-ydpi="130.05"
   xmlns:inkscape="http://www.inkscape.org/namespaces/inkscape"
   xmlns:sodipodi="http://sodipodi.sourceforge.net/DTD/sodipodi-0.dtd"
   xmlns="http://www.w3.org/2000/svg"
   xmlns:svg="http://www.w3.org/2000/svg">
  <sodipodi:namedview
     id="namedview7"
     pagecolor="#ffffff"
     bordercolor="#666666"
     borderopacity="1.0"
     inkscape:pageshadow="2"
     inkscape:pageopacity="0.0"
     inkscape:pagecheckerboard="0"
     inkscape:document-units="mm"
     showgrid="false"
     inkscape:zoom="0.67449387"
     inkscape:cx="682.73415"
     inkscape:cy="451.44962"
     inkscape:window-width="1920"
     inkscape:window-height="1027"
     inkscape:window-x="-8"
     inkscape:window-y="-8"
     inkscape:window-maximized="1"
     inkscape:current-layer="layer1" />
  <defs
     id="defs2">
    <marker
       style="overflow:visible;"
       id="Arrow1Send"
       refX="0.0"
       refY="0.0"
       orient="auto"
       inkscape:stockid="Arrow1Send"
       inkscape:isstock="true">
      <path
         transform="scale(0.2) rotate(180) translate(6,0)"
         style="fill-rule:evenodd;fill:context-stroke;stroke:context-stroke;stroke-width:1.0pt;"
         d="M 0.0,0.0 L 5.0,-5.0 L -12.5,0.0 L 5.0,5.0 L 0.0,0.0 z "
         id="path874" />
    </marker>
    <marker
       style="overflow:visible;"
       id="marker16018"
       refX="0.0"
       refY="0.0"
       orient="auto"
       inkscape:stockid="Arrow1Lend"
       inkscape:isstock="true">
      <path
         transform="scale(0.8) rotate(180) translate(12.5,0)"
         style="fill-rule:evenodd;fill:context-stroke;stroke:context-stroke;stroke-width:1.0pt;"
         d="M 0.0,0.0 L 5.0,-5.0 L -12.5,0.0 L 5.0,5.0 L 0.0,0.0 z "
         id="path16016" />
    </marker>
    <marker
       style="overflow:visible;"
       id="marker12914"
       refX="0.0"
       refY="0.0"
       orient="auto"
       inkscape:stockid="Arrow1Mend"
       inkscape:isstock="true">
      <path
         transform="scale(0.4) rotate(180) translate(10,0)"
         style="fill-rule:evenodd;fill:context-stroke;stroke:context-stroke;stroke-width:1.0pt;"
         d="M 0.0,0.0 L 5.0,-5.0 L -12.5,0.0 L 5.0,5.0 L 0.0,0.0 z "
         id="path12912" />
    </marker>
    <marker
       style="overflow:visible;"
       id="Arrow1Lend"
       refX="0.0"
       refY="0.0"
       orient="auto"
       inkscape:stockid="Arrow1Lend"
       inkscape:isstock="true">
      <path
         transform="scale(0.8) rotate(180) translate(12.5,0)"
         style="fill-rule:evenodd;fill:context-stroke;stroke:context-stroke;stroke-width:1.0pt;"
         d="M 0.0,0.0 L 5.0,-5.0 L -12.5,0.0 L 5.0,5.0 L 0.0,0.0 z "
         id="path862" />
    </marker>
    <marker
       style="overflow:visible;"
       id="Arrow1Mend"
       refX="0.0"
       refY="0.0"
       orient="auto"
       inkscape:stockid="Arrow1Mend"
       inkscape:isstock="true">
      <path
         transform="scale(0.4) rotate(180) translate(10,0)"
         style="fill-rule:evenodd;fill:context-stroke;stroke:context-stroke;stroke-width:1.0pt;"
         d="M 0.0,0.0 L 5.0,-5.0 L -12.5,0.0 L 5.0,5.0 L 0.0,0.0 z "
         id="path868" />
    </marker>
    <marker
       style="overflow:visible"
       id="Arrow1Lstart"
       refX="0.0"
       refY="0.0"
       orient="auto"
       inkscape:stockid="Arrow1Lstart"
       inkscape:isstock="true">
      <path
         transform="scale(0.8) translate(12.5,0)"
         style="fill-rule:evenodd;fill:context-stroke;stroke:context-stroke;stroke-width:1.0pt"
         d="M 0.0,0.0 L 5.0,-5.0 L -12.5,0.0 L 5.0,5.0 L 0.0,0.0 z "
         id="path859" />
    </marker>
    <marker
       style="overflow:visible"
       id="Arrow1Mend-5"
       refX="0"
       refY="0"
       orient="auto"
       inkscape:stockid="Arrow1Mend"
       inkscape:isstock="true">
      <path
         transform="matrix(-0.4,0,0,-0.4,-4,0)"
         style="fill:context-stroke;fill-rule:evenodd;stroke:context-stroke;stroke-width:1pt"
         d="M 0,0 5,-5 -12.5,0 5,5 Z"
         id="path868-8" />
    </marker>
    <g
       id="g2724">
      <symbol
         overflow="visible"
         id="symbol2426">
        <path
           style="stroke:none;"
           d=""
           id="path6143" />
      </symbol>
      <symbol
         overflow="visible"
         id="symbol5701">
        <path
           style="stroke:none;"
           d="M 3.984375 -1.34375 C 5.515625 -1.46875 6.625 -2.390625 6.625 -3.40625 C 6.625 -4.4375 5.5 -5.34375 3.984375 -5.46875 L 3.984375 -6.015625 C 3.984375 -6.359375 3.984375 -6.5 4.921875 -6.5 L 5.25 -6.5 L 5.25 -6.8125 C 4.890625 -6.78125 3.984375 -6.78125 3.5625 -6.78125 C 3.15625 -6.78125 2.234375 -6.78125 1.875 -6.8125 L 1.875 -6.5 L 2.203125 -6.5 C 3.15625 -6.5 3.15625 -6.375 3.15625 -6.015625 L 3.15625 -5.46875 C 1.625 -5.3125 0.5625 -4.390625 0.5625 -3.40625 C 0.5625 -2.375 1.671875 -1.5 3.15625 -1.34375 L 3.15625 -0.78125 C 3.15625 -0.453125 3.15625 -0.3125 2.203125 -0.3125 L 1.875 -0.3125 L 1.875 0 C 2.234375 -0.03125 3.15625 -0.03125 3.5625 -0.03125 C 3.96875 -0.03125 4.890625 -0.03125 5.25 0 L 5.25 -0.3125 L 4.921875 -0.3125 C 3.984375 -0.3125 3.984375 -0.4375 3.984375 -0.78125 Z M 3.15625 -1.578125 C 1.734375 -1.765625 1.5625 -2.78125 1.5625 -3.40625 C 1.5625 -3.921875 1.65625 -5.03125 3.15625 -5.234375 Z M 3.984375 -5.25 C 5.359375 -5.078125 5.625 -4.171875 5.625 -3.40625 C 5.625 -2.8125 5.484375 -1.75 3.984375 -1.5625 Z M 3.984375 -5.25 "
           id="path2266" />
      </symbol>
      <symbol
         overflow="visible"
         id="symbol8461">
        <path
           style="stroke:none;"
           d="M 3.296875 2.390625 C 3.296875 2.359375 3.296875 2.34375 3.125 2.171875 C 1.890625 0.921875 1.5625 -0.96875 1.5625 -2.5 C 1.5625 -4.234375 1.9375 -5.96875 3.171875 -7.203125 C 3.296875 -7.328125 3.296875 -7.34375 3.296875 -7.375 C 3.296875 -7.453125 3.265625 -7.484375 3.203125 -7.484375 C 3.09375 -7.484375 2.203125 -6.796875 1.609375 -5.53125 C 1.109375 -4.4375 0.984375 -3.328125 0.984375 -2.5 C 0.984375 -1.71875 1.09375 -0.515625 1.640625 0.625 C 2.25 1.84375 3.09375 2.5 3.203125 2.5 C 3.265625 2.5 3.296875 2.46875 3.296875 2.390625 Z M 3.296875 2.390625 "
           id="path5421" />
      </symbol>
      <symbol
         overflow="visible"
         id="symbol1282">
        <path
           style="stroke:none;"
           d="M 2.875 -2.5 C 2.875 -3.265625 2.765625 -4.46875 2.21875 -5.609375 C 1.625 -6.828125 0.765625 -7.484375 0.671875 -7.484375 C 0.609375 -7.484375 0.5625 -7.4375 0.5625 -7.375 C 0.5625 -7.34375 0.5625 -7.328125 0.75 -7.140625 C 1.734375 -6.15625 2.296875 -4.578125 2.296875 -2.5 C 2.296875 -0.78125 1.9375 0.96875 0.703125 2.21875 C 0.5625 2.34375 0.5625 2.359375 0.5625 2.390625 C 0.5625 2.453125 0.609375 2.5 0.671875 2.5 C 0.765625 2.5 1.671875 1.8125 2.25 0.546875 C 2.765625 -0.546875 2.875 -1.65625 2.875 -2.5 Z M 2.875 -2.5 "
           id="path1318" />
      </symbol>
      <symbol
         overflow="visible"
         id="symbol392">
        <path
           style="stroke:none;"
           d=""
           id="path507" />
      </symbol>
      <symbol
         overflow="visible"
         id="symbol1430">
        <path
           style="stroke:none;"
           d="M 2.84375 -2.75 L 3.515625 -2.75 C 3.65625 -2.75 3.75 -2.75 3.75 -2.90625 C 3.75 -3 3.65625 -3 3.53125 -3 L 2.890625 -3 C 3.046875 -3.890625 3.09375 -4.203125 3.15625 -4.40625 C 3.1875 -4.5625 3.34375 -4.703125 3.515625 -4.703125 C 3.515625 -4.703125 3.703125 -4.703125 3.84375 -4.625 C 3.546875 -4.53125 3.53125 -4.28125 3.53125 -4.25 C 3.53125 -4.09375 3.65625 -3.984375 3.8125 -3.984375 C 4 -3.984375 4.203125 -4.140625 4.203125 -4.40625 C 4.203125 -4.734375 3.875 -4.90625 3.515625 -4.90625 C 3.203125 -4.90625 2.859375 -4.734375 2.671875 -4.390625 C 2.53125 -4.125 2.484375 -3.8125 2.328125 -3 L 1.78125 -3 C 1.640625 -3 1.546875 -3 1.546875 -2.84375 C 1.546875 -2.75 1.640625 -2.75 1.765625 -2.75 L 2.28125 -2.75 C 2.28125 -2.703125 1.84375 -0.203125 1.671875 0.546875 C 1.640625 0.703125 1.515625 1.21875 1.1875 1.21875 C 1.171875 1.21875 1.015625 1.21875 0.875 1.140625 C 1.15625 1.046875 1.1875 0.796875 1.1875 0.765625 C 1.1875 0.609375 1.0625 0.5 0.90625 0.5 C 0.71875 0.5 0.515625 0.65625 0.515625 0.921875 C 0.515625 1.234375 0.84375 1.421875 1.1875 1.421875 C 1.625 1.421875 1.9375 0.96875 2.015625 0.8125 C 2.265625 0.34375 2.4375 -0.515625 2.453125 -0.59375 Z M 2.84375 -2.75 "
           id="path2478" />
      </symbol>
      <symbol
         overflow="visible"
         id="symbol5818">
        <path
           style="stroke:none;"
           d="M 2.1875 -4.625 C 2.1875 -4.640625 2.203125 -4.734375 2.203125 -4.734375 C 2.203125 -4.78125 2.1875 -4.84375 2.09375 -4.84375 C 1.953125 -4.84375 1.375 -4.78125 1.203125 -4.765625 C 1.15625 -4.765625 1.046875 -4.75 1.046875 -4.609375 C 1.046875 -4.515625 1.15625 -4.515625 1.234375 -4.515625 C 1.5625 -4.515625 1.5625 -4.453125 1.5625 -4.40625 C 1.5625 -4.359375 1.546875 -4.3125 1.546875 -4.25 L 0.5625 -0.3125 C 0.515625 -0.1875 0.515625 -0.171875 0.515625 -0.15625 C 0.515625 -0.046875 0.609375 0.0625 0.765625 0.0625 C 0.84375 0.0625 0.96875 0.03125 1.046875 -0.109375 C 1.0625 -0.15625 1.125 -0.40625 1.15625 -0.546875 L 1.328125 -1.171875 C 1.34375 -1.28125 1.421875 -1.546875 1.4375 -1.640625 C 1.5 -1.90625 1.5 -1.921875 1.640625 -2.140625 C 1.875 -2.484375 2.21875 -2.875 2.765625 -2.875 C 3.15625 -2.875 3.171875 -2.5625 3.171875 -2.390625 C 3.171875 -1.96875 2.875 -1.203125 2.765625 -0.90625 C 2.6875 -0.703125 2.65625 -0.640625 2.65625 -0.53125 C 2.65625 -0.15625 2.96875 0.0625 3.3125 0.0625 C 4.015625 0.0625 4.328125 -0.890625 4.328125 -1 C 4.328125 -1.09375 4.234375 -1.09375 4.203125 -1.09375 C 4.109375 -1.09375 4.109375 -1.046875 4.078125 -0.96875 C 3.921875 -0.40625 3.609375 -0.125 3.34375 -0.125 C 3.1875 -0.125 3.15625 -0.21875 3.15625 -0.375 C 3.15625 -0.53125 3.203125 -0.625 3.328125 -0.9375 C 3.40625 -1.15625 3.6875 -1.890625 3.6875 -2.28125 C 3.6875 -2.390625 3.6875 -2.6875 3.4375 -2.890625 C 3.3125 -2.96875 3.109375 -3.078125 2.78125 -3.078125 C 2.28125 -3.078125 1.90625 -2.796875 1.65625 -2.5 Z M 2.1875 -4.625 "
           id="path940" />
      </symbol>
      <symbol
         overflow="visible"
         id="symbol3870">
        <path
           style="stroke:none;"
           d=""
           id="path3275" />
      </symbol>
      <symbol
         overflow="visible"
         id="symbol5685">
        <path
           style="stroke:none;"
           d="M 3.328125 -3.015625 C 3.390625 -3.265625 3.625 -4.1875 4.3125 -4.1875 C 4.359375 -4.1875 4.609375 -4.1875 4.8125 -4.0625 C 4.53125 -4 4.34375 -3.765625 4.34375 -3.515625 C 4.34375 -3.359375 4.453125 -3.171875 4.71875 -3.171875 C 4.9375 -3.171875 5.25 -3.34375 5.25 -3.75 C 5.25 -4.265625 4.671875 -4.40625 4.328125 -4.40625 C 3.75 -4.40625 3.40625 -3.875 3.28125 -3.65625 C 3.03125 -4.3125 2.5 -4.40625 2.203125 -4.40625 C 1.171875 -4.40625 0.59375 -3.125 0.59375 -2.875 C 0.59375 -2.765625 0.703125 -2.765625 0.71875 -2.765625 C 0.796875 -2.765625 0.828125 -2.796875 0.84375 -2.875 C 1.1875 -3.9375 1.84375 -4.1875 2.1875 -4.1875 C 2.375 -4.1875 2.71875 -4.09375 2.71875 -3.515625 C 2.71875 -3.203125 2.546875 -2.546875 2.1875 -1.140625 C 2.03125 -0.53125 1.671875 -0.109375 1.234375 -0.109375 C 1.171875 -0.109375 0.953125 -0.109375 0.734375 -0.234375 C 0.984375 -0.296875 1.203125 -0.5 1.203125 -0.78125 C 1.203125 -1.046875 0.984375 -1.125 0.84375 -1.125 C 0.53125 -1.125 0.296875 -0.875 0.296875 -0.546875 C 0.296875 -0.09375 0.78125 0.109375 1.21875 0.109375 C 1.890625 0.109375 2.25 -0.59375 2.265625 -0.640625 C 2.390625 -0.28125 2.75 0.109375 3.34375 0.109375 C 4.375 0.109375 4.9375 -1.171875 4.9375 -1.421875 C 4.9375 -1.53125 4.859375 -1.53125 4.828125 -1.53125 C 4.734375 -1.53125 4.71875 -1.484375 4.6875 -1.421875 C 4.359375 -0.34375 3.6875 -0.109375 3.375 -0.109375 C 2.984375 -0.109375 2.828125 -0.421875 2.828125 -0.765625 C 2.828125 -0.984375 2.875 -1.203125 2.984375 -1.640625 Z M 3.328125 -3.015625 "
           id="path5163" />
      </symbol>
    </g>
    <g
       id="g5111">
      <symbol
         overflow="visible"
         id="symbol9891">
        <path
           style="stroke:none;"
           d=""
           id="path6659" />
      </symbol>
      <symbol
         overflow="visible"
         id="symbol2862">
        <path
           style="stroke:none;"
           d="M 1.71875 -3.75 L 1.71875 -4.40625 L 0.28125 -4.296875 L 0.28125 -3.984375 C 0.984375 -3.984375 1.0625 -3.921875 1.0625 -3.484375 L 1.0625 1.171875 C 1.0625 1.625 0.953125 1.625 0.28125 1.625 L 0.28125 1.9375 C 0.625 1.921875 1.140625 1.90625 1.390625 1.90625 C 1.671875 1.90625 2.171875 1.921875 2.515625 1.9375 L 2.515625 1.625 C 1.859375 1.625 1.75 1.625 1.75 1.171875 L 1.75 -0.59375 C 1.796875 -0.421875 2.21875 0.109375 2.96875 0.109375 C 4.15625 0.109375 5.1875 -0.875 5.1875 -2.15625 C 5.1875 -3.421875 4.234375 -4.40625 3.109375 -4.40625 C 2.328125 -4.40625 1.90625 -3.96875 1.71875 -3.75 Z M 1.75 -1.140625 L 1.75 -3.359375 C 2.03125 -3.875 2.515625 -4.15625 3.03125 -4.15625 C 3.765625 -4.15625 4.359375 -3.28125 4.359375 -2.15625 C 4.359375 -0.953125 3.671875 -0.109375 2.9375 -0.109375 C 2.53125 -0.109375 2.15625 -0.3125 1.890625 -0.71875 C 1.75 -0.921875 1.75 -0.9375 1.75 -1.140625 Z M 1.75 -1.140625 "
           id="path9970" />
      </symbol>
      <symbol
         overflow="visible"
         id="symbol6448">
        <path
           style="stroke:none;"
           d="M 1.671875 -3.3125 L 1.671875 -4.40625 L 0.28125 -4.296875 L 0.28125 -3.984375 C 0.984375 -3.984375 1.0625 -3.921875 1.0625 -3.421875 L 1.0625 -0.75 C 1.0625 -0.3125 0.953125 -0.3125 0.28125 -0.3125 L 0.28125 0 C 0.671875 -0.015625 1.140625 -0.03125 1.421875 -0.03125 C 1.8125 -0.03125 2.28125 -0.03125 2.6875 0 L 2.6875 -0.3125 L 2.46875 -0.3125 C 1.734375 -0.3125 1.71875 -0.421875 1.71875 -0.78125 L 1.71875 -2.3125 C 1.71875 -3.296875 2.140625 -4.1875 2.890625 -4.1875 C 2.953125 -4.1875 2.984375 -4.1875 3 -4.171875 C 2.96875 -4.171875 2.765625 -4.046875 2.765625 -3.78125 C 2.765625 -3.515625 2.984375 -3.359375 3.203125 -3.359375 C 3.375 -3.359375 3.625 -3.484375 3.625 -3.796875 C 3.625 -4.109375 3.3125 -4.40625 2.890625 -4.40625 C 2.15625 -4.40625 1.796875 -3.734375 1.671875 -3.3125 Z M 1.671875 -3.3125 "
           id="path3219" />
      </symbol>
      <symbol
         overflow="visible"
         id="symbol5896">
        <path
           style="stroke:none;"
           d="M 4.6875 -2.140625 C 4.6875 -3.40625 3.703125 -4.46875 2.5 -4.46875 C 1.25 -4.46875 0.28125 -3.375 0.28125 -2.140625 C 0.28125 -0.84375 1.3125 0.109375 2.484375 0.109375 C 3.6875 0.109375 4.6875 -0.875 4.6875 -2.140625 Z M 2.5 -0.140625 C 2.0625 -0.140625 1.625 -0.34375 1.359375 -0.8125 C 1.109375 -1.25 1.109375 -1.859375 1.109375 -2.21875 C 1.109375 -2.609375 1.109375 -3.140625 1.34375 -3.578125 C 1.609375 -4.03125 2.078125 -4.25 2.484375 -4.25 C 2.921875 -4.25 3.34375 -4.03125 3.609375 -3.59375 C 3.875 -3.171875 3.875 -2.59375 3.875 -2.21875 C 3.875 -1.859375 3.875 -1.3125 3.65625 -0.875 C 3.421875 -0.421875 2.984375 -0.140625 2.5 -0.140625 Z M 2.5 -0.140625 "
           id="path1213" />
      </symbol>
      <symbol
         overflow="visible"
         id="symbol6876">
        <path
           style="stroke:none;"
           d="M 2.859375 -2.34375 C 3.15625 -2.71875 3.53125 -3.203125 3.78125 -3.46875 C 4.09375 -3.828125 4.5 -3.984375 4.96875 -3.984375 L 4.96875 -4.296875 C 4.703125 -4.28125 4.40625 -4.265625 4.140625 -4.265625 C 3.84375 -4.265625 3.3125 -4.28125 3.1875 -4.296875 L 3.1875 -3.984375 C 3.40625 -3.96875 3.484375 -3.84375 3.484375 -3.671875 C 3.484375 -3.515625 3.375 -3.390625 3.328125 -3.328125 L 2.71875 -2.546875 L 1.9375 -3.5625 C 1.84375 -3.65625 1.84375 -3.671875 1.84375 -3.734375 C 1.84375 -3.890625 2 -3.984375 2.1875 -3.984375 L 2.1875 -4.296875 C 1.9375 -4.28125 1.28125 -4.265625 1.109375 -4.265625 C 0.90625 -4.265625 0.4375 -4.28125 0.171875 -4.296875 L 0.171875 -3.984375 C 0.875 -3.984375 0.875 -3.984375 1.34375 -3.375 L 2.328125 -2.09375 L 1.390625 -0.90625 C 0.921875 -0.328125 0.328125 -0.3125 0.125 -0.3125 L 0.125 0 C 0.375 -0.015625 0.6875 -0.03125 0.953125 -0.03125 C 1.234375 -0.03125 1.65625 -0.015625 1.890625 0 L 1.890625 -0.3125 C 1.671875 -0.34375 1.609375 -0.46875 1.609375 -0.625 C 1.609375 -0.84375 1.890625 -1.171875 2.5 -1.890625 L 3.265625 -0.890625 C 3.34375 -0.78125 3.46875 -0.625 3.46875 -0.5625 C 3.46875 -0.46875 3.375 -0.3125 3.109375 -0.3125 L 3.109375 0 C 3.40625 -0.015625 3.96875 -0.03125 4.1875 -0.03125 C 4.453125 -0.03125 4.84375 -0.015625 5.140625 0 L 5.140625 -0.3125 C 4.609375 -0.3125 4.421875 -0.328125 4.203125 -0.625 Z M 2.859375 -2.34375 "
           id="path4234" />
      </symbol>
      <symbol
         overflow="visible"
         id="symbol5141">
        <path
           style="stroke:none;"
           d="M 3.296875 2.390625 C 3.296875 2.359375 3.296875 2.34375 3.125 2.171875 C 1.890625 0.921875 1.5625 -0.96875 1.5625 -2.5 C 1.5625 -4.234375 1.9375 -5.96875 3.171875 -7.203125 C 3.296875 -7.328125 3.296875 -7.34375 3.296875 -7.375 C 3.296875 -7.453125 3.265625 -7.484375 3.203125 -7.484375 C 3.09375 -7.484375 2.203125 -6.796875 1.609375 -5.53125 C 1.109375 -4.4375 0.984375 -3.328125 0.984375 -2.5 C 0.984375 -1.71875 1.09375 -0.515625 1.640625 0.625 C 2.25 1.84375 3.09375 2.5 3.203125 2.5 C 3.265625 2.5 3.296875 2.46875 3.296875 2.390625 Z M 3.296875 2.390625 "
           id="path2851" />
      </symbol>
      <symbol
         overflow="visible"
         id="symbol7247">
        <path
           style="stroke:none;"
           d="M 3.984375 -1.34375 C 5.515625 -1.46875 6.625 -2.390625 6.625 -3.40625 C 6.625 -4.4375 5.5 -5.34375 3.984375 -5.46875 L 3.984375 -6.015625 C 3.984375 -6.359375 3.984375 -6.5 4.921875 -6.5 L 5.25 -6.5 L 5.25 -6.8125 C 4.890625 -6.78125 3.984375 -6.78125 3.5625 -6.78125 C 3.15625 -6.78125 2.234375 -6.78125 1.875 -6.8125 L 1.875 -6.5 L 2.203125 -6.5 C 3.15625 -6.5 3.15625 -6.375 3.15625 -6.015625 L 3.15625 -5.46875 C 1.625 -5.3125 0.5625 -4.390625 0.5625 -3.40625 C 0.5625 -2.375 1.671875 -1.5 3.15625 -1.34375 L 3.15625 -0.78125 C 3.15625 -0.453125 3.15625 -0.3125 2.203125 -0.3125 L 1.875 -0.3125 L 1.875 0 C 2.234375 -0.03125 3.15625 -0.03125 3.5625 -0.03125 C 3.96875 -0.03125 4.890625 -0.03125 5.25 0 L 5.25 -0.3125 L 4.921875 -0.3125 C 3.984375 -0.3125 3.984375 -0.4375 3.984375 -0.78125 Z M 3.15625 -1.578125 C 1.734375 -1.765625 1.5625 -2.78125 1.5625 -3.40625 C 1.5625 -3.921875 1.65625 -5.03125 3.15625 -5.234375 Z M 3.984375 -5.25 C 5.359375 -5.078125 5.625 -4.171875 5.625 -3.40625 C 5.625 -2.8125 5.484375 -1.75 3.984375 -1.5625 Z M 3.984375 -5.25 "
           id="path5836" />
      </symbol>
      <symbol
         overflow="visible"
         id="symbol3395">
        <path
           style="stroke:none;"
           d="M 2.875 -2.5 C 2.875 -3.265625 2.765625 -4.46875 2.21875 -5.609375 C 1.625 -6.828125 0.765625 -7.484375 0.671875 -7.484375 C 0.609375 -7.484375 0.5625 -7.4375 0.5625 -7.375 C 0.5625 -7.34375 0.5625 -7.328125 0.75 -7.140625 C 1.734375 -6.15625 2.296875 -4.578125 2.296875 -2.5 C 2.296875 -0.78125 1.9375 0.96875 0.703125 2.21875 C 0.5625 2.34375 0.5625 2.359375 0.5625 2.390625 C 0.5625 2.453125 0.609375 2.5 0.671875 2.5 C 0.765625 2.5 1.671875 1.8125 2.25 0.546875 C 2.765625 -0.546875 2.875 -1.65625 2.875 -2.5 Z M 2.875 -2.5 "
           id="path1401" />
      </symbol>
      <symbol
         overflow="visible"
         id="symbol9265">
        <path
           style="stroke:none;"
           d=""
           id="path9747" />
      </symbol>
      <symbol
         overflow="visible"
         id="symbol2326">
        <path
           style="stroke:none;"
           d="M 3.703125 -2.578125 C 3.734375 -2.671875 3.734375 -2.703125 3.734375 -2.71875 C 3.734375 -2.875 3.609375 -2.9375 3.5 -2.9375 C 3.34375 -2.9375 3.203125 -2.8125 3.171875 -2.671875 C 3.0625 -2.859375 2.828125 -3.078125 2.453125 -3.078125 C 1.59375 -3.078125 0.671875 -2.140625 0.671875 -1.140625 C 0.671875 -0.421875 1.15625 0 1.734375 0 C 2.0625 0 2.359375 -0.15625 2.609375 -0.375 L 2.453125 0.25 C 2.375 0.546875 2.328125 0.734375 2.0625 0.96875 C 1.75 1.21875 1.453125 1.21875 1.28125 1.21875 C 0.96875 1.21875 0.875 1.203125 0.75 1.171875 C 0.921875 1.09375 0.96875 0.921875 0.96875 0.828125 C 0.96875 0.65625 0.84375 0.578125 0.703125 0.578125 C 0.5 0.578125 0.296875 0.734375 0.296875 1 C 0.296875 1.421875 0.90625 1.421875 1.296875 1.421875 C 2.390625 1.421875 2.84375 0.859375 2.953125 0.46875 Z M 2.75 -0.921875 C 2.71875 -0.828125 2.71875 -0.8125 2.59375 -0.671875 C 2.359375 -0.375 2.015625 -0.1875 1.75 -0.1875 C 1.40625 -0.1875 1.234375 -0.5 1.234375 -0.859375 C 1.234375 -1.15625 1.421875 -1.9375 1.609375 -2.25 C 1.890625 -2.734375 2.21875 -2.875 2.453125 -2.875 C 2.953125 -2.875 3.078125 -2.359375 3.078125 -2.28125 C 3.078125 -2.265625 3.078125 -2.265625 3.0625 -2.1875 Z M 2.75 -0.921875 "
           id="path7693" />
      </symbol>
      <symbol
         overflow="visible"
         id="symbol8371">
        <path
           style="stroke:none;"
           d="M 2.84375 -2.75 L 3.515625 -2.75 C 3.65625 -2.75 3.75 -2.75 3.75 -2.90625 C 3.75 -3 3.65625 -3 3.53125 -3 L 2.890625 -3 C 3.046875 -3.890625 3.09375 -4.203125 3.15625 -4.40625 C 3.1875 -4.5625 3.34375 -4.703125 3.515625 -4.703125 C 3.515625 -4.703125 3.703125 -4.703125 3.84375 -4.625 C 3.546875 -4.53125 3.53125 -4.28125 3.53125 -4.25 C 3.53125 -4.09375 3.65625 -3.984375 3.8125 -3.984375 C 4 -3.984375 4.203125 -4.140625 4.203125 -4.40625 C 4.203125 -4.734375 3.875 -4.90625 3.515625 -4.90625 C 3.203125 -4.90625 2.859375 -4.734375 2.671875 -4.390625 C 2.53125 -4.125 2.484375 -3.8125 2.328125 -3 L 1.78125 -3 C 1.640625 -3 1.546875 -3 1.546875 -2.84375 C 1.546875 -2.75 1.640625 -2.75 1.765625 -2.75 L 2.28125 -2.75 C 2.28125 -2.703125 1.84375 -0.203125 1.671875 0.546875 C 1.640625 0.703125 1.515625 1.21875 1.1875 1.21875 C 1.171875 1.21875 1.015625 1.21875 0.875 1.140625 C 1.15625 1.046875 1.1875 0.796875 1.1875 0.765625 C 1.1875 0.609375 1.0625 0.5 0.90625 0.5 C 0.71875 0.5 0.515625 0.65625 0.515625 0.921875 C 0.515625 1.234375 0.84375 1.421875 1.1875 1.421875 C 1.625 1.421875 1.9375 0.96875 2.015625 0.8125 C 2.265625 0.34375 2.4375 -0.515625 2.453125 -0.59375 Z M 2.84375 -2.75 "
           id="path3402" />
      </symbol>
      <symbol
         overflow="visible"
         id="symbol5577">
        <path
           style="stroke:none;"
           d="M 2.1875 -4.625 C 2.1875 -4.640625 2.203125 -4.734375 2.203125 -4.734375 C 2.203125 -4.78125 2.1875 -4.84375 2.09375 -4.84375 C 1.953125 -4.84375 1.375 -4.78125 1.203125 -4.765625 C 1.15625 -4.765625 1.046875 -4.75 1.046875 -4.609375 C 1.046875 -4.515625 1.15625 -4.515625 1.234375 -4.515625 C 1.5625 -4.515625 1.5625 -4.453125 1.5625 -4.40625 C 1.5625 -4.359375 1.546875 -4.3125 1.546875 -4.25 L 0.5625 -0.3125 C 0.515625 -0.1875 0.515625 -0.171875 0.515625 -0.15625 C 0.515625 -0.046875 0.609375 0.0625 0.765625 0.0625 C 0.84375 0.0625 0.96875 0.03125 1.046875 -0.109375 C 1.0625 -0.15625 1.125 -0.40625 1.15625 -0.546875 L 1.328125 -1.171875 C 1.34375 -1.28125 1.421875 -1.546875 1.4375 -1.640625 C 1.5 -1.90625 1.5 -1.921875 1.640625 -2.140625 C 1.875 -2.484375 2.21875 -2.875 2.765625 -2.875 C 3.15625 -2.875 3.171875 -2.5625 3.171875 -2.390625 C 3.171875 -1.96875 2.875 -1.203125 2.765625 -0.90625 C 2.6875 -0.703125 2.65625 -0.640625 2.65625 -0.53125 C 2.65625 -0.15625 2.96875 0.0625 3.3125 0.0625 C 4.015625 0.0625 4.328125 -0.890625 4.328125 -1 C 4.328125 -1.09375 4.234375 -1.09375 4.203125 -1.09375 C 4.109375 -1.09375 4.109375 -1.046875 4.078125 -0.96875 C 3.921875 -0.40625 3.609375 -0.125 3.34375 -0.125 C 3.1875 -0.125 3.15625 -0.21875 3.15625 -0.375 C 3.15625 -0.53125 3.203125 -0.625 3.328125 -0.9375 C 3.40625 -1.15625 3.6875 -1.890625 3.6875 -2.28125 C 3.6875 -2.390625 3.6875 -2.6875 3.4375 -2.890625 C 3.3125 -2.96875 3.109375 -3.078125 2.78125 -3.078125 C 2.28125 -3.078125 1.90625 -2.796875 1.65625 -2.5 Z M 2.1875 -4.625 "
           id="path2317" />
      </symbol>
      <symbol
         overflow="visible"
         id="symbol903">
        <path
           style="stroke:none;"
           d=""
           id="path4443" />
      </symbol>
      <symbol
         overflow="visible"
         id="symbol9341">
        <path
           style="stroke:none;"
           d="M 1.984375 -3.171875 C 1.984375 -3.3125 1.96875 -3.3125 1.796875 -3.3125 C 1.453125 -3 0.890625 -3 0.796875 -3 L 0.71875 -3 L 0.71875 -2.78125 L 0.796875 -2.78125 C 0.90625 -2.78125 1.234375 -2.796875 1.53125 -2.921875 L 1.53125 -0.421875 C 1.53125 -0.28125 1.53125 -0.21875 1 -0.21875 L 0.75 -0.21875 L 0.75 0 C 1.015625 -0.015625 1.46875 -0.015625 1.75 -0.015625 C 2.046875 -0.015625 2.484375 -0.015625 2.765625 0 L 2.765625 -0.21875 L 2.515625 -0.21875 C 1.984375 -0.21875 1.984375 -0.28125 1.984375 -0.421875 Z M 1.984375 -3.171875 "
           id="path3360" />
      </symbol>
      <symbol
         overflow="visible"
         id="symbol4025">
        <path
           style="stroke:none;"
           d=""
           id="path7807" />
      </symbol>
      <symbol
         overflow="visible"
         id="symbol5171">
        <path
           style="stroke:none;"
           d="M 3.328125 -3.015625 C 3.390625 -3.265625 3.625 -4.1875 4.3125 -4.1875 C 4.359375 -4.1875 4.609375 -4.1875 4.8125 -4.0625 C 4.53125 -4 4.34375 -3.765625 4.34375 -3.515625 C 4.34375 -3.359375 4.453125 -3.171875 4.71875 -3.171875 C 4.9375 -3.171875 5.25 -3.34375 5.25 -3.75 C 5.25 -4.265625 4.671875 -4.40625 4.328125 -4.40625 C 3.75 -4.40625 3.40625 -3.875 3.28125 -3.65625 C 3.03125 -4.3125 2.5 -4.40625 2.203125 -4.40625 C 1.171875 -4.40625 0.59375 -3.125 0.59375 -2.875 C 0.59375 -2.765625 0.703125 -2.765625 0.71875 -2.765625 C 0.796875 -2.765625 0.828125 -2.796875 0.84375 -2.875 C 1.1875 -3.9375 1.84375 -4.1875 2.1875 -4.1875 C 2.375 -4.1875 2.71875 -4.09375 2.71875 -3.515625 C 2.71875 -3.203125 2.546875 -2.546875 2.1875 -1.140625 C 2.03125 -0.53125 1.671875 -0.109375 1.234375 -0.109375 C 1.171875 -0.109375 0.953125 -0.109375 0.734375 -0.234375 C 0.984375 -0.296875 1.203125 -0.5 1.203125 -0.78125 C 1.203125 -1.046875 0.984375 -1.125 0.84375 -1.125 C 0.53125 -1.125 0.296875 -0.875 0.296875 -0.546875 C 0.296875 -0.09375 0.78125 0.109375 1.21875 0.109375 C 1.890625 0.109375 2.25 -0.59375 2.265625 -0.640625 C 2.390625 -0.28125 2.75 0.109375 3.34375 0.109375 C 4.375 0.109375 4.9375 -1.171875 4.9375 -1.421875 C 4.9375 -1.53125 4.859375 -1.53125 4.828125 -1.53125 C 4.734375 -1.53125 4.71875 -1.484375 4.6875 -1.421875 C 4.359375 -0.34375 3.6875 -0.109375 3.375 -0.109375 C 2.984375 -0.109375 2.828125 -0.421875 2.828125 -0.765625 C 2.828125 -0.984375 2.875 -1.203125 2.984375 -1.640625 Z M 3.328125 -3.015625 "
           id="path7123" />
      </symbol>
    </g>
    <g
       id="g9541">
      <symbol
         overflow="visible"
         id="symbol5588">
        <path
           style="stroke:none;"
           d=""
           id="path9061" />
      </symbol>
      <symbol
         overflow="visible"
         id="symbol4718">
        <path
           style="stroke:none;"
           d="M 1.71875 -3.75 L 1.71875 -4.40625 L 0.28125 -4.296875 L 0.28125 -3.984375 C 0.984375 -3.984375 1.0625 -3.921875 1.0625 -3.484375 L 1.0625 1.171875 C 1.0625 1.625 0.953125 1.625 0.28125 1.625 L 0.28125 1.9375 C 0.625 1.921875 1.140625 1.90625 1.390625 1.90625 C 1.671875 1.90625 2.171875 1.921875 2.515625 1.9375 L 2.515625 1.625 C 1.859375 1.625 1.75 1.625 1.75 1.171875 L 1.75 -0.59375 C 1.796875 -0.421875 2.21875 0.109375 2.96875 0.109375 C 4.15625 0.109375 5.1875 -0.875 5.1875 -2.15625 C 5.1875 -3.421875 4.234375 -4.40625 3.109375 -4.40625 C 2.328125 -4.40625 1.90625 -3.96875 1.71875 -3.75 Z M 1.75 -1.140625 L 1.75 -3.359375 C 2.03125 -3.875 2.515625 -4.15625 3.03125 -4.15625 C 3.765625 -4.15625 4.359375 -3.28125 4.359375 -2.15625 C 4.359375 -0.953125 3.671875 -0.109375 2.9375 -0.109375 C 2.53125 -0.109375 2.15625 -0.3125 1.890625 -0.71875 C 1.75 -0.921875 1.75 -0.9375 1.75 -1.140625 Z M 1.75 -1.140625 "
           id="path4368" />
      </symbol>
      <symbol
         overflow="visible"
         id="symbol4625">
        <path
           style="stroke:none;"
           d="M 1.671875 -3.3125 L 1.671875 -4.40625 L 0.28125 -4.296875 L 0.28125 -3.984375 C 0.984375 -3.984375 1.0625 -3.921875 1.0625 -3.421875 L 1.0625 -0.75 C 1.0625 -0.3125 0.953125 -0.3125 0.28125 -0.3125 L 0.28125 0 C 0.671875 -0.015625 1.140625 -0.03125 1.421875 -0.03125 C 1.8125 -0.03125 2.28125 -0.03125 2.6875 0 L 2.6875 -0.3125 L 2.46875 -0.3125 C 1.734375 -0.3125 1.71875 -0.421875 1.71875 -0.78125 L 1.71875 -2.3125 C 1.71875 -3.296875 2.140625 -4.1875 2.890625 -4.1875 C 2.953125 -4.1875 2.984375 -4.1875 3 -4.171875 C 2.96875 -4.171875 2.765625 -4.046875 2.765625 -3.78125 C 2.765625 -3.515625 2.984375 -3.359375 3.203125 -3.359375 C 3.375 -3.359375 3.625 -3.484375 3.625 -3.796875 C 3.625 -4.109375 3.3125 -4.40625 2.890625 -4.40625 C 2.15625 -4.40625 1.796875 -3.734375 1.671875 -3.3125 Z M 1.671875 -3.3125 "
           id="path8483" />
      </symbol>
      <symbol
         overflow="visible"
         id="symbol6551">
        <path
           style="stroke:none;"
           d="M 4.6875 -2.140625 C 4.6875 -3.40625 3.703125 -4.46875 2.5 -4.46875 C 1.25 -4.46875 0.28125 -3.375 0.28125 -2.140625 C 0.28125 -0.84375 1.3125 0.109375 2.484375 0.109375 C 3.6875 0.109375 4.6875 -0.875 4.6875 -2.140625 Z M 2.5 -0.140625 C 2.0625 -0.140625 1.625 -0.34375 1.359375 -0.8125 C 1.109375 -1.25 1.109375 -1.859375 1.109375 -2.21875 C 1.109375 -2.609375 1.109375 -3.140625 1.34375 -3.578125 C 1.609375 -4.03125 2.078125 -4.25 2.484375 -4.25 C 2.921875 -4.25 3.34375 -4.03125 3.609375 -3.59375 C 3.875 -3.171875 3.875 -2.59375 3.875 -2.21875 C 3.875 -1.859375 3.875 -1.3125 3.65625 -0.875 C 3.421875 -0.421875 2.984375 -0.140625 2.5 -0.140625 Z M 2.5 -0.140625 "
           id="path7093" />
      </symbol>
      <symbol
         overflow="visible"
         id="symbol6188">
        <path
           style="stroke:none;"
           d="M 2.859375 -2.34375 C 3.15625 -2.71875 3.53125 -3.203125 3.78125 -3.46875 C 4.09375 -3.828125 4.5 -3.984375 4.96875 -3.984375 L 4.96875 -4.296875 C 4.703125 -4.28125 4.40625 -4.265625 4.140625 -4.265625 C 3.84375 -4.265625 3.3125 -4.28125 3.1875 -4.296875 L 3.1875 -3.984375 C 3.40625 -3.96875 3.484375 -3.84375 3.484375 -3.671875 C 3.484375 -3.515625 3.375 -3.390625 3.328125 -3.328125 L 2.71875 -2.546875 L 1.9375 -3.5625 C 1.84375 -3.65625 1.84375 -3.671875 1.84375 -3.734375 C 1.84375 -3.890625 2 -3.984375 2.1875 -3.984375 L 2.1875 -4.296875 C 1.9375 -4.28125 1.28125 -4.265625 1.109375 -4.265625 C 0.90625 -4.265625 0.4375 -4.28125 0.171875 -4.296875 L 0.171875 -3.984375 C 0.875 -3.984375 0.875 -3.984375 1.34375 -3.375 L 2.328125 -2.09375 L 1.390625 -0.90625 C 0.921875 -0.328125 0.328125 -0.3125 0.125 -0.3125 L 0.125 0 C 0.375 -0.015625 0.6875 -0.03125 0.953125 -0.03125 C 1.234375 -0.03125 1.65625 -0.015625 1.890625 0 L 1.890625 -0.3125 C 1.671875 -0.34375 1.609375 -0.46875 1.609375 -0.625 C 1.609375 -0.84375 1.890625 -1.171875 2.5 -1.890625 L 3.265625 -0.890625 C 3.34375 -0.78125 3.46875 -0.625 3.46875 -0.5625 C 3.46875 -0.46875 3.375 -0.3125 3.109375 -0.3125 L 3.109375 0 C 3.40625 -0.015625 3.96875 -0.03125 4.1875 -0.03125 C 4.453125 -0.03125 4.84375 -0.015625 5.140625 0 L 5.140625 -0.3125 C 4.609375 -0.3125 4.421875 -0.328125 4.203125 -0.625 Z M 2.859375 -2.34375 "
           id="path4054" />
      </symbol>
      <symbol
         overflow="visible"
         id="symbol2428">
        <path
           style="stroke:none;"
           d="M 3.296875 2.390625 C 3.296875 2.359375 3.296875 2.34375 3.125 2.171875 C 1.890625 0.921875 1.5625 -0.96875 1.5625 -2.5 C 1.5625 -4.234375 1.9375 -5.96875 3.171875 -7.203125 C 3.296875 -7.328125 3.296875 -7.34375 3.296875 -7.375 C 3.296875 -7.453125 3.265625 -7.484375 3.203125 -7.484375 C 3.09375 -7.484375 2.203125 -6.796875 1.609375 -5.53125 C 1.109375 -4.4375 0.984375 -3.328125 0.984375 -2.5 C 0.984375 -1.71875 1.09375 -0.515625 1.640625 0.625 C 2.25 1.84375 3.09375 2.5 3.203125 2.5 C 3.265625 2.5 3.296875 2.46875 3.296875 2.390625 Z M 3.296875 2.390625 "
           id="path5476" />
      </symbol>
      <symbol
         overflow="visible"
         id="symbol6003">
        <path
           style="stroke:none;"
           d="M 3.984375 -1.34375 C 5.515625 -1.46875 6.625 -2.390625 6.625 -3.40625 C 6.625 -4.4375 5.5 -5.34375 3.984375 -5.46875 L 3.984375 -6.015625 C 3.984375 -6.359375 3.984375 -6.5 4.921875 -6.5 L 5.25 -6.5 L 5.25 -6.8125 C 4.890625 -6.78125 3.984375 -6.78125 3.5625 -6.78125 C 3.15625 -6.78125 2.234375 -6.78125 1.875 -6.8125 L 1.875 -6.5 L 2.203125 -6.5 C 3.15625 -6.5 3.15625 -6.375 3.15625 -6.015625 L 3.15625 -5.46875 C 1.625 -5.3125 0.5625 -4.390625 0.5625 -3.40625 C 0.5625 -2.375 1.671875 -1.5 3.15625 -1.34375 L 3.15625 -0.78125 C 3.15625 -0.453125 3.15625 -0.3125 2.203125 -0.3125 L 1.875 -0.3125 L 1.875 0 C 2.234375 -0.03125 3.15625 -0.03125 3.5625 -0.03125 C 3.96875 -0.03125 4.890625 -0.03125 5.25 0 L 5.25 -0.3125 L 4.921875 -0.3125 C 3.984375 -0.3125 3.984375 -0.4375 3.984375 -0.78125 Z M 3.15625 -1.578125 C 1.734375 -1.765625 1.5625 -2.78125 1.5625 -3.40625 C 1.5625 -3.921875 1.65625 -5.03125 3.15625 -5.234375 Z M 3.984375 -5.25 C 5.359375 -5.078125 5.625 -4.171875 5.625 -3.40625 C 5.625 -2.8125 5.484375 -1.75 3.984375 -1.5625 Z M 3.984375 -5.25 "
           id="path8893" />
      </symbol>
      <symbol
         overflow="visible"
         id="symbol1234">
        <path
           style="stroke:none;"
           d="M 2.875 -2.5 C 2.875 -3.265625 2.765625 -4.46875 2.21875 -5.609375 C 1.625 -6.828125 0.765625 -7.484375 0.671875 -7.484375 C 0.609375 -7.484375 0.5625 -7.4375 0.5625 -7.375 C 0.5625 -7.34375 0.5625 -7.328125 0.75 -7.140625 C 1.734375 -6.15625 2.296875 -4.578125 2.296875 -2.5 C 2.296875 -0.78125 1.9375 0.96875 0.703125 2.21875 C 0.5625 2.34375 0.5625 2.359375 0.5625 2.390625 C 0.5625 2.453125 0.609375 2.5 0.671875 2.5 C 0.765625 2.5 1.671875 1.8125 2.25 0.546875 C 2.765625 -0.546875 2.875 -1.65625 2.875 -2.5 Z M 2.875 -2.5 "
           id="path7950" />
      </symbol>
      <symbol
         overflow="visible"
         id="symbol6928">
        <path
           style="stroke:none;"
           d=""
           id="path7077" />
      </symbol>
      <symbol
         overflow="visible"
         id="symbol3474">
        <path
           style="stroke:none;"
           d="M 3.703125 -2.578125 C 3.734375 -2.671875 3.734375 -2.703125 3.734375 -2.71875 C 3.734375 -2.875 3.609375 -2.9375 3.5 -2.9375 C 3.34375 -2.9375 3.203125 -2.8125 3.171875 -2.671875 C 3.0625 -2.859375 2.828125 -3.078125 2.453125 -3.078125 C 1.59375 -3.078125 0.671875 -2.140625 0.671875 -1.140625 C 0.671875 -0.421875 1.15625 0 1.734375 0 C 2.0625 0 2.359375 -0.15625 2.609375 -0.375 L 2.453125 0.25 C 2.375 0.546875 2.328125 0.734375 2.0625 0.96875 C 1.75 1.21875 1.453125 1.21875 1.28125 1.21875 C 0.96875 1.21875 0.875 1.203125 0.75 1.171875 C 0.921875 1.09375 0.96875 0.921875 0.96875 0.828125 C 0.96875 0.65625 0.84375 0.578125 0.703125 0.578125 C 0.5 0.578125 0.296875 0.734375 0.296875 1 C 0.296875 1.421875 0.90625 1.421875 1.296875 1.421875 C 2.390625 1.421875 2.84375 0.859375 2.953125 0.46875 Z M 2.75 -0.921875 C 2.71875 -0.828125 2.71875 -0.8125 2.59375 -0.671875 C 2.359375 -0.375 2.015625 -0.1875 1.75 -0.1875 C 1.40625 -0.1875 1.234375 -0.5 1.234375 -0.859375 C 1.234375 -1.15625 1.421875 -1.9375 1.609375 -2.25 C 1.890625 -2.734375 2.21875 -2.875 2.453125 -2.875 C 2.953125 -2.875 3.078125 -2.359375 3.078125 -2.28125 C 3.078125 -2.265625 3.078125 -2.265625 3.0625 -2.1875 Z M 2.75 -0.921875 "
           id="path8952" />
      </symbol>
      <symbol
         overflow="visible"
         id="symbol8403">
        <path
           style="stroke:none;"
           d="M 2.84375 -2.75 L 3.515625 -2.75 C 3.65625 -2.75 3.75 -2.75 3.75 -2.90625 C 3.75 -3 3.65625 -3 3.53125 -3 L 2.890625 -3 C 3.046875 -3.890625 3.09375 -4.203125 3.15625 -4.40625 C 3.1875 -4.5625 3.34375 -4.703125 3.515625 -4.703125 C 3.515625 -4.703125 3.703125 -4.703125 3.84375 -4.625 C 3.546875 -4.53125 3.53125 -4.28125 3.53125 -4.25 C 3.53125 -4.09375 3.65625 -3.984375 3.8125 -3.984375 C 4 -3.984375 4.203125 -4.140625 4.203125 -4.40625 C 4.203125 -4.734375 3.875 -4.90625 3.515625 -4.90625 C 3.203125 -4.90625 2.859375 -4.734375 2.671875 -4.390625 C 2.53125 -4.125 2.484375 -3.8125 2.328125 -3 L 1.78125 -3 C 1.640625 -3 1.546875 -3 1.546875 -2.84375 C 1.546875 -2.75 1.640625 -2.75 1.765625 -2.75 L 2.28125 -2.75 C 2.28125 -2.703125 1.84375 -0.203125 1.671875 0.546875 C 1.640625 0.703125 1.515625 1.21875 1.1875 1.21875 C 1.171875 1.21875 1.015625 1.21875 0.875 1.140625 C 1.15625 1.046875 1.1875 0.796875 1.1875 0.765625 C 1.1875 0.609375 1.0625 0.5 0.90625 0.5 C 0.71875 0.5 0.515625 0.65625 0.515625 0.921875 C 0.515625 1.234375 0.84375 1.421875 1.1875 1.421875 C 1.625 1.421875 1.9375 0.96875 2.015625 0.8125 C 2.265625 0.34375 2.4375 -0.515625 2.453125 -0.59375 Z M 2.84375 -2.75 "
           id="path472" />
      </symbol>
      <symbol
         overflow="visible"
         id="symbol979">
        <path
           style="stroke:none;"
           d="M 2.1875 -4.625 C 2.1875 -4.640625 2.203125 -4.734375 2.203125 -4.734375 C 2.203125 -4.78125 2.1875 -4.84375 2.09375 -4.84375 C 1.953125 -4.84375 1.375 -4.78125 1.203125 -4.765625 C 1.15625 -4.765625 1.046875 -4.75 1.046875 -4.609375 C 1.046875 -4.515625 1.15625 -4.515625 1.234375 -4.515625 C 1.5625 -4.515625 1.5625 -4.453125 1.5625 -4.40625 C 1.5625 -4.359375 1.546875 -4.3125 1.546875 -4.25 L 0.5625 -0.3125 C 0.515625 -0.1875 0.515625 -0.171875 0.515625 -0.15625 C 0.515625 -0.046875 0.609375 0.0625 0.765625 0.0625 C 0.84375 0.0625 0.96875 0.03125 1.046875 -0.109375 C 1.0625 -0.15625 1.125 -0.40625 1.15625 -0.546875 L 1.328125 -1.171875 C 1.34375 -1.28125 1.421875 -1.546875 1.4375 -1.640625 C 1.5 -1.90625 1.5 -1.921875 1.640625 -2.140625 C 1.875 -2.484375 2.21875 -2.875 2.765625 -2.875 C 3.15625 -2.875 3.171875 -2.5625 3.171875 -2.390625 C 3.171875 -1.96875 2.875 -1.203125 2.765625 -0.90625 C 2.6875 -0.703125 2.65625 -0.640625 2.65625 -0.53125 C 2.65625 -0.15625 2.96875 0.0625 3.3125 0.0625 C 4.015625 0.0625 4.328125 -0.890625 4.328125 -1 C 4.328125 -1.09375 4.234375 -1.09375 4.203125 -1.09375 C 4.109375 -1.09375 4.109375 -1.046875 4.078125 -0.96875 C 3.921875 -0.40625 3.609375 -0.125 3.34375 -0.125 C 3.1875 -0.125 3.15625 -0.21875 3.15625 -0.375 C 3.15625 -0.53125 3.203125 -0.625 3.328125 -0.9375 C 3.40625 -1.15625 3.6875 -1.890625 3.6875 -2.28125 C 3.6875 -2.390625 3.6875 -2.6875 3.4375 -2.890625 C 3.3125 -2.96875 3.109375 -3.078125 2.78125 -3.078125 C 2.28125 -3.078125 1.90625 -2.796875 1.65625 -2.5 Z M 2.1875 -4.625 "
           id="path1223" />
      </symbol>
      <symbol
         overflow="visible"
         id="symbol1752">
        <path
           style="stroke:none;"
           d=""
           id="path757" />
      </symbol>
      <symbol
         overflow="visible"
         id="symbol6058">
        <path
           style="stroke:none;"
           d="M 2.9375 -0.96875 L 2.71875 -0.96875 C 2.71875 -0.875 2.65625 -0.5625 2.578125 -0.515625 C 2.546875 -0.484375 2.125 -0.484375 2.046875 -0.484375 L 1.078125 -0.484375 C 1.40625 -0.71875 1.765625 -1 2.0625 -1.203125 C 2.515625 -1.515625 2.9375 -1.796875 2.9375 -2.328125 C 2.9375 -2.96875 2.328125 -3.3125 1.625 -3.3125 C 0.953125 -3.3125 0.453125 -2.9375 0.453125 -2.4375 C 0.453125 -2.1875 0.671875 -2.140625 0.75 -2.140625 C 0.875 -2.140625 1.03125 -2.234375 1.03125 -2.4375 C 1.03125 -2.609375 0.90625 -2.71875 0.75 -2.71875 C 0.890625 -2.953125 1.1875 -3.09375 1.515625 -3.09375 C 2 -3.09375 2.40625 -2.8125 2.40625 -2.328125 C 2.40625 -1.90625 2.109375 -1.578125 1.734375 -1.265625 L 0.515625 -0.234375 C 0.46875 -0.1875 0.453125 -0.1875 0.453125 -0.15625 L 0.453125 0 L 2.765625 0 Z M 2.9375 -0.96875 "
           id="path329" />
      </symbol>
      <symbol
         overflow="visible"
         id="symbol3076">
        <path
           style="stroke:none;"
           d="M 1.984375 -3.171875 C 1.984375 -3.3125 1.96875 -3.3125 1.796875 -3.3125 C 1.453125 -3 0.890625 -3 0.796875 -3 L 0.71875 -3 L 0.71875 -2.78125 L 0.796875 -2.78125 C 0.90625 -2.78125 1.234375 -2.796875 1.53125 -2.921875 L 1.53125 -0.421875 C 1.53125 -0.28125 1.53125 -0.21875 1 -0.21875 L 0.75 -0.21875 L 0.75 0 C 1.015625 -0.015625 1.46875 -0.015625 1.75 -0.015625 C 2.046875 -0.015625 2.484375 -0.015625 2.765625 0 L 2.765625 -0.21875 L 2.515625 -0.21875 C 1.984375 -0.21875 1.984375 -0.28125 1.984375 -0.421875 Z M 1.984375 -3.171875 "
           id="path7576" />
      </symbol>
      <symbol
         overflow="visible"
         id="symbol6896">
        <path
           style="stroke:none;"
           d=""
           id="path7861" />
      </symbol>
      <symbol
         overflow="visible"
         id="symbol1505">
        <path
           style="stroke:none;"
           d="M 3.328125 -3.015625 C 3.390625 -3.265625 3.625 -4.1875 4.3125 -4.1875 C 4.359375 -4.1875 4.609375 -4.1875 4.8125 -4.0625 C 4.53125 -4 4.34375 -3.765625 4.34375 -3.515625 C 4.34375 -3.359375 4.453125 -3.171875 4.71875 -3.171875 C 4.9375 -3.171875 5.25 -3.34375 5.25 -3.75 C 5.25 -4.265625 4.671875 -4.40625 4.328125 -4.40625 C 3.75 -4.40625 3.40625 -3.875 3.28125 -3.65625 C 3.03125 -4.3125 2.5 -4.40625 2.203125 -4.40625 C 1.171875 -4.40625 0.59375 -3.125 0.59375 -2.875 C 0.59375 -2.765625 0.703125 -2.765625 0.71875 -2.765625 C 0.796875 -2.765625 0.828125 -2.796875 0.84375 -2.875 C 1.1875 -3.9375 1.84375 -4.1875 2.1875 -4.1875 C 2.375 -4.1875 2.71875 -4.09375 2.71875 -3.515625 C 2.71875 -3.203125 2.546875 -2.546875 2.1875 -1.140625 C 2.03125 -0.53125 1.671875 -0.109375 1.234375 -0.109375 C 1.171875 -0.109375 0.953125 -0.109375 0.734375 -0.234375 C 0.984375 -0.296875 1.203125 -0.5 1.203125 -0.78125 C 1.203125 -1.046875 0.984375 -1.125 0.84375 -1.125 C 0.53125 -1.125 0.296875 -0.875 0.296875 -0.546875 C 0.296875 -0.09375 0.78125 0.109375 1.21875 0.109375 C 1.890625 0.109375 2.25 -0.59375 2.265625 -0.640625 C 2.390625 -0.28125 2.75 0.109375 3.34375 0.109375 C 4.375 0.109375 4.9375 -1.171875 4.9375 -1.421875 C 4.9375 -1.53125 4.859375 -1.53125 4.828125 -1.53125 C 4.734375 -1.53125 4.71875 -1.484375 4.6875 -1.421875 C 4.359375 -0.34375 3.6875 -0.109375 3.375 -0.109375 C 2.984375 -0.109375 2.828125 -0.421875 2.828125 -0.765625 C 2.828125 -0.984375 2.875 -1.203125 2.984375 -1.640625 Z M 3.328125 -3.015625 "
           id="path3193" />
      </symbol>
    </g>
    <marker
       style="overflow:visible"
       id="marker12914-1"
       refX="0"
       refY="0"
       orient="auto"
       inkscape:stockid="Arrow1Mend"
       inkscape:isstock="true">
      <path
         transform="matrix(-0.4,0,0,-0.4,-4,0)"
         style="fill:context-stroke;fill-rule:evenodd;stroke:context-stroke;stroke-width:1pt"
         d="M 0,0 5,-5 -12.5,0 5,5 Z"
         id="path12912-4" />
    </marker>
    <marker
       style="overflow:visible"
       id="Arrow1Mend-2"
       refX="0"
       refY="0"
       orient="auto"
       inkscape:stockid="Arrow1Mend"
       inkscape:isstock="true">
      <path
         transform="matrix(-0.4,0,0,-0.4,-4,0)"
         style="fill:context-stroke;fill-rule:evenodd;stroke:context-stroke;stroke-width:1pt"
         d="M 0,0 5,-5 -12.5,0 5,5 Z"
         id="path868-7" />
    </marker>
    <marker
       style="overflow:visible"
       id="Arrow1Mend-2-5"
       refX="0"
       refY="0"
       orient="auto"
       inkscape:stockid="Arrow1Mend"
       inkscape:isstock="true">
      <path
         transform="matrix(-0.4,0,0,-0.4,-4,0)"
         style="fill:context-stroke;fill-rule:evenodd;stroke:context-stroke;stroke-width:1pt"
         d="M 0,0 5,-5 -12.5,0 5,5 Z"
         id="path868-7-1" />
    </marker>
    <marker
       style="overflow:visible"
       id="Arrow1Mend-1"
       refX="0"
       refY="0"
       orient="auto"
       inkscape:stockid="Arrow1Mend"
       inkscape:isstock="true">
      <path
         transform="matrix(-0.4,0,0,-0.4,-4,0)"
         style="fill:context-stroke;fill-rule:evenodd;stroke:context-stroke;stroke-width:1pt"
         d="M 0,0 5,-5 -12.5,0 5,5 Z"
         id="path868-78" />
    </marker>
    <marker
       style="overflow:visible"
       id="Arrow1Mend-1-8"
       refX="0"
       refY="0"
       orient="auto"
       inkscape:stockid="Arrow1Mend"
       inkscape:isstock="true">
      <path
         transform="matrix(-0.4,0,0,-0.4,-4,0)"
         style="fill:context-stroke;fill-rule:evenodd;stroke:context-stroke;stroke-width:1pt"
         d="M 0,0 5,-5 -12.5,0 5,5 Z"
         id="path868-78-9" />
    </marker>
    <marker
       style="overflow:visible"
       id="Arrow1Mend-1-8-4"
       refX="0"
       refY="0"
       orient="auto"
       inkscape:stockid="Arrow1Mend"
       inkscape:isstock="true">
      <path
         transform="matrix(-0.4,0,0,-0.4,-4,0)"
         style="fill:context-stroke;fill-rule:evenodd;stroke:context-stroke;stroke-width:1pt"
         d="M 0,0 5,-5 -12.5,0 5,5 Z"
         id="path868-78-9-9" />
    </marker>
    <marker
       style="overflow:visible"
       id="Arrow1Mend-1-8-4-8"
       refX="0"
       refY="0"
       orient="auto"
       inkscape:stockid="Arrow1Mend"
       inkscape:isstock="true">
      <path
         transform="matrix(-0.4,0,0,-0.4,-4,0)"
         style="fill:context-stroke;fill-rule:evenodd;stroke:context-stroke;stroke-width:1pt"
         d="M 0,0 5,-5 -12.5,0 5,5 Z"
         id="path868-78-9-9-6" />
    </marker>
    <marker
       style="overflow:visible"
       id="Arrow1Mend-1-8-4-8-4"
       refX="0"
       refY="0"
       orient="auto"
       inkscape:stockid="Arrow1Mend"
       inkscape:isstock="true">
      <path
         transform="matrix(-0.4,0,0,-0.4,-4,0)"
         style="fill:context-stroke;fill-rule:evenodd;stroke:context-stroke;stroke-width:1pt"
         d="M 0,0 5,-5 -12.5,0 5,5 Z"
         id="path868-78-9-9-6-5" />
    </marker>
    <marker
       style="overflow:visible"
       id="Arrow1Mend-1-8-4-8-4-8"
       refX="0"
       refY="0"
       orient="auto"
       inkscape:stockid="Arrow1Mend"
       inkscape:isstock="true">
      <path
         transform="matrix(-0.4,0,0,-0.4,-4,0)"
         style="fill:context-stroke;fill-rule:evenodd;stroke:context-stroke;stroke-width:1pt"
         d="M 0,0 5,-5 -12.5,0 5,5 Z"
         id="path868-78-9-9-6-5-4" />
    </marker>
    <marker
       style="overflow:visible"
       id="Arrow1Mend-55"
       refX="0"
       refY="0"
       orient="auto"
       inkscape:stockid="Arrow1Mend"
       inkscape:isstock="true">
      <path
         transform="matrix(-0.4,0,0,-0.4,-4,0)"
         style="fill:context-stroke;fill-rule:evenodd;stroke:context-stroke;stroke-width:1pt"
         d="M 0,0 5,-5 -12.5,0 5,5 Z"
         id="path868-0" />
    </marker>
    <marker
       style="overflow:visible"
       id="Arrow1Mend-55-9"
       refX="0"
       refY="0"
       orient="auto"
       inkscape:stockid="Arrow1Mend"
       inkscape:isstock="true">
      <path
         transform="matrix(-0.4,0,0,-0.4,-4,0)"
         style="fill:context-stroke;fill-rule:evenodd;stroke:context-stroke;stroke-width:1pt"
         d="M 0,0 5,-5 -12.5,0 5,5 Z"
         id="path868-0-8" />
    </marker>
    <marker
       style="overflow:visible"
       id="Arrow1Mend-55-9-3"
       refX="0"
       refY="0"
       orient="auto"
       inkscape:stockid="Arrow1Mend"
       inkscape:isstock="true">
      <path
         transform="matrix(-0.4,0,0,-0.4,-4,0)"
         style="fill:context-stroke;fill-rule:evenodd;stroke:context-stroke;stroke-width:1pt"
         d="M 0,0 5,-5 -12.5,0 5,5 Z"
         id="path868-0-8-1" />
    </marker>
    <marker
       style="overflow:visible"
       id="Arrow1Mend-55-9-3-6"
       refX="0"
       refY="0"
       orient="auto"
       inkscape:stockid="Arrow1Mend"
       inkscape:isstock="true">
      <path
         transform="matrix(-0.4,0,0,-0.4,-4,0)"
         style="fill:context-stroke;fill-rule:evenodd;stroke:context-stroke;stroke-width:1pt"
         d="M 0,0 5,-5 -12.5,0 5,5 Z"
         id="path868-0-8-1-9" />
    </marker>
    <marker
       style="overflow:visible"
       id="Arrow1Mend-1-3"
       refX="0"
       refY="0"
       orient="auto"
       inkscape:stockid="Arrow1Mend"
       inkscape:isstock="true">
      <path
         transform="matrix(-0.4,0,0,-0.4,-4,0)"
         style="fill:context-stroke;fill-rule:evenodd;stroke:context-stroke;stroke-width:1pt"
         d="M 0,0 5,-5 -12.5,0 5,5 Z"
         id="path868-78-92" />
    </marker>
    <marker
       style="overflow:visible"
       id="Arrow1Mend-1-3-9"
       refX="0"
       refY="0"
       orient="auto"
       inkscape:stockid="Arrow1Mend"
       inkscape:isstock="true">
      <path
         transform="matrix(-0.4,0,0,-0.4,-4,0)"
         style="fill:context-stroke;fill-rule:evenodd;stroke:context-stroke;stroke-width:1pt"
         d="M 0,0 5,-5 -12.5,0 5,5 Z"
         id="path868-78-92-0" />
    </marker>
    <marker
       style="overflow:visible"
       id="Arrow1Mend-1-3-9-9"
       refX="0"
       refY="0"
       orient="auto"
       inkscape:stockid="Arrow1Mend"
       inkscape:isstock="true">
      <path
         transform="matrix(-0.4,0,0,-0.4,-4,0)"
         style="fill:context-stroke;fill-rule:evenodd;stroke:context-stroke;stroke-width:1pt"
         d="M 0,0 5,-5 -12.5,0 5,5 Z"
         id="path868-78-92-0-8" />
    </marker>
    <marker
       style="overflow:visible"
       id="Arrow1Mend-1-3-9-9-4"
       refX="0"
       refY="0"
       orient="auto"
       inkscape:stockid="Arrow1Mend"
       inkscape:isstock="true">
      <path
         transform="matrix(-0.4,0,0,-0.4,-4,0)"
         style="fill:context-stroke;fill-rule:evenodd;stroke:context-stroke;stroke-width:1pt"
         d="M 0,0 5,-5 -12.5,0 5,5 Z"
         id="path868-78-92-0-8-5" />
    </marker>
    <marker
       style="overflow:visible"
       id="Arrow1Mend-6"
       refX="0"
       refY="0"
       orient="auto"
       inkscape:stockid="Arrow1Mend"
       inkscape:isstock="true">
      <path
         transform="matrix(-0.4,0,0,-0.4,-4,0)"
         style="fill:context-stroke;fill-rule:evenodd;stroke:context-stroke;stroke-width:1pt"
         d="M 0,0 5,-5 -12.5,0 5,5 Z"
         id="path868-3" />
    </marker>
    <marker
       style="overflow:visible"
       id="Arrow1Mend-6-1"
       refX="0"
       refY="0"
       orient="auto"
       inkscape:stockid="Arrow1Mend"
       inkscape:isstock="true">
      <path
         transform="matrix(-0.4,0,0,-0.4,-4,0)"
         style="fill:context-stroke;fill-rule:evenodd;stroke:context-stroke;stroke-width:1pt"
         d="M 0,0 5,-5 -12.5,0 5,5 Z"
         id="path868-3-7" />
    </marker>
    <marker
       style="overflow:visible"
       id="Arrow1Mend-6-1-3"
       refX="0"
       refY="0"
       orient="auto"
       inkscape:stockid="Arrow1Mend"
       inkscape:isstock="true">
      <path
         transform="matrix(-0.4,0,0,-0.4,-4,0)"
         style="fill:context-stroke;fill-rule:evenodd;stroke:context-stroke;stroke-width:1pt"
         d="M 0,0 5,-5 -12.5,0 5,5 Z"
         id="path868-3-7-0" />
    </marker>
    <marker
       style="overflow:visible"
       id="Arrow1Mend-6-1-3-8"
       refX="0"
       refY="0"
       orient="auto"
       inkscape:stockid="Arrow1Mend"
       inkscape:isstock="true">
      <path
         transform="matrix(-0.4,0,0,-0.4,-4,0)"
         style="fill:context-stroke;fill-rule:evenodd;stroke:context-stroke;stroke-width:1pt"
         d="M 0,0 5,-5 -12.5,0 5,5 Z"
         id="path868-3-7-0-0" />
    </marker>
    <marker
       style="overflow:visible"
       id="Arrow1Mend-6-1-3-8-4"
       refX="0"
       refY="0"
       orient="auto"
       inkscape:stockid="Arrow1Mend"
       inkscape:isstock="true">
      <path
         transform="matrix(-0.4,0,0,-0.4,-4,0)"
         style="fill:context-stroke;fill-rule:evenodd;stroke:context-stroke;stroke-width:1pt"
         d="M 0,0 5,-5 -12.5,0 5,5 Z"
         id="path868-3-7-0-0-5" />
    </marker>
    <marker
       style="overflow:visible"
       id="Arrow1Mend-6-1-3-8-4-8"
       refX="0"
       refY="0"
       orient="auto"
       inkscape:stockid="Arrow1Mend"
       inkscape:isstock="true">
      <path
         transform="matrix(-0.4,0,0,-0.4,-4,0)"
         style="fill:context-stroke;fill-rule:evenodd;stroke:context-stroke;stroke-width:1pt"
         d="M 0,0 5,-5 -12.5,0 5,5 Z"
         id="path868-3-7-0-0-5-1" />
    </marker>
    <marker
       style="overflow:visible"
       id="Arrow1Mend-6-1-3-8-4-8-2"
       refX="0"
       refY="0"
       orient="auto"
       inkscape:stockid="Arrow1Mend"
       inkscape:isstock="true">
      <path
         transform="matrix(-0.4,0,0,-0.4,-4,0)"
         style="fill:context-stroke;fill-rule:evenodd;stroke:context-stroke;stroke-width:1pt"
         d="M 0,0 5,-5 -12.5,0 5,5 Z"
         id="path868-3-7-0-0-5-1-0" />
    </marker>
    <marker
       style="overflow:visible"
       id="Arrow1Mend-6-1-3-8-4-8-2-5"
       refX="0"
       refY="0"
       orient="auto"
       inkscape:stockid="Arrow1Mend"
       inkscape:isstock="true">
      <path
         transform="matrix(-0.4,0,0,-0.4,-4,0)"
         style="fill:context-stroke;fill-rule:evenodd;stroke:context-stroke;stroke-width:1pt"
         d="M 0,0 5,-5 -12.5,0 5,5 Z"
         id="path868-3-7-0-0-5-1-0-9" />
    </marker>
    <marker
       style="overflow:visible"
       id="Arrow1Mend-6-1-3-8-4-8-2-52"
       refX="0"
       refY="0"
       orient="auto"
       inkscape:stockid="Arrow1Mend"
       inkscape:isstock="true">
      <path
         transform="matrix(-0.4,0,0,-0.4,-4,0)"
         style="fill:context-stroke;fill-rule:evenodd;stroke:context-stroke;stroke-width:1pt"
         d="M 0,0 5,-5 -12.5,0 5,5 Z"
         id="path868-3-7-0-0-5-1-0-2" />
    </marker>
    <marker
       style="overflow:visible"
       id="Arrow1Mend-6-1-3-8-4-8-2-52-2"
       refX="0"
       refY="0"
       orient="auto"
       inkscape:stockid="Arrow1Mend"
       inkscape:isstock="true">
      <path
         transform="matrix(-0.4,0,0,-0.4,-4,0)"
         style="fill:context-stroke;fill-rule:evenodd;stroke:context-stroke;stroke-width:1pt"
         d="M 0,0 5,-5 -12.5,0 5,5 Z"
         id="path868-3-7-0-0-5-1-0-2-0" />
    </marker>
    <marker
       style="overflow:visible"
       id="Arrow1Mend-6-1-3-8-4-8-2-52-2-3"
       refX="0"
       refY="0"
       orient="auto"
       inkscape:stockid="Arrow1Mend"
       inkscape:isstock="true">
      <path
         transform="matrix(-0.4,0,0,-0.4,-4,0)"
         style="fill:context-stroke;fill-rule:evenodd;stroke:context-stroke;stroke-width:1pt"
         d="M 0,0 5,-5 -12.5,0 5,5 Z"
         id="path868-3-7-0-0-5-1-0-2-0-4" />
    </marker>
    <marker
       style="overflow:visible"
       id="Arrow1Mend-6-1-3-8-4-8-2-52-2-3-6"
       refX="0"
       refY="0"
       orient="auto"
       inkscape:stockid="Arrow1Mend"
       inkscape:isstock="true">
      <path
         transform="matrix(-0.4,0,0,-0.4,-4,0)"
         style="fill:context-stroke;fill-rule:evenodd;stroke:context-stroke;stroke-width:1pt"
         d="M 0,0 5,-5 -12.5,0 5,5 Z"
         id="path868-3-7-0-0-5-1-0-2-0-4-1" />
    </marker>
    <marker
       style="overflow:visible"
       id="Arrow1Mend-6-1-3-8-4-8-2-52-2-3-6-3"
       refX="0"
       refY="0"
       orient="auto"
       inkscape:stockid="Arrow1Mend"
       inkscape:isstock="true">
      <path
         transform="matrix(-0.4,0,0,-0.4,-4,0)"
         style="fill:context-stroke;fill-rule:evenodd;stroke:context-stroke;stroke-width:1pt"
         d="M 0,0 5,-5 -12.5,0 5,5 Z"
         id="path868-3-7-0-0-5-1-0-2-0-4-1-5" />
    </marker>
    <marker
       style="overflow:visible"
       id="Arrow1Mend-6-1-3-8-4-8-2-52-2-3-6-3-8"
       refX="0"
       refY="0"
       orient="auto"
       inkscape:stockid="Arrow1Mend"
       inkscape:isstock="true">
      <path
         transform="matrix(-0.4,0,0,-0.4,-4,0)"
         style="fill:context-stroke;fill-rule:evenodd;stroke:context-stroke;stroke-width:1pt"
         d="M 0,0 5,-5 -12.5,0 5,5 Z"
         id="path868-3-7-0-0-5-1-0-2-0-4-1-5-1" />
    </marker>
    <marker
       style="overflow:visible"
       id="Arrow1Mend-6-1-3-8-4-8-2-52-2-3-6-3-8-9"
       refX="0"
       refY="0"
       orient="auto"
       inkscape:stockid="Arrow1Mend"
       inkscape:isstock="true">
      <path
         transform="matrix(-0.4,0,0,-0.4,-4,0)"
         style="fill:context-stroke;fill-rule:evenodd;stroke:context-stroke;stroke-width:1pt"
         d="M 0,0 5,-5 -12.5,0 5,5 Z"
         id="path868-3-7-0-0-5-1-0-2-0-4-1-5-1-8" />
    </marker>
    <marker
       style="overflow:visible"
       id="Arrow1Mend-6-1-3-8-4-8-2-52-2-3-6-3-8-9-4"
       refX="0"
       refY="0"
       orient="auto"
       inkscape:stockid="Arrow1Mend"
       inkscape:isstock="true">
      <path
         transform="matrix(-0.4,0,0,-0.4,-4,0)"
         style="fill:context-stroke;fill-rule:evenodd;stroke:context-stroke;stroke-width:1pt"
         d="M 0,0 5,-5 -12.5,0 5,5 Z"
         id="path868-3-7-0-0-5-1-0-2-0-4-1-5-1-8-2" />
    </marker>
  </defs>
  <g
     inkscape:label="Layer 1"
     inkscape:groupmode="layer"
     id="layer1">
    <path
       style="fill:none;stroke:#000000;stroke-width:0.65075;stroke-linecap:butt;stroke-linejoin:miter;stroke-miterlimit:4;stroke-dasharray:none;stroke-opacity:1;marker-end:url(#Arrow1Mend)"
       d="M 7.0996018,185.5909 H 259.52435"
       id="path857" />
    <path
       style="fill:none;stroke:#000000;stroke-width:0.65075;stroke-linecap:butt;stroke-linejoin:miter;stroke-miterlimit:4;stroke-dasharray:none;stroke-opacity:1;marker-end:url(#Arrow1Mend-5)"
       d="M 13.661097,192.53837 13.275141,13.062073"
       id="path857-4"
       sodipodi:nodetypes="cc" />
    <path
       style="fill:none;stroke:#000000;stroke-width:1.28681;stroke-linecap:butt;stroke-linejoin:miter;stroke-miterlimit:4;stroke-dasharray:none;stroke-opacity:1"
       d="m 18.09563,176.0578 c 46.846364,-64.43638 176.73764,-90.351404 176.73764,-90.351404 0,0 16.14196,40.624324 59.96209,38.293914"
       id="path6223"
       sodipodi:nodetypes="ccc" />
    <path
       style="fill:#729fcf;stroke:#729fcf;stroke-width:0.704;stroke-linecap:butt;stroke-linejoin:miter;stroke-miterlimit:4;stroke-dasharray:none;stroke-opacity:1;marker-end:url(#Arrow1Mend-6)"
       d="M 18.09563,176.0578 39.786463,148.98444"
       id="path15900-8"
       sodipodi:nodetypes="cc" />
    <path
       style="fill:#729fcf;stroke:#729fcf;stroke-width:0.704;stroke-linecap:butt;stroke-linejoin:miter;stroke-miterlimit:4;stroke-dasharray:none;stroke-opacity:1;marker-end:url(#Arrow1Mend-6-1)"
       d="M 39.786463,148.98444 61.477296,129.67762"
       id="path15900-8-9"
       sodipodi:nodetypes="cc" />
    <path
       style="fill:#729fcf;stroke:#729fcf;stroke-width:0.704;stroke-linecap:butt;stroke-linejoin:miter;stroke-miterlimit:4;stroke-dasharray:none;stroke-opacity:1;marker-end:url(#Arrow1Mend-6-1-3)"
       d="M 61.477296,129.67762 81.781247,114.53145"
       id="path15900-8-9-4"
       sodipodi:nodetypes="cc" />
    <path
       style="fill:#729fcf;stroke:#729fcf;stroke-width:0.704;stroke-linecap:butt;stroke-linejoin:miter;stroke-miterlimit:4;stroke-dasharray:none;stroke-opacity:1;marker-end:url(#Arrow1Mend-6-1-3-8)"
       d="M 81.781247,114.53145 104.02683,102.7138"
       id="path15900-8-9-4-2"
       sodipodi:nodetypes="cc" />
    <path
       style="fill:#729fcf;stroke:#729fcf;stroke-width:0.704;stroke-linecap:butt;stroke-linejoin:miter;stroke-miterlimit:4;stroke-dasharray:none;stroke-opacity:1;marker-end:url(#Arrow1Mend-6-1-3-8-4)"
       d="m 104.02683,102.7138 24.4646,-10.430768"
       id="path15900-8-9-4-2-7"
       sodipodi:nodetypes="cc" />
    <path
       style="fill:#729fcf;stroke:#729fcf;stroke-width:0.704;stroke-linecap:butt;stroke-linejoin:miter;stroke-miterlimit:4;stroke-dasharray:none;stroke-opacity:1;marker-end:url(#Arrow1Mend-6-1-3-8-4-8)"
       d="m 128.49143,92.283032 25.85148,-9.043851"
       id="path15900-8-9-4-2-7-4"
       sodipodi:nodetypes="cc" />
    <path
       style="fill:#729fcf;stroke:#729fcf;stroke-width:0.704;stroke-linecap:butt;stroke-linejoin:miter;stroke-miterlimit:4;stroke-dasharray:none;stroke-opacity:1;marker-end:url(#Arrow1Mend-6-1-3-8-4-8-2)"
       d="m 154.34291,83.239181 25.85148,-5.715334"
       id="path15900-8-9-4-2-7-4-8"
       sodipodi:nodetypes="cc" />
    <path
       style="fill:#729fcf;stroke:#729fcf;stroke-width:0.704;stroke-linecap:butt;stroke-linejoin:miter;stroke-miterlimit:4;stroke-dasharray:none;stroke-opacity:1;marker-end:url(#Arrow1Mend-6-1-3-8-4-8-2-52)"
       d="m 191.89967,75.691782 9.76365,10.649872"
       id="path15900-8-9-4-2-7-4-8-5"
       sodipodi:nodetypes="cc" />
    <path
       style="fill:#729fcf;stroke:#729fcf;stroke-width:0.704;stroke-linecap:butt;stroke-linejoin:miter;stroke-miterlimit:4;stroke-dasharray:none;stroke-opacity:1;marker-end:url(#Arrow1Mend-6-1-3-8-4-8-2-52-2)"
       d="m 200.86979,85.262134 -6.1855,12.314129"
       id="path15900-8-9-4-2-7-4-8-5-3"
       sodipodi:nodetypes="cc" />
    <path
       style="fill:#729fcf;stroke:#729fcf;stroke-width:0.704;stroke-linecap:butt;stroke-linejoin:miter;stroke-miterlimit:4;stroke-dasharray:none;stroke-opacity:1;marker-end:url(#Arrow1Mend-6-1-3-8-4-8-2-52-2-3)"
       d="m 194.68429,97.576263 2.34383,10.164467"
       id="path15900-8-9-4-2-7-4-8-5-3-0"
       sodipodi:nodetypes="cc" />
    <path
       style="fill:#729fcf;stroke:#729fcf;stroke-width:0.704;stroke-linecap:butt;stroke-linejoin:miter;stroke-miterlimit:4;stroke-dasharray:none;stroke-opacity:1;marker-end:url(#Arrow1Mend-6-1-3-8-4-8-2-52-2-3-6)"
       d="m 197.02812,107.74073 4.70153,11.62069"
       id="path15900-8-9-4-2-7-4-8-5-3-0-8"
       sodipodi:nodetypes="cc" />
    <path
       style="fill:#729fcf;stroke:#729fcf;stroke-width:0.704;stroke-linecap:butt;stroke-linejoin:miter;stroke-miterlimit:4;stroke-dasharray:none;stroke-opacity:1;marker-end:url(#Arrow1Mend-6-1-3-8-4-8-2-52-2-3-6-3)"
       d="m 201.72965,119.36142 8.51546,8.43086"
       id="path15900-8-9-4-2-7-4-8-5-3-0-8-8"
       sodipodi:nodetypes="cc" />
    <path
       style="fill:#729fcf;stroke:#729fcf;stroke-width:0.704;stroke-linecap:butt;stroke-linejoin:miter;stroke-miterlimit:4;stroke-dasharray:none;stroke-opacity:1;marker-end:url(#Arrow1Mend-6-1-3-8-4-8-2-52-2-3-6-3-8)"
       d="m 210.24511,127.79228 11.65351,7.66978"
       id="path15900-8-9-4-2-7-4-8-5-3-0-8-8-2"
       sodipodi:nodetypes="cc" />
    <path
       style="fill:#729fcf;stroke:#729fcf;stroke-width:0.704;stroke-linecap:butt;stroke-linejoin:miter;stroke-miterlimit:4;stroke-dasharray:none;stroke-opacity:1;marker-end:url(#Arrow1Mend-6-1-3-8-4-8-2-52-2-3-6-3-8-9)"
       d="m 221.89862,135.46206 12.62433,4.47995"
       id="path15900-8-9-4-2-7-4-8-5-3-0-8-8-2-0"
       sodipodi:nodetypes="cc" />
    <path
       style="fill:#729fcf;stroke:#729fcf;stroke-width:0.704;stroke-linecap:butt;stroke-linejoin:miter;stroke-miterlimit:4;stroke-dasharray:none;stroke-opacity:1;marker-end:url(#Arrow1Mend-6-1-3-8-4-8-2-52-2-3-6-3-8-9-4)"
       d="m 234.52295,139.94201 15.39809,0.87406"
       id="path15900-8-9-4-2-7-4-8-5-3-0-8-8-2-0-7"
       sodipodi:nodetypes="cc" />
    <path
       style="fill:#729fcf;stroke:#729fcf;stroke-width:0.704;stroke-linecap:butt;stroke-linejoin:miter;stroke-miterlimit:4;stroke-dasharray:none;stroke-opacity:1;marker-end:url(#Arrow1Mend-6-1-3-8-4-8-2-5)"
       d="m 180.19439,77.523847 11.70528,-1.832065"
       id="path15900-8-9-4-2-7-4-8-1"
       sodipodi:nodetypes="cc" />
    <g
       id="g39319"
       style="opacity:0.58739837">
      <path
         style="fill:#729fcf;stroke:#729fcf;stroke-width:1.00399;stroke-linecap:butt;stroke-linejoin:miter;stroke-miterlimit:4;stroke-dasharray:none;stroke-opacity:1;marker-end:url(#Arrow1Mend)"
         d="M 18.09563,176.0578 46.998249,132.34186"
         id="path15900"
         sodipodi:nodetypes="cc" />
      <path
         style="fill:#729fcf;stroke:#729fcf;stroke-width:1.00399;stroke-linecap:butt;stroke-linejoin:miter;stroke-miterlimit:4;stroke-dasharray:none;stroke-opacity:1;marker-end:url(#Arrow1Mend-1)"
         d="M 46.998249,132.34186 81.078057,100.0897"
         id="path15900-5"
         sodipodi:nodetypes="cc" />
      <path
         style="fill:#729fcf;stroke:#729fcf;stroke-width:1.00399;stroke-linecap:butt;stroke-linejoin:miter;stroke-miterlimit:4;stroke-dasharray:none;stroke-opacity:1;marker-end:url(#Arrow1Mend-1-3)"
         d="M 81.078057,100.0897 119.87326,72.275566"
         id="path15900-5-6"
         sodipodi:nodetypes="cc" />
      <path
         style="fill:#729fcf;stroke:#729fcf;stroke-width:1.00399;stroke-linecap:butt;stroke-linejoin:miter;stroke-miterlimit:4;stroke-dasharray:none;stroke-opacity:1;marker-end:url(#Arrow1Mend-1-3-9)"
         d="M 119.87326,72.275566 163.10649,55.001739"
         id="path15900-5-6-4"
         sodipodi:nodetypes="cc" />
      <path
         style="fill:#729fcf;stroke:#729fcf;stroke-width:1.00399;stroke-linecap:butt;stroke-linejoin:miter;stroke-miterlimit:4;stroke-dasharray:none;stroke-opacity:1;marker-end:url(#Arrow1Mend-1-3-9-9)"
         d="m 163.10649,55.001739 45.45224,-6.456148"
         id="path15900-5-6-4-4"
         sodipodi:nodetypes="cc" />
      <path
         style="fill:#729fcf;stroke:#729fcf;stroke-width:1.00399;stroke-linecap:butt;stroke-linejoin:miter;stroke-miterlimit:4;stroke-dasharray:none;stroke-opacity:1;marker-end:url(#Arrow1Mend-1-3-9-9-4)"
         d="M 208.55873,48.545591 232.65299,15.738687"
         id="path15900-5-6-4-4-1"
         sodipodi:nodetypes="cc" />
    </g>
    <path
       style="fill:none;stroke:#204a87;stroke-width:1.00399;stroke-linecap:butt;stroke-linejoin:miter;stroke-miterlimit:4;stroke-dasharray:2.00799, 1.00399;stroke-dashoffset:0;stroke-opacity:1"
       d="m 18.09563,176.0578 c 76.609855,-84.412425 175.4683,-98.528399 175.4683,-98.528399 0,0 -3.7299,64.963739 59.04581,61.080469"
       id="path20739"
       sodipodi:nodetypes="ccc" />
    <text
       xml:space="preserve"
       style="font-style:normal;font-variant:normal;font-weight:normal;font-stretch:normal;font-size:9.97706px;line-height:1.25;font-family:'Times New Roman';-inkscape-font-specification:'Times New Roman, ';fill:#000000;fill-opacity:1;stroke:none;stroke-width:0.249427"
       x="234.11978"
       y="103.10915"
       id="text24196"><tspan
         sodipodi:role="line"
         id="tspan24194"
         style="font-style:normal;font-variant:normal;font-weight:normal;font-stretch:normal;font-family:'Times New Roman';-inkscape-font-specification:'Times New Roman, ';stroke-width:0.249427"
         x="234.11978"
         y="103.10915">excat sol</tspan></text>
    <text
       xml:space="preserve"
       style="font-style:normal;font-variant:normal;font-weight:normal;font-stretch:normal;font-size:9.97706px;line-height:1.25;font-family:'Times New Roman';-inkscape-font-specification:'Times New Roman, ';fill:#a40000;fill-opacity:1;stroke:none;stroke-width:0.249427"
       x="267.91476"
       y="116.20712"
       id="text24196-1"><tspan
         sodipodi:role="line"
         id="tspan24194-8"
         style="font-style:normal;font-variant:normal;font-weight:normal;font-stretch:normal;font-family:'Times New Roman';-inkscape-font-specification:'Times New Roman, ';fill:#a40000;stroke-width:0.249427"
         x="267.91476"
         y="116.20712" /><tspan
         sodipodi:role="line"
         style="font-style:normal;font-variant:normal;font-weight:normal;font-stretch:normal;font-family:'Times New Roman';-inkscape-font-specification:'Times New Roman, ';fill:#a40000;stroke-width:0.249427"
         x="267.91476"
         y="128.67844"
         id="tspan31376">bound</tspan><tspan
         sodipodi:role="line"
         style="font-style:normal;font-variant:normal;font-weight:normal;font-stretch:normal;font-family:'Times New Roman';-inkscape-font-specification:'Times New Roman, ';fill:#a40000;stroke-width:0.249427"
         x="267.91476"
         y="141.14977"
         id="tspan33526">error</tspan></text>
    <text
       xml:space="preserve"
       style="font-style:normal;font-variant:normal;font-weight:normal;font-stretch:normal;font-size:9.97706px;line-height:1.25;font-family:'Times New Roman';-inkscape-font-specification:'Times New Roman, ';fill:#204a87;fill-opacity:1;stroke:none;stroke-width:0.249427"
       x="231.13223"
       y="167.02205"
       id="text24196-5"><tspan
         sodipodi:role="line"
         id="tspan24194-0"
         style="font-style:normal;font-variant:normal;font-weight:normal;font-stretch:normal;font-family:'Times New Roman';-inkscape-font-specification:'Times New Roman, ';fill:#204a87;stroke-width:0.249427"
         x="231.13223"
         y="167.02205">limit of PBD </tspan></text>
    <text
       xml:space="preserve"
       style="font-style:normal;font-variant:normal;font-weight:normal;font-stretch:normal;font-size:9.97706px;line-height:1.25;font-family:'Times New Roman';-inkscape-font-specification:'Times New Roman, ';fill:#204a87;fill-opacity:1;stroke:none;stroke-width:0.249427"
       x="39.256733"
       y="97.703484"
       id="text24196-5-5"><tspan
         sodipodi:role="line"
         id="tspan24194-0-6"
         style="font-style:normal;font-variant:normal;font-weight:normal;font-stretch:normal;font-family:'Times New Roman';-inkscape-font-specification:'Times New Roman, ';fill:#729fcf;stroke-width:0.249427"
         x="39.256733"
         y="97.703484">num sol</tspan></text>
    <text
       xml:space="preserve"
       style="font-style:normal;font-variant:normal;font-weight:normal;font-stretch:normal;font-size:9.97706px;line-height:1.25;font-family:'Times New Roman';-inkscape-font-specification:'Times New Roman, ';fill:#204a87;fill-opacity:1;stroke:none;stroke-width:0.249427"
       x="2.9645355"
       y="26.931673"
       id="text24196-5-5-6"><tspan
         sodipodi:role="line"
         id="tspan24194-0-6-7"
         style="font-style:normal;font-variant:normal;font-weight:normal;font-stretch:normal;font-family:'Times New Roman';-inkscape-font-specification:'Times New Roman, ';fill:#000000;stroke-width:0.249427"
         x="2.9645355"
         y="26.931673">X</tspan></text>
    <text
       xml:space="preserve"
       style="font-style:normal;font-variant:normal;font-weight:normal;font-stretch:normal;font-size:9.97706px;line-height:1.25;font-family:'Times New Roman';-inkscape-font-specification:'Times New Roman, ';fill:#204a87;fill-opacity:1;stroke:none;stroke-width:0.249427"
       x="233.13513"
       y="199.84709"
       id="text24196-5-5-6-5"><tspan
         sodipodi:role="line"
         id="tspan24194-0-6-7-4"
         style="font-style:normal;font-variant:normal;font-weight:normal;font-stretch:normal;font-family:'Times New Roman';-inkscape-font-specification:'Times New Roman, ';fill:#000000;stroke-width:0.249427"
         x="233.13513"
         y="199.84709">t</tspan></text>
    <path
       style="fill:none;stroke:#cc0000;stroke-width:0.565;stroke-linecap:butt;stroke-linejoin:miter;stroke-opacity:1;stroke-miterlimit:4;stroke-dasharray:none"
       d="m 256.64228,120.42672 c 6.57051,0.0981 3.72656,6.96278 5.78597,8.43379 2.05942,1.47101 3.23622,1.07874 3.23622,1.07874 0,0 -2.05941,-0.19613 -3.43235,1.17681 -1.37295,1.37294 1.56908,9.21833 -5.88404,9.21833"
       id="path27480" />
  </g>
</svg>
