<?xml version="1.0" encoding="UTF-8" standalone="no"?>
<!-- Created with Inkscape (http://www.inkscape.org/) -->

<svg
   width="297mm"
   height="210mm"
   viewBox="0 0 297 210"
   version="1.1"
   id="svg5"
   sodipodi:docname="ste[s.svg"
   inkscape:version="1.1 (c68e22c387, 2021-05-23)"
   inkscape:export-filename="D:\ucloud\documents\2021\pde_afternoon_pbd\steps.png"
   inkscape:export-xdpi="130.05"
   inkscape:export-ydpi="130.05"
   xmlns:inkscape="http://www.inkscape.org/namespaces/inkscape"
   xmlns:sodipodi="http://sodipodi.sourceforge.net/DTD/sodipodi-0.dtd"
   xmlns:xlink="http://www.w3.org/1999/xlink"
   xmlns="http://www.w3.org/2000/svg"
   xmlns:svg="http://www.w3.org/2000/svg">
  <sodipodi:namedview
     id="namedview7"
     pagecolor="#ffffff"
     bordercolor="#666666"
     borderopacity="1.0"
     inkscape:pageshadow="2"
     inkscape:pageopacity="0.0"
     inkscape:pagecheckerboard="0"
     inkscape:document-units="mm"
     showgrid="false"
     inkscape:zoom="0.67449387"
     inkscape:cx="349.15069"
     inkscape:cy="288.36437"
     inkscape:window-width="1920"
     inkscape:window-height="1027"
     inkscape:window-x="-8"
     inkscape:window-y="-8"
     inkscape:window-maximized="1"
     inkscape:current-layer="layer1" />
  <defs
     id="defs2">
    <marker
       style="overflow:visible;"
       id="Arrow1Send"
       refX="0.0"
       refY="0.0"
       orient="auto"
       inkscape:stockid="Arrow1Send"
       inkscape:isstock="true">
      <path
         transform="scale(0.2) rotate(180) translate(6,0)"
         style="fill-rule:evenodd;fill:context-stroke;stroke:context-stroke;stroke-width:1.0pt;"
         d="M 0.0,0.0 L 5.0,-5.0 L -12.5,0.0 L 5.0,5.0 L 0.0,0.0 z "
         id="path874" />
    </marker>
    <marker
       style="overflow:visible;"
       id="marker16018"
       refX="0.0"
       refY="0.0"
       orient="auto"
       inkscape:stockid="Arrow1Lend"
       inkscape:isstock="true">
      <path
         transform="scale(0.8) rotate(180) translate(12.5,0)"
         style="fill-rule:evenodd;fill:context-stroke;stroke:context-stroke;stroke-width:1.0pt;"
         d="M 0.0,0.0 L 5.0,-5.0 L -12.5,0.0 L 5.0,5.0 L 0.0,0.0 z "
         id="path16016" />
    </marker>
    <marker
       style="overflow:visible;"
       id="marker12914"
       refX="0.0"
       refY="0.0"
       orient="auto"
       inkscape:stockid="Arrow1Mend"
       inkscape:isstock="true">
      <path
         transform="scale(0.4) rotate(180) translate(10,0)"
         style="fill-rule:evenodd;fill:context-stroke;stroke:context-stroke;stroke-width:1.0pt;"
         d="M 0.0,0.0 L 5.0,-5.0 L -12.5,0.0 L 5.0,5.0 L 0.0,0.0 z "
         id="path12912" />
    </marker>
    <marker
       style="overflow:visible;"
       id="Arrow1Lend"
       refX="0.0"
       refY="0.0"
       orient="auto"
       inkscape:stockid="Arrow1Lend"
       inkscape:isstock="true">
      <path
         transform="scale(0.8) rotate(180) translate(12.5,0)"
         style="fill-rule:evenodd;fill:context-stroke;stroke:context-stroke;stroke-width:1.0pt;"
         d="M 0.0,0.0 L 5.0,-5.0 L -12.5,0.0 L 5.0,5.0 L 0.0,0.0 z "
         id="path862" />
    </marker>
    <marker
       style="overflow:visible;"
       id="Arrow1Mend"
       refX="0.0"
       refY="0.0"
       orient="auto"
       inkscape:stockid="Arrow1Mend"
       inkscape:isstock="true">
      <path
         transform="scale(0.4) rotate(180) translate(10,0)"
         style="fill-rule:evenodd;fill:context-stroke;stroke:context-stroke;stroke-width:1.0pt;"
         d="M 0.0,0.0 L 5.0,-5.0 L -12.5,0.0 L 5.0,5.0 L 0.0,0.0 z "
         id="path868" />
    </marker>
    <marker
       style="overflow:visible"
       id="Arrow1Lstart"
       refX="0.0"
       refY="0.0"
       orient="auto"
       inkscape:stockid="Arrow1Lstart"
       inkscape:isstock="true">
      <path
         transform="scale(0.8) translate(12.5,0)"
         style="fill-rule:evenodd;fill:context-stroke;stroke:context-stroke;stroke-width:1.0pt"
         d="M 0.0,0.0 L 5.0,-5.0 L -12.5,0.0 L 5.0,5.0 L 0.0,0.0 z "
         id="path859" />
    </marker>
    <marker
       style="overflow:visible"
       id="Arrow1Mend-5"
       refX="0"
       refY="0"
       orient="auto"
       inkscape:stockid="Arrow1Mend"
       inkscape:isstock="true">
      <path
         transform="matrix(-0.4,0,0,-0.4,-4,0)"
         style="fill:context-stroke;fill-rule:evenodd;stroke:context-stroke;stroke-width:1pt"
         d="M 0,0 5,-5 -12.5,0 5,5 Z"
         id="path868-8" />
    </marker>
    <g
       id="g2724">
      <symbol
         overflow="visible"
         id="symbol2426">
        <path
           style="stroke:none;"
           d=""
           id="path6143" />
      </symbol>
      <symbol
         overflow="visible"
         id="symbol5701">
        <path
           style="stroke:none;"
           d="M 3.984375 -1.34375 C 5.515625 -1.46875 6.625 -2.390625 6.625 -3.40625 C 6.625 -4.4375 5.5 -5.34375 3.984375 -5.46875 L 3.984375 -6.015625 C 3.984375 -6.359375 3.984375 -6.5 4.921875 -6.5 L 5.25 -6.5 L 5.25 -6.8125 C 4.890625 -6.78125 3.984375 -6.78125 3.5625 -6.78125 C 3.15625 -6.78125 2.234375 -6.78125 1.875 -6.8125 L 1.875 -6.5 L 2.203125 -6.5 C 3.15625 -6.5 3.15625 -6.375 3.15625 -6.015625 L 3.15625 -5.46875 C 1.625 -5.3125 0.5625 -4.390625 0.5625 -3.40625 C 0.5625 -2.375 1.671875 -1.5 3.15625 -1.34375 L 3.15625 -0.78125 C 3.15625 -0.453125 3.15625 -0.3125 2.203125 -0.3125 L 1.875 -0.3125 L 1.875 0 C 2.234375 -0.03125 3.15625 -0.03125 3.5625 -0.03125 C 3.96875 -0.03125 4.890625 -0.03125 5.25 0 L 5.25 -0.3125 L 4.921875 -0.3125 C 3.984375 -0.3125 3.984375 -0.4375 3.984375 -0.78125 Z M 3.15625 -1.578125 C 1.734375 -1.765625 1.5625 -2.78125 1.5625 -3.40625 C 1.5625 -3.921875 1.65625 -5.03125 3.15625 -5.234375 Z M 3.984375 -5.25 C 5.359375 -5.078125 5.625 -4.171875 5.625 -3.40625 C 5.625 -2.8125 5.484375 -1.75 3.984375 -1.5625 Z M 3.984375 -5.25 "
           id="path2266" />
      </symbol>
      <symbol
         overflow="visible"
         id="symbol8461">
        <path
           style="stroke:none;"
           d="M 3.296875 2.390625 C 3.296875 2.359375 3.296875 2.34375 3.125 2.171875 C 1.890625 0.921875 1.5625 -0.96875 1.5625 -2.5 C 1.5625 -4.234375 1.9375 -5.96875 3.171875 -7.203125 C 3.296875 -7.328125 3.296875 -7.34375 3.296875 -7.375 C 3.296875 -7.453125 3.265625 -7.484375 3.203125 -7.484375 C 3.09375 -7.484375 2.203125 -6.796875 1.609375 -5.53125 C 1.109375 -4.4375 0.984375 -3.328125 0.984375 -2.5 C 0.984375 -1.71875 1.09375 -0.515625 1.640625 0.625 C 2.25 1.84375 3.09375 2.5 3.203125 2.5 C 3.265625 2.5 3.296875 2.46875 3.296875 2.390625 Z M 3.296875 2.390625 "
           id="path5421" />
      </symbol>
      <symbol
         overflow="visible"
         id="symbol1282">
        <path
           style="stroke:none;"
           d="M 2.875 -2.5 C 2.875 -3.265625 2.765625 -4.46875 2.21875 -5.609375 C 1.625 -6.828125 0.765625 -7.484375 0.671875 -7.484375 C 0.609375 -7.484375 0.5625 -7.4375 0.5625 -7.375 C 0.5625 -7.34375 0.5625 -7.328125 0.75 -7.140625 C 1.734375 -6.15625 2.296875 -4.578125 2.296875 -2.5 C 2.296875 -0.78125 1.9375 0.96875 0.703125 2.21875 C 0.5625 2.34375 0.5625 2.359375 0.5625 2.390625 C 0.5625 2.453125 0.609375 2.5 0.671875 2.5 C 0.765625 2.5 1.671875 1.8125 2.25 0.546875 C 2.765625 -0.546875 2.875 -1.65625 2.875 -2.5 Z M 2.875 -2.5 "
           id="path1318" />
      </symbol>
      <symbol
         overflow="visible"
         id="symbol392">
        <path
           style="stroke:none;"
           d=""
           id="path507" />
      </symbol>
      <symbol
         overflow="visible"
         id="symbol1430">
        <path
           style="stroke:none;"
           d="M 2.84375 -2.75 L 3.515625 -2.75 C 3.65625 -2.75 3.75 -2.75 3.75 -2.90625 C 3.75 -3 3.65625 -3 3.53125 -3 L 2.890625 -3 C 3.046875 -3.890625 3.09375 -4.203125 3.15625 -4.40625 C 3.1875 -4.5625 3.34375 -4.703125 3.515625 -4.703125 C 3.515625 -4.703125 3.703125 -4.703125 3.84375 -4.625 C 3.546875 -4.53125 3.53125 -4.28125 3.53125 -4.25 C 3.53125 -4.09375 3.65625 -3.984375 3.8125 -3.984375 C 4 -3.984375 4.203125 -4.140625 4.203125 -4.40625 C 4.203125 -4.734375 3.875 -4.90625 3.515625 -4.90625 C 3.203125 -4.90625 2.859375 -4.734375 2.671875 -4.390625 C 2.53125 -4.125 2.484375 -3.8125 2.328125 -3 L 1.78125 -3 C 1.640625 -3 1.546875 -3 1.546875 -2.84375 C 1.546875 -2.75 1.640625 -2.75 1.765625 -2.75 L 2.28125 -2.75 C 2.28125 -2.703125 1.84375 -0.203125 1.671875 0.546875 C 1.640625 0.703125 1.515625 1.21875 1.1875 1.21875 C 1.171875 1.21875 1.015625 1.21875 0.875 1.140625 C 1.15625 1.046875 1.1875 0.796875 1.1875 0.765625 C 1.1875 0.609375 1.0625 0.5 0.90625 0.5 C 0.71875 0.5 0.515625 0.65625 0.515625 0.921875 C 0.515625 1.234375 0.84375 1.421875 1.1875 1.421875 C 1.625 1.421875 1.9375 0.96875 2.015625 0.8125 C 2.265625 0.34375 2.4375 -0.515625 2.453125 -0.59375 Z M 2.84375 -2.75 "
           id="path2478" />
      </symbol>
      <symbol
         overflow="visible"
         id="symbol5818">
        <path
           style="stroke:none;"
           d="M 2.1875 -4.625 C 2.1875 -4.640625 2.203125 -4.734375 2.203125 -4.734375 C 2.203125 -4.78125 2.1875 -4.84375 2.09375 -4.84375 C 1.953125 -4.84375 1.375 -4.78125 1.203125 -4.765625 C 1.15625 -4.765625 1.046875 -4.75 1.046875 -4.609375 C 1.046875 -4.515625 1.15625 -4.515625 1.234375 -4.515625 C 1.5625 -4.515625 1.5625 -4.453125 1.5625 -4.40625 C 1.5625 -4.359375 1.546875 -4.3125 1.546875 -4.25 L 0.5625 -0.3125 C 0.515625 -0.1875 0.515625 -0.171875 0.515625 -0.15625 C 0.515625 -0.046875 0.609375 0.0625 0.765625 0.0625 C 0.84375 0.0625 0.96875 0.03125 1.046875 -0.109375 C 1.0625 -0.15625 1.125 -0.40625 1.15625 -0.546875 L 1.328125 -1.171875 C 1.34375 -1.28125 1.421875 -1.546875 1.4375 -1.640625 C 1.5 -1.90625 1.5 -1.921875 1.640625 -2.140625 C 1.875 -2.484375 2.21875 -2.875 2.765625 -2.875 C 3.15625 -2.875 3.171875 -2.5625 3.171875 -2.390625 C 3.171875 -1.96875 2.875 -1.203125 2.765625 -0.90625 C 2.6875 -0.703125 2.65625 -0.640625 2.65625 -0.53125 C 2.65625 -0.15625 2.96875 0.0625 3.3125 0.0625 C 4.015625 0.0625 4.328125 -0.890625 4.328125 -1 C 4.328125 -1.09375 4.234375 -1.09375 4.203125 -1.09375 C 4.109375 -1.09375 4.109375 -1.046875 4.078125 -0.96875 C 3.921875 -0.40625 3.609375 -0.125 3.34375 -0.125 C 3.1875 -0.125 3.15625 -0.21875 3.15625 -0.375 C 3.15625 -0.53125 3.203125 -0.625 3.328125 -0.9375 C 3.40625 -1.15625 3.6875 -1.890625 3.6875 -2.28125 C 3.6875 -2.390625 3.6875 -2.6875 3.4375 -2.890625 C 3.3125 -2.96875 3.109375 -3.078125 2.78125 -3.078125 C 2.28125 -3.078125 1.90625 -2.796875 1.65625 -2.5 Z M 2.1875 -4.625 "
           id="path940" />
      </symbol>
      <symbol
         overflow="visible"
         id="symbol3870">
        <path
           style="stroke:none;"
           d=""
           id="path3275" />
      </symbol>
      <symbol
         overflow="visible"
         id="symbol5685">
        <path
           style="stroke:none;"
           d="M 3.328125 -3.015625 C 3.390625 -3.265625 3.625 -4.1875 4.3125 -4.1875 C 4.359375 -4.1875 4.609375 -4.1875 4.8125 -4.0625 C 4.53125 -4 4.34375 -3.765625 4.34375 -3.515625 C 4.34375 -3.359375 4.453125 -3.171875 4.71875 -3.171875 C 4.9375 -3.171875 5.25 -3.34375 5.25 -3.75 C 5.25 -4.265625 4.671875 -4.40625 4.328125 -4.40625 C 3.75 -4.40625 3.40625 -3.875 3.28125 -3.65625 C 3.03125 -4.3125 2.5 -4.40625 2.203125 -4.40625 C 1.171875 -4.40625 0.59375 -3.125 0.59375 -2.875 C 0.59375 -2.765625 0.703125 -2.765625 0.71875 -2.765625 C 0.796875 -2.765625 0.828125 -2.796875 0.84375 -2.875 C 1.1875 -3.9375 1.84375 -4.1875 2.1875 -4.1875 C 2.375 -4.1875 2.71875 -4.09375 2.71875 -3.515625 C 2.71875 -3.203125 2.546875 -2.546875 2.1875 -1.140625 C 2.03125 -0.53125 1.671875 -0.109375 1.234375 -0.109375 C 1.171875 -0.109375 0.953125 -0.109375 0.734375 -0.234375 C 0.984375 -0.296875 1.203125 -0.5 1.203125 -0.78125 C 1.203125 -1.046875 0.984375 -1.125 0.84375 -1.125 C 0.53125 -1.125 0.296875 -0.875 0.296875 -0.546875 C 0.296875 -0.09375 0.78125 0.109375 1.21875 0.109375 C 1.890625 0.109375 2.25 -0.59375 2.265625 -0.640625 C 2.390625 -0.28125 2.75 0.109375 3.34375 0.109375 C 4.375 0.109375 4.9375 -1.171875 4.9375 -1.421875 C 4.9375 -1.53125 4.859375 -1.53125 4.828125 -1.53125 C 4.734375 -1.53125 4.71875 -1.484375 4.6875 -1.421875 C 4.359375 -0.34375 3.6875 -0.109375 3.375 -0.109375 C 2.984375 -0.109375 2.828125 -0.421875 2.828125 -0.765625 C 2.828125 -0.984375 2.875 -1.203125 2.984375 -1.640625 Z M 3.328125 -3.015625 "
           id="path5163" />
      </symbol>
    </g>
    <g
       id="g5111">
      <symbol
         overflow="visible"
         id="symbol9891">
        <path
           style="stroke:none;"
           d=""
           id="path6659" />
      </symbol>
      <symbol
         overflow="visible"
         id="symbol2862">
        <path
           style="stroke:none;"
           d="M 1.71875 -3.75 L 1.71875 -4.40625 L 0.28125 -4.296875 L 0.28125 -3.984375 C 0.984375 -3.984375 1.0625 -3.921875 1.0625 -3.484375 L 1.0625 1.171875 C 1.0625 1.625 0.953125 1.625 0.28125 1.625 L 0.28125 1.9375 C 0.625 1.921875 1.140625 1.90625 1.390625 1.90625 C 1.671875 1.90625 2.171875 1.921875 2.515625 1.9375 L 2.515625 1.625 C 1.859375 1.625 1.75 1.625 1.75 1.171875 L 1.75 -0.59375 C 1.796875 -0.421875 2.21875 0.109375 2.96875 0.109375 C 4.15625 0.109375 5.1875 -0.875 5.1875 -2.15625 C 5.1875 -3.421875 4.234375 -4.40625 3.109375 -4.40625 C 2.328125 -4.40625 1.90625 -3.96875 1.71875 -3.75 Z M 1.75 -1.140625 L 1.75 -3.359375 C 2.03125 -3.875 2.515625 -4.15625 3.03125 -4.15625 C 3.765625 -4.15625 4.359375 -3.28125 4.359375 -2.15625 C 4.359375 -0.953125 3.671875 -0.109375 2.9375 -0.109375 C 2.53125 -0.109375 2.15625 -0.3125 1.890625 -0.71875 C 1.75 -0.921875 1.75 -0.9375 1.75 -1.140625 Z M 1.75 -1.140625 "
           id="path9970" />
      </symbol>
      <symbol
         overflow="visible"
         id="symbol6448">
        <path
           style="stroke:none;"
           d="M 1.671875 -3.3125 L 1.671875 -4.40625 L 0.28125 -4.296875 L 0.28125 -3.984375 C 0.984375 -3.984375 1.0625 -3.921875 1.0625 -3.421875 L 1.0625 -0.75 C 1.0625 -0.3125 0.953125 -0.3125 0.28125 -0.3125 L 0.28125 0 C 0.671875 -0.015625 1.140625 -0.03125 1.421875 -0.03125 C 1.8125 -0.03125 2.28125 -0.03125 2.6875 0 L 2.6875 -0.3125 L 2.46875 -0.3125 C 1.734375 -0.3125 1.71875 -0.421875 1.71875 -0.78125 L 1.71875 -2.3125 C 1.71875 -3.296875 2.140625 -4.1875 2.890625 -4.1875 C 2.953125 -4.1875 2.984375 -4.1875 3 -4.171875 C 2.96875 -4.171875 2.765625 -4.046875 2.765625 -3.78125 C 2.765625 -3.515625 2.984375 -3.359375 3.203125 -3.359375 C 3.375 -3.359375 3.625 -3.484375 3.625 -3.796875 C 3.625 -4.109375 3.3125 -4.40625 2.890625 -4.40625 C 2.15625 -4.40625 1.796875 -3.734375 1.671875 -3.3125 Z M 1.671875 -3.3125 "
           id="path3219" />
      </symbol>
      <symbol
         overflow="visible"
         id="symbol5896">
        <path
           style="stroke:none;"
           d="M 4.6875 -2.140625 C 4.6875 -3.40625 3.703125 -4.46875 2.5 -4.46875 C 1.25 -4.46875 0.28125 -3.375 0.28125 -2.140625 C 0.28125 -0.84375 1.3125 0.109375 2.484375 0.109375 C 3.6875 0.109375 4.6875 -0.875 4.6875 -2.140625 Z M 2.5 -0.140625 C 2.0625 -0.140625 1.625 -0.34375 1.359375 -0.8125 C 1.109375 -1.25 1.109375 -1.859375 1.109375 -2.21875 C 1.109375 -2.609375 1.109375 -3.140625 1.34375 -3.578125 C 1.609375 -4.03125 2.078125 -4.25 2.484375 -4.25 C 2.921875 -4.25 3.34375 -4.03125 3.609375 -3.59375 C 3.875 -3.171875 3.875 -2.59375 3.875 -2.21875 C 3.875 -1.859375 3.875 -1.3125 3.65625 -0.875 C 3.421875 -0.421875 2.984375 -0.140625 2.5 -0.140625 Z M 2.5 -0.140625 "
           id="path1213" />
      </symbol>
      <symbol
         overflow="visible"
         id="symbol6876">
        <path
           style="stroke:none;"
           d="M 2.859375 -2.34375 C 3.15625 -2.71875 3.53125 -3.203125 3.78125 -3.46875 C 4.09375 -3.828125 4.5 -3.984375 4.96875 -3.984375 L 4.96875 -4.296875 C 4.703125 -4.28125 4.40625 -4.265625 4.140625 -4.265625 C 3.84375 -4.265625 3.3125 -4.28125 3.1875 -4.296875 L 3.1875 -3.984375 C 3.40625 -3.96875 3.484375 -3.84375 3.484375 -3.671875 C 3.484375 -3.515625 3.375 -3.390625 3.328125 -3.328125 L 2.71875 -2.546875 L 1.9375 -3.5625 C 1.84375 -3.65625 1.84375 -3.671875 1.84375 -3.734375 C 1.84375 -3.890625 2 -3.984375 2.1875 -3.984375 L 2.1875 -4.296875 C 1.9375 -4.28125 1.28125 -4.265625 1.109375 -4.265625 C 0.90625 -4.265625 0.4375 -4.28125 0.171875 -4.296875 L 0.171875 -3.984375 C 0.875 -3.984375 0.875 -3.984375 1.34375 -3.375 L 2.328125 -2.09375 L 1.390625 -0.90625 C 0.921875 -0.328125 0.328125 -0.3125 0.125 -0.3125 L 0.125 0 C 0.375 -0.015625 0.6875 -0.03125 0.953125 -0.03125 C 1.234375 -0.03125 1.65625 -0.015625 1.890625 0 L 1.890625 -0.3125 C 1.671875 -0.34375 1.609375 -0.46875 1.609375 -0.625 C 1.609375 -0.84375 1.890625 -1.171875 2.5 -1.890625 L 3.265625 -0.890625 C 3.34375 -0.78125 3.46875 -0.625 3.46875 -0.5625 C 3.46875 -0.46875 3.375 -0.3125 3.109375 -0.3125 L 3.109375 0 C 3.40625 -0.015625 3.96875 -0.03125 4.1875 -0.03125 C 4.453125 -0.03125 4.84375 -0.015625 5.140625 0 L 5.140625 -0.3125 C 4.609375 -0.3125 4.421875 -0.328125 4.203125 -0.625 Z M 2.859375 -2.34375 "
           id="path4234" />
      </symbol>
      <symbol
         overflow="visible"
         id="symbol5141">
        <path
           style="stroke:none;"
           d="M 3.296875 2.390625 C 3.296875 2.359375 3.296875 2.34375 3.125 2.171875 C 1.890625 0.921875 1.5625 -0.96875 1.5625 -2.5 C 1.5625 -4.234375 1.9375 -5.96875 3.171875 -7.203125 C 3.296875 -7.328125 3.296875 -7.34375 3.296875 -7.375 C 3.296875 -7.453125 3.265625 -7.484375 3.203125 -7.484375 C 3.09375 -7.484375 2.203125 -6.796875 1.609375 -5.53125 C 1.109375 -4.4375 0.984375 -3.328125 0.984375 -2.5 C 0.984375 -1.71875 1.09375 -0.515625 1.640625 0.625 C 2.25 1.84375 3.09375 2.5 3.203125 2.5 C 3.265625 2.5 3.296875 2.46875 3.296875 2.390625 Z M 3.296875 2.390625 "
           id="path2851" />
      </symbol>
      <symbol
         overflow="visible"
         id="symbol7247">
        <path
           style="stroke:none;"
           d="M 3.984375 -1.34375 C 5.515625 -1.46875 6.625 -2.390625 6.625 -3.40625 C 6.625 -4.4375 5.5 -5.34375 3.984375 -5.46875 L 3.984375 -6.015625 C 3.984375 -6.359375 3.984375 -6.5 4.921875 -6.5 L 5.25 -6.5 L 5.25 -6.8125 C 4.890625 -6.78125 3.984375 -6.78125 3.5625 -6.78125 C 3.15625 -6.78125 2.234375 -6.78125 1.875 -6.8125 L 1.875 -6.5 L 2.203125 -6.5 C 3.15625 -6.5 3.15625 -6.375 3.15625 -6.015625 L 3.15625 -5.46875 C 1.625 -5.3125 0.5625 -4.390625 0.5625 -3.40625 C 0.5625 -2.375 1.671875 -1.5 3.15625 -1.34375 L 3.15625 -0.78125 C 3.15625 -0.453125 3.15625 -0.3125 2.203125 -0.3125 L 1.875 -0.3125 L 1.875 0 C 2.234375 -0.03125 3.15625 -0.03125 3.5625 -0.03125 C 3.96875 -0.03125 4.890625 -0.03125 5.25 0 L 5.25 -0.3125 L 4.921875 -0.3125 C 3.984375 -0.3125 3.984375 -0.4375 3.984375 -0.78125 Z M 3.15625 -1.578125 C 1.734375 -1.765625 1.5625 -2.78125 1.5625 -3.40625 C 1.5625 -3.921875 1.65625 -5.03125 3.15625 -5.234375 Z M 3.984375 -5.25 C 5.359375 -5.078125 5.625 -4.171875 5.625 -3.40625 C 5.625 -2.8125 5.484375 -1.75 3.984375 -1.5625 Z M 3.984375 -5.25 "
           id="path5836" />
      </symbol>
      <symbol
         overflow="visible"
         id="symbol3395">
        <path
           style="stroke:none;"
           d="M 2.875 -2.5 C 2.875 -3.265625 2.765625 -4.46875 2.21875 -5.609375 C 1.625 -6.828125 0.765625 -7.484375 0.671875 -7.484375 C 0.609375 -7.484375 0.5625 -7.4375 0.5625 -7.375 C 0.5625 -7.34375 0.5625 -7.328125 0.75 -7.140625 C 1.734375 -6.15625 2.296875 -4.578125 2.296875 -2.5 C 2.296875 -0.78125 1.9375 0.96875 0.703125 2.21875 C 0.5625 2.34375 0.5625 2.359375 0.5625 2.390625 C 0.5625 2.453125 0.609375 2.5 0.671875 2.5 C 0.765625 2.5 1.671875 1.8125 2.25 0.546875 C 2.765625 -0.546875 2.875 -1.65625 2.875 -2.5 Z M 2.875 -2.5 "
           id="path1401" />
      </symbol>
      <symbol
         overflow="visible"
         id="symbol9265">
        <path
           style="stroke:none;"
           d=""
           id="path9747" />
      </symbol>
      <symbol
         overflow="visible"
         id="symbol2326">
        <path
           style="stroke:none;"
           d="M 3.703125 -2.578125 C 3.734375 -2.671875 3.734375 -2.703125 3.734375 -2.71875 C 3.734375 -2.875 3.609375 -2.9375 3.5 -2.9375 C 3.34375 -2.9375 3.203125 -2.8125 3.171875 -2.671875 C 3.0625 -2.859375 2.828125 -3.078125 2.453125 -3.078125 C 1.59375 -3.078125 0.671875 -2.140625 0.671875 -1.140625 C 0.671875 -0.421875 1.15625 0 1.734375 0 C 2.0625 0 2.359375 -0.15625 2.609375 -0.375 L 2.453125 0.25 C 2.375 0.546875 2.328125 0.734375 2.0625 0.96875 C 1.75 1.21875 1.453125 1.21875 1.28125 1.21875 C 0.96875 1.21875 0.875 1.203125 0.75 1.171875 C 0.921875 1.09375 0.96875 0.921875 0.96875 0.828125 C 0.96875 0.65625 0.84375 0.578125 0.703125 0.578125 C 0.5 0.578125 0.296875 0.734375 0.296875 1 C 0.296875 1.421875 0.90625 1.421875 1.296875 1.421875 C 2.390625 1.421875 2.84375 0.859375 2.953125 0.46875 Z M 2.75 -0.921875 C 2.71875 -0.828125 2.71875 -0.8125 2.59375 -0.671875 C 2.359375 -0.375 2.015625 -0.1875 1.75 -0.1875 C 1.40625 -0.1875 1.234375 -0.5 1.234375 -0.859375 C 1.234375 -1.15625 1.421875 -1.9375 1.609375 -2.25 C 1.890625 -2.734375 2.21875 -2.875 2.453125 -2.875 C 2.953125 -2.875 3.078125 -2.359375 3.078125 -2.28125 C 3.078125 -2.265625 3.078125 -2.265625 3.0625 -2.1875 Z M 2.75 -0.921875 "
           id="path7693" />
      </symbol>
      <symbol
         overflow="visible"
         id="symbol8371">
        <path
           style="stroke:none;"
           d="M 2.84375 -2.75 L 3.515625 -2.75 C 3.65625 -2.75 3.75 -2.75 3.75 -2.90625 C 3.75 -3 3.65625 -3 3.53125 -3 L 2.890625 -3 C 3.046875 -3.890625 3.09375 -4.203125 3.15625 -4.40625 C 3.1875 -4.5625 3.34375 -4.703125 3.515625 -4.703125 C 3.515625 -4.703125 3.703125 -4.703125 3.84375 -4.625 C 3.546875 -4.53125 3.53125 -4.28125 3.53125 -4.25 C 3.53125 -4.09375 3.65625 -3.984375 3.8125 -3.984375 C 4 -3.984375 4.203125 -4.140625 4.203125 -4.40625 C 4.203125 -4.734375 3.875 -4.90625 3.515625 -4.90625 C 3.203125 -4.90625 2.859375 -4.734375 2.671875 -4.390625 C 2.53125 -4.125 2.484375 -3.8125 2.328125 -3 L 1.78125 -3 C 1.640625 -3 1.546875 -3 1.546875 -2.84375 C 1.546875 -2.75 1.640625 -2.75 1.765625 -2.75 L 2.28125 -2.75 C 2.28125 -2.703125 1.84375 -0.203125 1.671875 0.546875 C 1.640625 0.703125 1.515625 1.21875 1.1875 1.21875 C 1.171875 1.21875 1.015625 1.21875 0.875 1.140625 C 1.15625 1.046875 1.1875 0.796875 1.1875 0.765625 C 1.1875 0.609375 1.0625 0.5 0.90625 0.5 C 0.71875 0.5 0.515625 0.65625 0.515625 0.921875 C 0.515625 1.234375 0.84375 1.421875 1.1875 1.421875 C 1.625 1.421875 1.9375 0.96875 2.015625 0.8125 C 2.265625 0.34375 2.4375 -0.515625 2.453125 -0.59375 Z M 2.84375 -2.75 "
           id="path3402" />
      </symbol>
      <symbol
         overflow="visible"
         id="symbol5577">
        <path
           style="stroke:none;"
           d="M 2.1875 -4.625 C 2.1875 -4.640625 2.203125 -4.734375 2.203125 -4.734375 C 2.203125 -4.78125 2.1875 -4.84375 2.09375 -4.84375 C 1.953125 -4.84375 1.375 -4.78125 1.203125 -4.765625 C 1.15625 -4.765625 1.046875 -4.75 1.046875 -4.609375 C 1.046875 -4.515625 1.15625 -4.515625 1.234375 -4.515625 C 1.5625 -4.515625 1.5625 -4.453125 1.5625 -4.40625 C 1.5625 -4.359375 1.546875 -4.3125 1.546875 -4.25 L 0.5625 -0.3125 C 0.515625 -0.1875 0.515625 -0.171875 0.515625 -0.15625 C 0.515625 -0.046875 0.609375 0.0625 0.765625 0.0625 C 0.84375 0.0625 0.96875 0.03125 1.046875 -0.109375 C 1.0625 -0.15625 1.125 -0.40625 1.15625 -0.546875 L 1.328125 -1.171875 C 1.34375 -1.28125 1.421875 -1.546875 1.4375 -1.640625 C 1.5 -1.90625 1.5 -1.921875 1.640625 -2.140625 C 1.875 -2.484375 2.21875 -2.875 2.765625 -2.875 C 3.15625 -2.875 3.171875 -2.5625 3.171875 -2.390625 C 3.171875 -1.96875 2.875 -1.203125 2.765625 -0.90625 C 2.6875 -0.703125 2.65625 -0.640625 2.65625 -0.53125 C 2.65625 -0.15625 2.96875 0.0625 3.3125 0.0625 C 4.015625 0.0625 4.328125 -0.890625 4.328125 -1 C 4.328125 -1.09375 4.234375 -1.09375 4.203125 -1.09375 C 4.109375 -1.09375 4.109375 -1.046875 4.078125 -0.96875 C 3.921875 -0.40625 3.609375 -0.125 3.34375 -0.125 C 3.1875 -0.125 3.15625 -0.21875 3.15625 -0.375 C 3.15625 -0.53125 3.203125 -0.625 3.328125 -0.9375 C 3.40625 -1.15625 3.6875 -1.890625 3.6875 -2.28125 C 3.6875 -2.390625 3.6875 -2.6875 3.4375 -2.890625 C 3.3125 -2.96875 3.109375 -3.078125 2.78125 -3.078125 C 2.28125 -3.078125 1.90625 -2.796875 1.65625 -2.5 Z M 2.1875 -4.625 "
           id="path2317" />
      </symbol>
      <symbol
         overflow="visible"
         id="symbol903">
        <path
           style="stroke:none;"
           d=""
           id="path4443" />
      </symbol>
      <symbol
         overflow="visible"
         id="symbol9341">
        <path
           style="stroke:none;"
           d="M 1.984375 -3.171875 C 1.984375 -3.3125 1.96875 -3.3125 1.796875 -3.3125 C 1.453125 -3 0.890625 -3 0.796875 -3 L 0.71875 -3 L 0.71875 -2.78125 L 0.796875 -2.78125 C 0.90625 -2.78125 1.234375 -2.796875 1.53125 -2.921875 L 1.53125 -0.421875 C 1.53125 -0.28125 1.53125 -0.21875 1 -0.21875 L 0.75 -0.21875 L 0.75 0 C 1.015625 -0.015625 1.46875 -0.015625 1.75 -0.015625 C 2.046875 -0.015625 2.484375 -0.015625 2.765625 0 L 2.765625 -0.21875 L 2.515625 -0.21875 C 1.984375 -0.21875 1.984375 -0.28125 1.984375 -0.421875 Z M 1.984375 -3.171875 "
           id="path3360" />
      </symbol>
      <symbol
         overflow="visible"
         id="symbol4025">
        <path
           style="stroke:none;"
           d=""
           id="path7807" />
      </symbol>
      <symbol
         overflow="visible"
         id="symbol5171">
        <path
           style="stroke:none;"
           d="M 3.328125 -3.015625 C 3.390625 -3.265625 3.625 -4.1875 4.3125 -4.1875 C 4.359375 -4.1875 4.609375 -4.1875 4.8125 -4.0625 C 4.53125 -4 4.34375 -3.765625 4.34375 -3.515625 C 4.34375 -3.359375 4.453125 -3.171875 4.71875 -3.171875 C 4.9375 -3.171875 5.25 -3.34375 5.25 -3.75 C 5.25 -4.265625 4.671875 -4.40625 4.328125 -4.40625 C 3.75 -4.40625 3.40625 -3.875 3.28125 -3.65625 C 3.03125 -4.3125 2.5 -4.40625 2.203125 -4.40625 C 1.171875 -4.40625 0.59375 -3.125 0.59375 -2.875 C 0.59375 -2.765625 0.703125 -2.765625 0.71875 -2.765625 C 0.796875 -2.765625 0.828125 -2.796875 0.84375 -2.875 C 1.1875 -3.9375 1.84375 -4.1875 2.1875 -4.1875 C 2.375 -4.1875 2.71875 -4.09375 2.71875 -3.515625 C 2.71875 -3.203125 2.546875 -2.546875 2.1875 -1.140625 C 2.03125 -0.53125 1.671875 -0.109375 1.234375 -0.109375 C 1.171875 -0.109375 0.953125 -0.109375 0.734375 -0.234375 C 0.984375 -0.296875 1.203125 -0.5 1.203125 -0.78125 C 1.203125 -1.046875 0.984375 -1.125 0.84375 -1.125 C 0.53125 -1.125 0.296875 -0.875 0.296875 -0.546875 C 0.296875 -0.09375 0.78125 0.109375 1.21875 0.109375 C 1.890625 0.109375 2.25 -0.59375 2.265625 -0.640625 C 2.390625 -0.28125 2.75 0.109375 3.34375 0.109375 C 4.375 0.109375 4.9375 -1.171875 4.9375 -1.421875 C 4.9375 -1.53125 4.859375 -1.53125 4.828125 -1.53125 C 4.734375 -1.53125 4.71875 -1.484375 4.6875 -1.421875 C 4.359375 -0.34375 3.6875 -0.109375 3.375 -0.109375 C 2.984375 -0.109375 2.828125 -0.421875 2.828125 -0.765625 C 2.828125 -0.984375 2.875 -1.203125 2.984375 -1.640625 Z M 3.328125 -3.015625 "
           id="path7123" />
      </symbol>
    </g>
    <g
       id="g9541">
      <symbol
         overflow="visible"
         id="symbol5588">
        <path
           style="stroke:none;"
           d=""
           id="path9061" />
      </symbol>
      <symbol
         overflow="visible"
         id="symbol4718">
        <path
           style="stroke:none;"
           d="M 1.71875 -3.75 L 1.71875 -4.40625 L 0.28125 -4.296875 L 0.28125 -3.984375 C 0.984375 -3.984375 1.0625 -3.921875 1.0625 -3.484375 L 1.0625 1.171875 C 1.0625 1.625 0.953125 1.625 0.28125 1.625 L 0.28125 1.9375 C 0.625 1.921875 1.140625 1.90625 1.390625 1.90625 C 1.671875 1.90625 2.171875 1.921875 2.515625 1.9375 L 2.515625 1.625 C 1.859375 1.625 1.75 1.625 1.75 1.171875 L 1.75 -0.59375 C 1.796875 -0.421875 2.21875 0.109375 2.96875 0.109375 C 4.15625 0.109375 5.1875 -0.875 5.1875 -2.15625 C 5.1875 -3.421875 4.234375 -4.40625 3.109375 -4.40625 C 2.328125 -4.40625 1.90625 -3.96875 1.71875 -3.75 Z M 1.75 -1.140625 L 1.75 -3.359375 C 2.03125 -3.875 2.515625 -4.15625 3.03125 -4.15625 C 3.765625 -4.15625 4.359375 -3.28125 4.359375 -2.15625 C 4.359375 -0.953125 3.671875 -0.109375 2.9375 -0.109375 C 2.53125 -0.109375 2.15625 -0.3125 1.890625 -0.71875 C 1.75 -0.921875 1.75 -0.9375 1.75 -1.140625 Z M 1.75 -1.140625 "
           id="path4368" />
      </symbol>
      <symbol
         overflow="visible"
         id="symbol4625">
        <path
           style="stroke:none;"
           d="M 1.671875 -3.3125 L 1.671875 -4.40625 L 0.28125 -4.296875 L 0.28125 -3.984375 C 0.984375 -3.984375 1.0625 -3.921875 1.0625 -3.421875 L 1.0625 -0.75 C 1.0625 -0.3125 0.953125 -0.3125 0.28125 -0.3125 L 0.28125 0 C 0.671875 -0.015625 1.140625 -0.03125 1.421875 -0.03125 C 1.8125 -0.03125 2.28125 -0.03125 2.6875 0 L 2.6875 -0.3125 L 2.46875 -0.3125 C 1.734375 -0.3125 1.71875 -0.421875 1.71875 -0.78125 L 1.71875 -2.3125 C 1.71875 -3.296875 2.140625 -4.1875 2.890625 -4.1875 C 2.953125 -4.1875 2.984375 -4.1875 3 -4.171875 C 2.96875 -4.171875 2.765625 -4.046875 2.765625 -3.78125 C 2.765625 -3.515625 2.984375 -3.359375 3.203125 -3.359375 C 3.375 -3.359375 3.625 -3.484375 3.625 -3.796875 C 3.625 -4.109375 3.3125 -4.40625 2.890625 -4.40625 C 2.15625 -4.40625 1.796875 -3.734375 1.671875 -3.3125 Z M 1.671875 -3.3125 "
           id="path8483" />
      </symbol>
      <symbol
         overflow="visible"
         id="symbol6551">
        <path
           style="stroke:none;"
           d="M 4.6875 -2.140625 C 4.6875 -3.40625 3.703125 -4.46875 2.5 -4.46875 C 1.25 -4.46875 0.28125 -3.375 0.28125 -2.140625 C 0.28125 -0.84375 1.3125 0.109375 2.484375 0.109375 C 3.6875 0.109375 4.6875 -0.875 4.6875 -2.140625 Z M 2.5 -0.140625 C 2.0625 -0.140625 1.625 -0.34375 1.359375 -0.8125 C 1.109375 -1.25 1.109375 -1.859375 1.109375 -2.21875 C 1.109375 -2.609375 1.109375 -3.140625 1.34375 -3.578125 C 1.609375 -4.03125 2.078125 -4.25 2.484375 -4.25 C 2.921875 -4.25 3.34375 -4.03125 3.609375 -3.59375 C 3.875 -3.171875 3.875 -2.59375 3.875 -2.21875 C 3.875 -1.859375 3.875 -1.3125 3.65625 -0.875 C 3.421875 -0.421875 2.984375 -0.140625 2.5 -0.140625 Z M 2.5 -0.140625 "
           id="path7093" />
      </symbol>
      <symbol
         overflow="visible"
         id="symbol6188">
        <path
           style="stroke:none;"
           d="M 2.859375 -2.34375 C 3.15625 -2.71875 3.53125 -3.203125 3.78125 -3.46875 C 4.09375 -3.828125 4.5 -3.984375 4.96875 -3.984375 L 4.96875 -4.296875 C 4.703125 -4.28125 4.40625 -4.265625 4.140625 -4.265625 C 3.84375 -4.265625 3.3125 -4.28125 3.1875 -4.296875 L 3.1875 -3.984375 C 3.40625 -3.96875 3.484375 -3.84375 3.484375 -3.671875 C 3.484375 -3.515625 3.375 -3.390625 3.328125 -3.328125 L 2.71875 -2.546875 L 1.9375 -3.5625 C 1.84375 -3.65625 1.84375 -3.671875 1.84375 -3.734375 C 1.84375 -3.890625 2 -3.984375 2.1875 -3.984375 L 2.1875 -4.296875 C 1.9375 -4.28125 1.28125 -4.265625 1.109375 -4.265625 C 0.90625 -4.265625 0.4375 -4.28125 0.171875 -4.296875 L 0.171875 -3.984375 C 0.875 -3.984375 0.875 -3.984375 1.34375 -3.375 L 2.328125 -2.09375 L 1.390625 -0.90625 C 0.921875 -0.328125 0.328125 -0.3125 0.125 -0.3125 L 0.125 0 C 0.375 -0.015625 0.6875 -0.03125 0.953125 -0.03125 C 1.234375 -0.03125 1.65625 -0.015625 1.890625 0 L 1.890625 -0.3125 C 1.671875 -0.34375 1.609375 -0.46875 1.609375 -0.625 C 1.609375 -0.84375 1.890625 -1.171875 2.5 -1.890625 L 3.265625 -0.890625 C 3.34375 -0.78125 3.46875 -0.625 3.46875 -0.5625 C 3.46875 -0.46875 3.375 -0.3125 3.109375 -0.3125 L 3.109375 0 C 3.40625 -0.015625 3.96875 -0.03125 4.1875 -0.03125 C 4.453125 -0.03125 4.84375 -0.015625 5.140625 0 L 5.140625 -0.3125 C 4.609375 -0.3125 4.421875 -0.328125 4.203125 -0.625 Z M 2.859375 -2.34375 "
           id="path4054" />
      </symbol>
      <symbol
         overflow="visible"
         id="symbol2428">
        <path
           style="stroke:none;"
           d="M 3.296875 2.390625 C 3.296875 2.359375 3.296875 2.34375 3.125 2.171875 C 1.890625 0.921875 1.5625 -0.96875 1.5625 -2.5 C 1.5625 -4.234375 1.9375 -5.96875 3.171875 -7.203125 C 3.296875 -7.328125 3.296875 -7.34375 3.296875 -7.375 C 3.296875 -7.453125 3.265625 -7.484375 3.203125 -7.484375 C 3.09375 -7.484375 2.203125 -6.796875 1.609375 -5.53125 C 1.109375 -4.4375 0.984375 -3.328125 0.984375 -2.5 C 0.984375 -1.71875 1.09375 -0.515625 1.640625 0.625 C 2.25 1.84375 3.09375 2.5 3.203125 2.5 C 3.265625 2.5 3.296875 2.46875 3.296875 2.390625 Z M 3.296875 2.390625 "
           id="path5476" />
      </symbol>
      <symbol
         overflow="visible"
         id="symbol6003">
        <path
           style="stroke:none;"
           d="M 3.984375 -1.34375 C 5.515625 -1.46875 6.625 -2.390625 6.625 -3.40625 C 6.625 -4.4375 5.5 -5.34375 3.984375 -5.46875 L 3.984375 -6.015625 C 3.984375 -6.359375 3.984375 -6.5 4.921875 -6.5 L 5.25 -6.5 L 5.25 -6.8125 C 4.890625 -6.78125 3.984375 -6.78125 3.5625 -6.78125 C 3.15625 -6.78125 2.234375 -6.78125 1.875 -6.8125 L 1.875 -6.5 L 2.203125 -6.5 C 3.15625 -6.5 3.15625 -6.375 3.15625 -6.015625 L 3.15625 -5.46875 C 1.625 -5.3125 0.5625 -4.390625 0.5625 -3.40625 C 0.5625 -2.375 1.671875 -1.5 3.15625 -1.34375 L 3.15625 -0.78125 C 3.15625 -0.453125 3.15625 -0.3125 2.203125 -0.3125 L 1.875 -0.3125 L 1.875 0 C 2.234375 -0.03125 3.15625 -0.03125 3.5625 -0.03125 C 3.96875 -0.03125 4.890625 -0.03125 5.25 0 L 5.25 -0.3125 L 4.921875 -0.3125 C 3.984375 -0.3125 3.984375 -0.4375 3.984375 -0.78125 Z M 3.15625 -1.578125 C 1.734375 -1.765625 1.5625 -2.78125 1.5625 -3.40625 C 1.5625 -3.921875 1.65625 -5.03125 3.15625 -5.234375 Z M 3.984375 -5.25 C 5.359375 -5.078125 5.625 -4.171875 5.625 -3.40625 C 5.625 -2.8125 5.484375 -1.75 3.984375 -1.5625 Z M 3.984375 -5.25 "
           id="path8893" />
      </symbol>
      <symbol
         overflow="visible"
         id="symbol1234">
        <path
           style="stroke:none;"
           d="M 2.875 -2.5 C 2.875 -3.265625 2.765625 -4.46875 2.21875 -5.609375 C 1.625 -6.828125 0.765625 -7.484375 0.671875 -7.484375 C 0.609375 -7.484375 0.5625 -7.4375 0.5625 -7.375 C 0.5625 -7.34375 0.5625 -7.328125 0.75 -7.140625 C 1.734375 -6.15625 2.296875 -4.578125 2.296875 -2.5 C 2.296875 -0.78125 1.9375 0.96875 0.703125 2.21875 C 0.5625 2.34375 0.5625 2.359375 0.5625 2.390625 C 0.5625 2.453125 0.609375 2.5 0.671875 2.5 C 0.765625 2.5 1.671875 1.8125 2.25 0.546875 C 2.765625 -0.546875 2.875 -1.65625 2.875 -2.5 Z M 2.875 -2.5 "
           id="path7950" />
      </symbol>
      <symbol
         overflow="visible"
         id="symbol6928">
        <path
           style="stroke:none;"
           d=""
           id="path7077" />
      </symbol>
      <symbol
         overflow="visible"
         id="symbol3474">
        <path
           style="stroke:none;"
           d="M 3.703125 -2.578125 C 3.734375 -2.671875 3.734375 -2.703125 3.734375 -2.71875 C 3.734375 -2.875 3.609375 -2.9375 3.5 -2.9375 C 3.34375 -2.9375 3.203125 -2.8125 3.171875 -2.671875 C 3.0625 -2.859375 2.828125 -3.078125 2.453125 -3.078125 C 1.59375 -3.078125 0.671875 -2.140625 0.671875 -1.140625 C 0.671875 -0.421875 1.15625 0 1.734375 0 C 2.0625 0 2.359375 -0.15625 2.609375 -0.375 L 2.453125 0.25 C 2.375 0.546875 2.328125 0.734375 2.0625 0.96875 C 1.75 1.21875 1.453125 1.21875 1.28125 1.21875 C 0.96875 1.21875 0.875 1.203125 0.75 1.171875 C 0.921875 1.09375 0.96875 0.921875 0.96875 0.828125 C 0.96875 0.65625 0.84375 0.578125 0.703125 0.578125 C 0.5 0.578125 0.296875 0.734375 0.296875 1 C 0.296875 1.421875 0.90625 1.421875 1.296875 1.421875 C 2.390625 1.421875 2.84375 0.859375 2.953125 0.46875 Z M 2.75 -0.921875 C 2.71875 -0.828125 2.71875 -0.8125 2.59375 -0.671875 C 2.359375 -0.375 2.015625 -0.1875 1.75 -0.1875 C 1.40625 -0.1875 1.234375 -0.5 1.234375 -0.859375 C 1.234375 -1.15625 1.421875 -1.9375 1.609375 -2.25 C 1.890625 -2.734375 2.21875 -2.875 2.453125 -2.875 C 2.953125 -2.875 3.078125 -2.359375 3.078125 -2.28125 C 3.078125 -2.265625 3.078125 -2.265625 3.0625 -2.1875 Z M 2.75 -0.921875 "
           id="path8952" />
      </symbol>
      <symbol
         overflow="visible"
         id="symbol8403">
        <path
           style="stroke:none;"
           d="M 2.84375 -2.75 L 3.515625 -2.75 C 3.65625 -2.75 3.75 -2.75 3.75 -2.90625 C 3.75 -3 3.65625 -3 3.53125 -3 L 2.890625 -3 C 3.046875 -3.890625 3.09375 -4.203125 3.15625 -4.40625 C 3.1875 -4.5625 3.34375 -4.703125 3.515625 -4.703125 C 3.515625 -4.703125 3.703125 -4.703125 3.84375 -4.625 C 3.546875 -4.53125 3.53125 -4.28125 3.53125 -4.25 C 3.53125 -4.09375 3.65625 -3.984375 3.8125 -3.984375 C 4 -3.984375 4.203125 -4.140625 4.203125 -4.40625 C 4.203125 -4.734375 3.875 -4.90625 3.515625 -4.90625 C 3.203125 -4.90625 2.859375 -4.734375 2.671875 -4.390625 C 2.53125 -4.125 2.484375 -3.8125 2.328125 -3 L 1.78125 -3 C 1.640625 -3 1.546875 -3 1.546875 -2.84375 C 1.546875 -2.75 1.640625 -2.75 1.765625 -2.75 L 2.28125 -2.75 C 2.28125 -2.703125 1.84375 -0.203125 1.671875 0.546875 C 1.640625 0.703125 1.515625 1.21875 1.1875 1.21875 C 1.171875 1.21875 1.015625 1.21875 0.875 1.140625 C 1.15625 1.046875 1.1875 0.796875 1.1875 0.765625 C 1.1875 0.609375 1.0625 0.5 0.90625 0.5 C 0.71875 0.5 0.515625 0.65625 0.515625 0.921875 C 0.515625 1.234375 0.84375 1.421875 1.1875 1.421875 C 1.625 1.421875 1.9375 0.96875 2.015625 0.8125 C 2.265625 0.34375 2.4375 -0.515625 2.453125 -0.59375 Z M 2.84375 -2.75 "
           id="path472" />
      </symbol>
      <symbol
         overflow="visible"
         id="symbol979">
        <path
           style="stroke:none;"
           d="M 2.1875 -4.625 C 2.1875 -4.640625 2.203125 -4.734375 2.203125 -4.734375 C 2.203125 -4.78125 2.1875 -4.84375 2.09375 -4.84375 C 1.953125 -4.84375 1.375 -4.78125 1.203125 -4.765625 C 1.15625 -4.765625 1.046875 -4.75 1.046875 -4.609375 C 1.046875 -4.515625 1.15625 -4.515625 1.234375 -4.515625 C 1.5625 -4.515625 1.5625 -4.453125 1.5625 -4.40625 C 1.5625 -4.359375 1.546875 -4.3125 1.546875 -4.25 L 0.5625 -0.3125 C 0.515625 -0.1875 0.515625 -0.171875 0.515625 -0.15625 C 0.515625 -0.046875 0.609375 0.0625 0.765625 0.0625 C 0.84375 0.0625 0.96875 0.03125 1.046875 -0.109375 C 1.0625 -0.15625 1.125 -0.40625 1.15625 -0.546875 L 1.328125 -1.171875 C 1.34375 -1.28125 1.421875 -1.546875 1.4375 -1.640625 C 1.5 -1.90625 1.5 -1.921875 1.640625 -2.140625 C 1.875 -2.484375 2.21875 -2.875 2.765625 -2.875 C 3.15625 -2.875 3.171875 -2.5625 3.171875 -2.390625 C 3.171875 -1.96875 2.875 -1.203125 2.765625 -0.90625 C 2.6875 -0.703125 2.65625 -0.640625 2.65625 -0.53125 C 2.65625 -0.15625 2.96875 0.0625 3.3125 0.0625 C 4.015625 0.0625 4.328125 -0.890625 4.328125 -1 C 4.328125 -1.09375 4.234375 -1.09375 4.203125 -1.09375 C 4.109375 -1.09375 4.109375 -1.046875 4.078125 -0.96875 C 3.921875 -0.40625 3.609375 -0.125 3.34375 -0.125 C 3.1875 -0.125 3.15625 -0.21875 3.15625 -0.375 C 3.15625 -0.53125 3.203125 -0.625 3.328125 -0.9375 C 3.40625 -1.15625 3.6875 -1.890625 3.6875 -2.28125 C 3.6875 -2.390625 3.6875 -2.6875 3.4375 -2.890625 C 3.3125 -2.96875 3.109375 -3.078125 2.78125 -3.078125 C 2.28125 -3.078125 1.90625 -2.796875 1.65625 -2.5 Z M 2.1875 -4.625 "
           id="path1223" />
      </symbol>
      <symbol
         overflow="visible"
         id="symbol1752">
        <path
           style="stroke:none;"
           d=""
           id="path757" />
      </symbol>
      <symbol
         overflow="visible"
         id="symbol6058">
        <path
           style="stroke:none;"
           d="M 2.9375 -0.96875 L 2.71875 -0.96875 C 2.71875 -0.875 2.65625 -0.5625 2.578125 -0.515625 C 2.546875 -0.484375 2.125 -0.484375 2.046875 -0.484375 L 1.078125 -0.484375 C 1.40625 -0.71875 1.765625 -1 2.0625 -1.203125 C 2.515625 -1.515625 2.9375 -1.796875 2.9375 -2.328125 C 2.9375 -2.96875 2.328125 -3.3125 1.625 -3.3125 C 0.953125 -3.3125 0.453125 -2.9375 0.453125 -2.4375 C 0.453125 -2.1875 0.671875 -2.140625 0.75 -2.140625 C 0.875 -2.140625 1.03125 -2.234375 1.03125 -2.4375 C 1.03125 -2.609375 0.90625 -2.71875 0.75 -2.71875 C 0.890625 -2.953125 1.1875 -3.09375 1.515625 -3.09375 C 2 -3.09375 2.40625 -2.8125 2.40625 -2.328125 C 2.40625 -1.90625 2.109375 -1.578125 1.734375 -1.265625 L 0.515625 -0.234375 C 0.46875 -0.1875 0.453125 -0.1875 0.453125 -0.15625 L 0.453125 0 L 2.765625 0 Z M 2.9375 -0.96875 "
           id="path329" />
      </symbol>
      <symbol
         overflow="visible"
         id="symbol3076">
        <path
           style="stroke:none;"
           d="M 1.984375 -3.171875 C 1.984375 -3.3125 1.96875 -3.3125 1.796875 -3.3125 C 1.453125 -3 0.890625 -3 0.796875 -3 L 0.71875 -3 L 0.71875 -2.78125 L 0.796875 -2.78125 C 0.90625 -2.78125 1.234375 -2.796875 1.53125 -2.921875 L 1.53125 -0.421875 C 1.53125 -0.28125 1.53125 -0.21875 1 -0.21875 L 0.75 -0.21875 L 0.75 0 C 1.015625 -0.015625 1.46875 -0.015625 1.75 -0.015625 C 2.046875 -0.015625 2.484375 -0.015625 2.765625 0 L 2.765625 -0.21875 L 2.515625 -0.21875 C 1.984375 -0.21875 1.984375 -0.28125 1.984375 -0.421875 Z M 1.984375 -3.171875 "
           id="path7576" />
      </symbol>
      <symbol
         overflow="visible"
         id="symbol6896">
        <path
           style="stroke:none;"
           d=""
           id="path7861" />
      </symbol>
      <symbol
         overflow="visible"
         id="symbol1505">
        <path
           style="stroke:none;"
           d="M 3.328125 -3.015625 C 3.390625 -3.265625 3.625 -4.1875 4.3125 -4.1875 C 4.359375 -4.1875 4.609375 -4.1875 4.8125 -4.0625 C 4.53125 -4 4.34375 -3.765625 4.34375 -3.515625 C 4.34375 -3.359375 4.453125 -3.171875 4.71875 -3.171875 C 4.9375 -3.171875 5.25 -3.34375 5.25 -3.75 C 5.25 -4.265625 4.671875 -4.40625 4.328125 -4.40625 C 3.75 -4.40625 3.40625 -3.875 3.28125 -3.65625 C 3.03125 -4.3125 2.5 -4.40625 2.203125 -4.40625 C 1.171875 -4.40625 0.59375 -3.125 0.59375 -2.875 C 0.59375 -2.765625 0.703125 -2.765625 0.71875 -2.765625 C 0.796875 -2.765625 0.828125 -2.796875 0.84375 -2.875 C 1.1875 -3.9375 1.84375 -4.1875 2.1875 -4.1875 C 2.375 -4.1875 2.71875 -4.09375 2.71875 -3.515625 C 2.71875 -3.203125 2.546875 -2.546875 2.1875 -1.140625 C 2.03125 -0.53125 1.671875 -0.109375 1.234375 -0.109375 C 1.171875 -0.109375 0.953125 -0.109375 0.734375 -0.234375 C 0.984375 -0.296875 1.203125 -0.5 1.203125 -0.78125 C 1.203125 -1.046875 0.984375 -1.125 0.84375 -1.125 C 0.53125 -1.125 0.296875 -0.875 0.296875 -0.546875 C 0.296875 -0.09375 0.78125 0.109375 1.21875 0.109375 C 1.890625 0.109375 2.25 -0.59375 2.265625 -0.640625 C 2.390625 -0.28125 2.75 0.109375 3.34375 0.109375 C 4.375 0.109375 4.9375 -1.171875 4.9375 -1.421875 C 4.9375 -1.53125 4.859375 -1.53125 4.828125 -1.53125 C 4.734375 -1.53125 4.71875 -1.484375 4.6875 -1.421875 C 4.359375 -0.34375 3.6875 -0.109375 3.375 -0.109375 C 2.984375 -0.109375 2.828125 -0.421875 2.828125 -0.765625 C 2.828125 -0.984375 2.875 -1.203125 2.984375 -1.640625 Z M 3.328125 -3.015625 "
           id="path3193" />
      </symbol>
    </g>
    <marker
       style="overflow:visible"
       id="marker12914-1"
       refX="0"
       refY="0"
       orient="auto"
       inkscape:stockid="Arrow1Mend"
       inkscape:isstock="true">
      <path
         transform="matrix(-0.4,0,0,-0.4,-4,0)"
         style="fill:context-stroke;fill-rule:evenodd;stroke:context-stroke;stroke-width:1pt"
         d="M 0,0 5,-5 -12.5,0 5,5 Z"
         id="path12912-4" />
    </marker>
    <marker
       style="overflow:visible"
       id="Arrow1Mend-2"
       refX="0"
       refY="0"
       orient="auto"
       inkscape:stockid="Arrow1Mend"
       inkscape:isstock="true">
      <path
         transform="matrix(-0.4,0,0,-0.4,-4,0)"
         style="fill:context-stroke;fill-rule:evenodd;stroke:context-stroke;stroke-width:1pt"
         d="M 0,0 5,-5 -12.5,0 5,5 Z"
         id="path868-7" />
    </marker>
    <marker
       style="overflow:visible"
       id="Arrow1Mend-2-5"
       refX="0"
       refY="0"
       orient="auto"
       inkscape:stockid="Arrow1Mend"
       inkscape:isstock="true">
      <path
         transform="matrix(-0.4,0,0,-0.4,-4,0)"
         style="fill:context-stroke;fill-rule:evenodd;stroke:context-stroke;stroke-width:1pt"
         d="M 0,0 5,-5 -12.5,0 5,5 Z"
         id="path868-7-1" />
    </marker>
  </defs>
  <g
     inkscape:label="Layer 1"
     inkscape:groupmode="layer"
     id="layer1">
    <path
       style="fill:none;stroke:#000000;stroke-width:0.690292;stroke-linecap:butt;stroke-linejoin:miter;stroke-miterlimit:4;stroke-dasharray:none;stroke-opacity:1;marker-end:url(#Arrow1Mend)"
       d="M 7.0996018,196.15225 H 274.86252"
       id="path857" />
    <path
       style="fill:none;stroke:#000000;stroke-width:0.690292;stroke-linecap:butt;stroke-linejoin:miter;stroke-miterlimit:4;stroke-dasharray:none;stroke-opacity:1;marker-end:url(#Arrow1Mend-5)"
       d="M 14.059795,203.52187 13.650387,13.139997"
       id="path857-4"
       sodipodi:nodetypes="cc" />
    <ellipse
       style="fill:#ef2929;fill-opacity:0.429907;stroke-width:0.646991;stroke-linecap:round;stroke-linejoin:round;stroke-miterlimit:4;stroke-dasharray:none;stroke-opacity:0.848138"
       id="path1408"
       cx="210.97626"
       cy="119.58169"
       rx="73.486244"
       ry="74.637474" />
    <ellipse
       style="fill:#ef2929;fill-opacity:0.429907;stroke-width:0.646991;stroke-linecap:round;stroke-linejoin:round;stroke-miterlimit:4;stroke-dasharray:none;stroke-opacity:0.848138"
       id="path1408-9"
       cx="127.4642"
       cy="32.201694"
       rx="73.486244"
       ry="74.637474" />
    <text
       xml:space="preserve"
       style="font-style:normal;font-weight:normal;font-size:10.5833px;line-height:1.25;font-family:sans-serif;fill:#a40000;fill-opacity:1;stroke:none;stroke-width:0.264583"
       x="175.30211"
       y="172.53564"
       id="text2592"><tspan
         sodipodi:role="line"
         id="tspan2590"
         style="font-style:normal;font-variant:normal;font-weight:normal;font-stretch:normal;font-family:'Times New Roman';-inkscape-font-specification:'Times New Roman, ';fill:#a40000;stroke-width:0.264583"
         x="175.30211"
         y="172.53564">infeasible region</tspan></text>
    <text
       xml:space="preserve"
       style="font-style:normal;font-weight:normal;font-size:10.5833px;line-height:1.25;font-family:sans-serif;fill:#a40000;fill-opacity:1;stroke:none;stroke-width:0.264583"
       x="69.644295"
       y="30.890141"
       id="text2592-6"><tspan
         sodipodi:role="line"
         id="tspan2590-0"
         style="font-style:normal;font-variant:normal;font-weight:normal;font-stretch:normal;font-family:'Times New Roman';-inkscape-font-specification:'Times New Roman, ';fill:#a40000;stroke-width:0.264583"
         x="69.644295"
         y="30.890141">infeasible region</tspan></text>
    <path
       style="fill:none;stroke:#000000;stroke-width:1.365;stroke-linecap:butt;stroke-linejoin:miter;stroke-miterlimit:4;stroke-dasharray:none;stroke-opacity:1"
       d="m 17.979246,153.8738 c 48.908366,-17.749 119.221924,-27.97885 119.221924,-27.97885 0,0 -0.92159,-8.68678 1.23475,-19.39644 -15.95076,0.99498 -36.30449,2.4498 -60.461111,-18.086554 C 54.060255,68.081389 54.253196,30.528299 54.253196,30.528299"
       id="path6223"
       sodipodi:nodetypes="cccsc" />
    <text
       xml:space="preserve"
       style="font-style:normal;font-variant:normal;font-weight:normal;font-stretch:normal;font-size:10.5833px;line-height:1.25;font-family:'Times New Roman';-inkscape-font-specification:'Times New Roman, ';fill:#000000;fill-opacity:1;stroke:none;stroke-width:0.264583"
       x="21.761499"
       y="132.32626"
       id="text8875"><tspan
         sodipodi:role="line"
         id="tspan8873"
         style="font-style:normal;font-variant:normal;font-weight:normal;font-stretch:normal;font-family:'Times New Roman';-inkscape-font-specification:'Times New Roman, ';stroke-width:0.264583"
         x="21.761499"
         y="132.32626">exact sol</tspan></text>
    <path
       style="fill:#f57900;stroke:#3465a4;stroke-width:0.96499997;stroke-linecap:butt;stroke-linejoin:miter;stroke-miterlimit:4;stroke-dasharray:0.96499997,0.96499997;stroke-dashoffset:0;stroke-opacity:1"
       d="M 17.979246,153.8738 C 196.90985,121.44932 196.90985,121.44932 196.90985,121.44932"
       id="path11886" />
    <g
       inkscape:label=""
       transform="matrix(0.81692456,0,0,0.81692456,125.82341,61.362116)"
       id="g12141"
       style="fill:#173663;fill-opacity:1">
      <g
         id="g982"
         style="fill:#173663;fill-opacity:1">
        <g
           style="fill:#173663;fill-opacity:1"
           id="g1907">
          <use
             xlink:href="#symbol5701"
             x="91.925003"
             y="81.962997"
             id="use3988"
             width="100%"
             height="100%"
             style="fill:#173663;fill-opacity:1" />
        </g>
        <g
           style="fill:#173663;fill-opacity:1"
           id="g9401">
          <use
             xlink:href="#symbol1430"
             x="99.121002"
             y="77.175003"
             id="use3592"
             width="100%"
             height="100%"
             style="fill:#173663;fill-opacity:1" />
        </g>
        <g
           style="fill:#173663;fill-opacity:1"
           id="g9041">
          <use
             xlink:href="#symbol5818"
             x="99.121002"
             y="84.968002"
             id="use1027"
             width="100%"
             height="100%"
             style="fill:#173663;fill-opacity:1" />
        </g>
        <g
           style="fill:#173663;fill-opacity:1"
           id="g2235">
          <use
             xlink:href="#symbol8461"
             x="104.285"
             y="81.962997"
             id="use8706"
             width="100%"
             height="100%"
             style="fill:#173663;fill-opacity:1" />
        </g>
        <g
           style="fill:#173663;fill-opacity:1"
           id="g2251">
          <use
             xlink:href="#symbol5685"
             x="108.16"
             y="81.962997"
             id="use7084"
             width="100%"
             height="100%"
             style="fill:#173663;fill-opacity:1" />
        </g>
        <g
           style="fill:#173663;fill-opacity:1"
           id="g6643">
          <use
             xlink:href="#symbol1282"
             x="113.854"
             y="81.962997"
             id="use8661"
             width="100%"
             height="100%"
             style="fill:#173663;fill-opacity:1" />
        </g>
      </g>
    </g>
    <g
       inkscape:label=""
       transform="matrix(0.89132509,0,0,0.89132509,17.941301,-12.478996)"
       id="g12362"
       style="fill:#1a3b6b;fill-opacity:1">
      <g
         id="g4101"
         style="fill:#1a3b6b;fill-opacity:1">
        <g
           style="fill:#1a3b6b;fill-opacity:1"
           id="g7283">
          <use
             xlink:href="#symbol2862"
             x="91.925003"
             y="81.962997"
             id="use3485"
             width="100%"
             height="100%"
             style="fill:#1a3b6b;fill-opacity:1" />
          <use
             xlink:href="#symbol6448"
             x="97.46022"
             y="81.962997"
             id="use9856"
             width="100%"
             height="100%"
             style="fill:#1a3b6b;fill-opacity:1" />
          <use
             xlink:href="#symbol5896"
             x="101.36257"
             y="81.962997"
             id="use3741"
             width="100%"
             height="100%"
             style="fill:#1a3b6b;fill-opacity:1" />
        </g>
        <g
           style="fill:#1a3b6b;fill-opacity:1"
           id="g2706">
          <use
             xlink:href="#symbol6876"
             x="106.06492"
             y="81.962997"
             id="use4759"
             width="100%"
             height="100%"
             style="fill:#1a3b6b;fill-opacity:1" />
        </g>
        <g
           style="fill:#1a3b6b;fill-opacity:1"
           id="g3395">
          <use
             xlink:href="#symbol2326"
             x="111.325"
             y="78.348"
             id="use7621"
             width="100%"
             height="100%"
             style="fill:#1a3b6b;fill-opacity:1" />
        </g>
        <g
           style="fill:#1a3b6b;fill-opacity:1"
           id="g9330">
          <use
             xlink:href="#symbol9341"
             x="115.212"
             y="79.344002"
             id="use5268"
             width="100%"
             height="100%"
             style="fill:#1a3b6b;fill-opacity:1" />
        </g>
        <g
           style="fill:#1a3b6b;fill-opacity:1"
           id="g1215">
          <use
             xlink:href="#symbol5141"
             x="119.598"
             y="81.962997"
             id="use8598"
             width="100%"
             height="100%"
             style="fill:#1a3b6b;fill-opacity:1" />
          <use
             xlink:href="#symbol7247"
             x="123.47246"
             y="81.962997"
             id="use9848"
             width="100%"
             height="100%"
             style="fill:#1a3b6b;fill-opacity:1" />
        </g>
        <g
           style="fill:#1a3b6b;fill-opacity:1"
           id="g7319">
          <use
             xlink:href="#symbol8371"
             x="130.668"
             y="77.175003"
             id="use5258"
             width="100%"
             height="100%"
             style="fill:#1a3b6b;fill-opacity:1" />
        </g>
        <g
           style="fill:#1a3b6b;fill-opacity:1"
           id="g5542">
          <use
             xlink:href="#symbol5577"
             x="130.668"
             y="84.968002"
             id="use1637"
             width="100%"
             height="100%"
             style="fill:#1a3b6b;fill-opacity:1" />
        </g>
        <g
           style="fill:#1a3b6b;fill-opacity:1"
           id="g1091">
          <use
             xlink:href="#symbol5141"
             x="135.832"
             y="81.962997"
             id="use2829"
             width="100%"
             height="100%"
             style="fill:#1a3b6b;fill-opacity:1" />
        </g>
        <g
           style="fill:#1a3b6b;fill-opacity:1"
           id="g9123">
          <use
             xlink:href="#symbol5171"
             x="139.707"
             y="81.962997"
             id="use5674"
             width="100%"
             height="100%"
             style="fill:#1a3b6b;fill-opacity:1" />
        </g>
        <g
           style="fill:#1a3b6b;fill-opacity:1"
           id="g8089">
          <use
             xlink:href="#symbol3395"
             x="145.401"
             y="81.962997"
             id="use120"
             width="100%"
             height="100%"
             style="fill:#1a3b6b;fill-opacity:1" />
          <use
             xlink:href="#symbol3395"
             x="149.27545"
             y="81.962997"
             id="use777"
             width="100%"
             height="100%"
             style="fill:#1a3b6b;fill-opacity:1" />
        </g>
      </g>
    </g>
    <path
       style="fill:#729fcf;stroke:#729fcf;stroke-width:1.465;stroke-linecap:butt;stroke-linejoin:miter;stroke-opacity:1;stroke-miterlimit:4;stroke-dasharray:none;marker-end:url(#Arrow1Mend)"
       d="M 17.979246,153.8738 185.14785,78.865859"
       id="path15900"
       sodipodi:nodetypes="cc" />
    <path
       style="fill:#729fcf;stroke:#729fcf;stroke-width:0.665;stroke-linecap:butt;stroke-linejoin:miter;stroke-miterlimit:4;stroke-dasharray:none;stroke-opacity:1;marker-end:url(#marker12914)"
       d="M 185.14785,78.865859 198.36054,51.235884"
       id="path15900-7"
       sodipodi:nodetypes="cc" />
    <path
       style="fill:#729fcf;stroke:#729fcf;stroke-width:0.665;stroke-linecap:butt;stroke-linejoin:miter;stroke-miterlimit:4;stroke-dasharray:none;stroke-opacity:1;marker-end:url(#marker12914)"
       d="m 198.36054,51.235884 1.83956,-6.489682"
       id="path15900-7-2"
       sodipodi:nodetypes="cc" />
    <g
       inkscape:label=""
       transform="matrix(0.89238342,0,0,0.89238342,104.07363,15.537362)"
       id="g12741"
       style="fill:#142e53;fill-opacity:1">
      <g
         id="g7453"
         style="fill:#142e53;fill-opacity:1">
        <g
           style="fill:#142e53;fill-opacity:1"
           id="g1233">
          <use
             xlink:href="#symbol4718"
             x="91.925003"
             y="81.962997"
             id="use5075"
             width="100%"
             height="100%"
             style="fill:#142e53;fill-opacity:1" />
          <use
             xlink:href="#symbol4625"
             x="97.46022"
             y="81.962997"
             id="use4914"
             width="100%"
             height="100%"
             style="fill:#142e53;fill-opacity:1" />
          <use
             xlink:href="#symbol6551"
             x="101.36257"
             y="81.962997"
             id="use1408"
             width="100%"
             height="100%"
             style="fill:#142e53;fill-opacity:1" />
        </g>
        <g
           style="fill:#142e53;fill-opacity:1"
           id="g1619">
          <use
             xlink:href="#symbol6188"
             x="106.06492"
             y="81.962997"
             id="use8100"
             width="100%"
             height="100%"
             style="fill:#142e53;fill-opacity:1" />
        </g>
        <g
           style="fill:#142e53;fill-opacity:1"
           id="g6201">
          <use
             xlink:href="#symbol3474"
             x="111.325"
             y="78.348"
             id="use1436"
             width="100%"
             height="100%"
             style="fill:#142e53;fill-opacity:1" />
        </g>
        <g
           style="fill:#142e53;fill-opacity:1"
           id="g3514">
          <use
             xlink:href="#symbol6058"
             x="115.212"
             y="79.344002"
             id="use1030"
             width="100%"
             height="100%"
             style="fill:#142e53;fill-opacity:1" />
        </g>
        <g
           style="fill:#142e53;fill-opacity:1"
           id="g7779">
          <use
             xlink:href="#symbol2428"
             x="119.598"
             y="81.962997"
             id="use89"
             width="100%"
             height="100%"
             style="fill:#142e53;fill-opacity:1" />
          <use
             xlink:href="#symbol4718"
             x="123.47246"
             y="81.962997"
             id="use4933"
             width="100%"
             height="100%"
             style="fill:#142e53;fill-opacity:1" />
          <use
             xlink:href="#symbol4625"
             x="129.00768"
             y="81.962997"
             id="use1288"
             width="100%"
             height="100%"
             style="fill:#142e53;fill-opacity:1" />
          <use
             xlink:href="#symbol6551"
             x="132.91002"
             y="81.962997"
             id="use9293"
             width="100%"
             height="100%"
             style="fill:#142e53;fill-opacity:1" />
        </g>
        <g
           style="fill:#142e53;fill-opacity:1"
           id="g2396">
          <use
             xlink:href="#symbol6188"
             x="137.61237"
             y="81.962997"
             id="use7786"
             width="100%"
             height="100%"
             style="fill:#142e53;fill-opacity:1" />
        </g>
        <g
           style="fill:#142e53;fill-opacity:1"
           id="g4552">
          <use
             xlink:href="#symbol3474"
             x="142.87199"
             y="78.348"
             id="use6155"
             width="100%"
             height="100%"
             style="fill:#142e53;fill-opacity:1" />
        </g>
        <g
           style="fill:#142e53;fill-opacity:1"
           id="g7433">
          <use
             xlink:href="#symbol3076"
             x="146.759"
             y="79.344002"
             id="use6174"
             width="100%"
             height="100%"
             style="fill:#142e53;fill-opacity:1" />
        </g>
        <g
           style="fill:#142e53;fill-opacity:1"
           id="g153">
          <use
             xlink:href="#symbol2428"
             x="151.145"
             y="81.962997"
             id="use1736"
             width="100%"
             height="100%"
             style="fill:#142e53;fill-opacity:1" />
          <use
             xlink:href="#symbol6003"
             x="155.01945"
             y="81.962997"
             id="use7796"
             width="100%"
             height="100%"
             style="fill:#142e53;fill-opacity:1" />
        </g>
        <g
           style="fill:#142e53;fill-opacity:1"
           id="g7198">
          <use
             xlink:href="#symbol8403"
             x="162.215"
             y="77.175003"
             id="use1519"
             width="100%"
             height="100%"
             style="fill:#142e53;fill-opacity:1" />
        </g>
        <g
           style="fill:#142e53;fill-opacity:1"
           id="g2941">
          <use
             xlink:href="#symbol979"
             x="162.215"
             y="84.968002"
             id="use2137"
             width="100%"
             height="100%"
             style="fill:#142e53;fill-opacity:1" />
        </g>
        <g
           style="fill:#142e53;fill-opacity:1"
           id="g9930">
          <use
             xlink:href="#symbol2428"
             x="167.379"
             y="81.962997"
             id="use8184"
             width="100%"
             height="100%"
             style="fill:#142e53;fill-opacity:1" />
        </g>
        <g
           style="fill:#142e53;fill-opacity:1"
           id="g9314">
          <use
             xlink:href="#symbol1505"
             x="171.254"
             y="81.962997"
             id="use4359"
             width="100%"
             height="100%"
             style="fill:#142e53;fill-opacity:1" />
        </g>
        <g
           style="fill:#142e53;fill-opacity:1"
           id="g8892">
          <use
             xlink:href="#symbol1234"
             x="176.948"
             y="81.962997"
             id="use8691"
             width="100%"
             height="100%"
             style="fill:#142e53;fill-opacity:1" />
          <use
             xlink:href="#symbol1234"
             x="180.82245"
             y="81.962997"
             id="use7681"
             width="100%"
             height="100%"
             style="fill:#142e53;fill-opacity:1" />
          <use
             xlink:href="#symbol1234"
             x="184.69691"
             y="81.962997"
             id="use8337"
             width="100%"
             height="100%"
             style="fill:#142e53;fill-opacity:1" />
        </g>
      </g>
    </g>
    <path
       style="fill:none;stroke:#3465a4;stroke-width:0.665;stroke-linecap:butt;stroke-linejoin:miter;stroke-miterlimit:4;stroke-dasharray:0.665, 1.995;stroke-dashoffset:0;stroke-opacity:1;marker-end:url(#marker12914)"
       d="M 196.90985,121.44932 162.55075,63.918036"
       id="path12869"
       sodipodi:nodetypes="cc" />
    <path
       style="fill:none;stroke:#3465a4;stroke-width:0.665;stroke-linecap:butt;stroke-linejoin:miter;stroke-miterlimit:4;stroke-dasharray:0.665, 1.995;stroke-dashoffset:0;stroke-opacity:1;marker-end:url(#marker12914-1)"
       d="m 162.55075,63.918036 22.5971,14.947824"
       id="path12869-7"
       sodipodi:nodetypes="cc" />
  </g>
</svg>
