<?xml version="1.0" encoding="UTF-8" standalone="no"?>
<!-- Created with Inkscape (http://www.inkscape.org/) -->

<svg
   xmlns:dc="http://purl.org/dc/elements/1.1/"
   xmlns:cc="http://creativecommons.org/ns#"
   xmlns:rdf="http://www.w3.org/1999/02/22-rdf-syntax-ns#"
   xmlns:svg="http://www.w3.org/2000/svg"
   xmlns="http://www.w3.org/2000/svg"
   xmlns:sodipodi="http://sodipodi.sourceforge.net/DTD/sodipodi-0.dtd"
   xmlns:inkscape="http://www.inkscape.org/namespaces/inkscape"
   width="297mm"
   height="210mm"
   viewBox="0 0 1052.3622 744.09448"
   id="svg2"
   version="1.1"
   inkscape:version="0.91 r13725"
   sodipodi:docname="drawing.svg">
  <defs
     id="defs4" />
  <sodipodi:namedview
     id="base"
     pagecolor="#ffffff"
     bordercolor="#666666"
     borderopacity="1.0"
     inkscape:pageopacity="0.0"
     inkscape:pageshadow="2"
     inkscape:zoom="0.7"
     inkscape:cx="247.61889"
     inkscape:cy="375.42944"
     inkscape:document-units="px"
     inkscape:current-layer="layer1"
     showgrid="false"
     inkscape:window-width="1920"
     inkscape:window-height="1017"
     inkscape:window-x="0"
     inkscape:window-y="0"
     inkscape:window-maximized="1">
    <inkscape:grid
       type="xygrid"
       id="grid8100" />
  </sodipodi:namedview>
  <metadata
     id="metadata7">
    <rdf:RDF>
      <cc:Work
         rdf:about="">
        <dc:format>image/svg+xml</dc:format>
        <dc:type
           rdf:resource="http://purl.org/dc/dcmitype/StillImage" />
        <dc:title></dc:title>
      </cc:Work>
    </rdf:RDF>
  </metadata>
  <g
     inkscape:label="Layer 1"
     inkscape:groupmode="layer"
     id="layer1"
     transform="translate(0,-308.26772)">
    <g
       id="g8072"
       transform="translate(-41.428571,-32.857142)">
      <circle
         r="73.571426"
         cy="650.21936"
         cx="152.14285"
         id="path8068"
         style="opacity:0.38900003;fill:#4e9a06;fill-opacity:1;stroke:#888a85;stroke-width:1;stroke-linecap:butt;stroke-linejoin:round;stroke-miterlimit:4;stroke-dasharray:3, 1;stroke-dashoffset:0" />
      <circle
         r="31.428572"
         cy="649.50513"
         cx="152.85715"
         id="path8070"
         style="opacity:0.38900003;fill:#4e9a06;fill-opacity:1;stroke:#888a85;stroke-width:1;stroke-linecap:butt;stroke-linejoin:round;stroke-miterlimit:4;stroke-dasharray:3, 1;stroke-dashoffset:0" />
    </g>
    <g
       id="g8076"
       transform="translate(58.571429,-92.857141)">
      <circle
         style="opacity:0.38900003;fill:#4e9a06;fill-opacity:1;stroke:#888a85;stroke-width:1;stroke-linecap:butt;stroke-linejoin:round;stroke-miterlimit:4;stroke-dasharray:3, 1;stroke-dashoffset:0"
         id="circle8078"
         cx="152.14285"
         cy="650.21936"
         r="73.571426" />
      <circle
         style="opacity:0.38900003;fill:#4e9a06;fill-opacity:1;stroke:#888a85;stroke-width:1;stroke-linecap:butt;stroke-linejoin:round;stroke-miterlimit:4;stroke-dasharray:3, 1;stroke-dashoffset:0"
         id="circle8080"
         cx="152.85715"
         cy="649.50513"
         r="31.428572" />
    </g>
    <g
       transform="translate(645.71429,-42.857142)"
       id="g8082">
      <circle
         r="73.571426"
         cy="650.21936"
         cx="152.14285"
         id="circle8084"
         style="opacity:0.38900003;fill:#4e9a06;fill-opacity:1;stroke:#888a85;stroke-width:1;stroke-linecap:butt;stroke-linejoin:round;stroke-miterlimit:4;stroke-dasharray:3, 1;stroke-dashoffset:0" />
      <circle
         r="31.428572"
         cy="649.50513"
         cx="152.85715"
         id="circle8086"
         style="opacity:0.38900003;fill:#4e9a06;fill-opacity:1;stroke:#888a85;stroke-width:1;stroke-linecap:butt;stroke-linejoin:round;stroke-miterlimit:4;stroke-dasharray:3, 1;stroke-dashoffset:0" />
    </g>
    <g
       id="g8088"
       transform="translate(715.71429,147.14286)">
      <circle
         style="opacity:0.38900003;fill:#4e9a06;fill-opacity:1;stroke:#888a85;stroke-width:1;stroke-linecap:butt;stroke-linejoin:round;stroke-miterlimit:4;stroke-dasharray:3, 1;stroke-dashoffset:0"
         id="circle8090"
         cx="152.14285"
         cy="650.21936"
         r="73.571426" />
      <circle
         style="opacity:0.38900003;fill:#4e9a06;fill-opacity:1;stroke:#888a85;stroke-width:1;stroke-linecap:butt;stroke-linejoin:round;stroke-miterlimit:4;stroke-dasharray:3, 1;stroke-dashoffset:0"
         id="circle8092"
         cx="152.85715"
         cy="649.50513"
         r="31.428572" />
    </g>
    <g
       transform="translate(820,-11.428571)"
       id="g8094">
      <circle
         r="73.571426"
         cy="650.21936"
         cx="152.14285"
         id="circle8096"
         style="opacity:0.38900003;fill:#4e9a06;fill-opacity:1;stroke:#888a85;stroke-width:1;stroke-linecap:butt;stroke-linejoin:round;stroke-miterlimit:4;stroke-dasharray:3, 1;stroke-dashoffset:0" />
      <circle
         r="31.428572"
         cy="649.50513"
         cx="152.85715"
         id="circle8098"
         style="opacity:0.38900003;fill:#4e9a06;fill-opacity:1;stroke:#888a85;stroke-width:1;stroke-linecap:butt;stroke-linejoin:round;stroke-miterlimit:4;stroke-dasharray:3, 1;stroke-dashoffset:0" />
    </g>
    <path
       style="fill:none;fill-rule:evenodd;stroke:#000000;stroke-width:2.83241773px;stroke-linecap:butt;stroke-linejoin:miter;stroke-opacity:0.44089457"
       d="m -0.36044108,222.25303 28.32417708,0 14.162089,56.64836 28.324177,-113.29671 28.324178,113.29671 28.32418,-113.29671 28.32417,113.29671 28.32418,-113.29671 28.32418,113.29671 28.32418,-113.29671 14.16208,56.64835 28.32418,0"
       id="path8102"
       inkscape:connector-curvature="0" />
    <path
       inkscape:connector-curvature="0"
       id="path8104"
       d="m 126.28705,544.55495 6.42673,-18.09982 58.45452,-0.62701 L 87.112749,490.88249 204.02177,489.62848 99.966229,454.68284 216.87524,453.42885 112.81969,418.48321 l 116.90903,-1.254 -104.05556,-34.94565 58.45451,-0.62699 6.42674,-18.09982"
       style="fill:none;fill-rule:evenodd;stroke:#000000;stroke-width:2.29563355px;stroke-linecap:butt;stroke-linejoin:miter;stroke-opacity:0.50196078" />
    <path
       style="fill:none;fill-rule:evenodd;stroke:#000000;stroke-width:2.29563355px;stroke-linecap:butt;stroke-linejoin:miter;stroke-opacity:0.50196078"
       d="m 948.90691,568.15786 -2.67342,-19.01996 51.53645,-27.592 -108.41972,17.14403 103.07289,-55.18397 -108.41972,17.14402 103.07289,-55.18395 -108.41973,17.14402 103.07291,-55.18396 -108.41975,17.14402 51.53646,-27.59198 -2.67342,-19.01997"
       id="path8106"
       inkscape:connector-curvature="0" />
    <path
       inkscape:connector-curvature="0"
       id="path8108"
       d="m 796.01106,386.32364 5.6213,33.90016 -52.67763,30.68727 116.59786,6.4258 -105.35525,61.37453 116.59787,6.42581 -105.35526,61.37452 116.59786,6.4258 -105.35525,61.37453 116.59787,6.4258 -52.67763,30.68726 5.6213,33.90017"
       style="fill:none;fill-rule:evenodd;stroke:#000000;stroke-width:3.12912345px;stroke-linecap:butt;stroke-linejoin:miter;stroke-opacity:0.50196078" />
    <g
       transform="translate(351.42857,237.14285)"
       id="g8110">
      <circle
         r="73.571426"
         cy="650.21936"
         cx="152.14285"
         id="circle8112"
         style="opacity:0.38900003;fill:#a40000;fill-opacity:1;stroke:#888a85;stroke-width:1;stroke-linecap:butt;stroke-linejoin:round;stroke-miterlimit:4;stroke-dasharray:3, 1;stroke-dashoffset:0" />
      <circle
         r="31.428572"
         cy="649.50513"
         cx="152.85715"
         id="circle8114"
         style="opacity:0.38900003;fill:#cc0000;fill-opacity:1;stroke:#888a85;stroke-width:1;stroke-linecap:butt;stroke-linejoin:round;stroke-miterlimit:4;stroke-dasharray:3, 1;stroke-dashoffset:0" />
    </g>
    <g
       id="g8116"
       transform="translate(94.28571,244.28571)">
      <circle
         style="opacity:0.38900003;fill:#a40000;fill-opacity:1;stroke:#888a85;stroke-width:1;stroke-linecap:butt;stroke-linejoin:round;stroke-miterlimit:4;stroke-dasharray:3, 1;stroke-dashoffset:0"
         id="circle8118"
         cx="152.14285"
         cy="650.21936"
         r="73.571426" />
      <circle
         style="opacity:0.38900003;fill:#cc0000;fill-opacity:1;stroke:#888a85;stroke-width:1;stroke-linecap:butt;stroke-linejoin:round;stroke-miterlimit:4;stroke-dasharray:3, 1;stroke-dashoffset:0"
         id="circle8120"
         cx="152.85715"
         cy="649.50513"
         r="31.428572" />
    </g>
    <g
       transform="translate(205.71428,121.42857)"
       id="g8122">
      <circle
         r="73.571426"
         cy="650.21936"
         cx="152.14285"
         id="circle8124"
         style="opacity:0.38900003;fill:#a40000;fill-opacity:1;stroke:#888a85;stroke-width:1;stroke-linecap:butt;stroke-linejoin:round;stroke-miterlimit:4;stroke-dasharray:3, 1;stroke-dashoffset:0" />
      <circle
         r="31.428572"
         cy="649.50513"
         cx="152.85715"
         id="circle8126"
         style="opacity:0.38900003;fill:#cc0000;fill-opacity:1;stroke:#888a85;stroke-width:1;stroke-linecap:butt;stroke-linejoin:round;stroke-miterlimit:4;stroke-dasharray:3, 1;stroke-dashoffset:0" />
    </g>
    <path
       inkscape:connector-curvature="0"
       id="path8128"
       d="m 513.46739,816.64601 4.13004,-28.02145 58.10793,-5.75065 L 467.74959,738.3323 583.96544,726.831 476.00967,682.2894 592.22551,670.7881 484.26974,626.2465 600.48559,614.74519 492.52982,570.20358 l 58.10792,-5.75064 4.13004,-28.02145"
       style="fill:none;fill-rule:evenodd;stroke:#000000;stroke-width:2.83241773px;stroke-linecap:butt;stroke-linejoin:miter;stroke-opacity:0.50196078" />
    <path
       inkscape:connector-curvature="0"
       id="path8130"
       d="m 245.75511,495.17521 7.10107,-12.01301 58.52253,0.20067 -102.84293,-24.42736 117.04507,0.40134 -102.84294,-24.42736 117.04508,0.40135 -102.84294,-24.42736 117.04507,0.40134 -102.84293,-24.42736 58.52252,0.20067 7.10107,-12.01301"
       style="fill:none;fill-rule:evenodd;stroke:#000000;stroke-width:1.87677479px;stroke-linecap:butt;stroke-linejoin:miter;stroke-opacity:0.50196078" />
    <path
       style="fill:none;fill-rule:evenodd;stroke:#000000;stroke-width:2.08604288px;stroke-linecap:butt;stroke-linejoin:miter;stroke-opacity:0.50196078"
       d="m 387.51811,703.48284 7.74847,-19.67452 41.77311,6.25264 -68.04929,-51.85436 83.54623,12.50529 -68.0493,-51.85436 83.54623,12.5053 -68.0493,-51.85436 83.54624,12.50529 -68.0493,-51.85436 41.77311,6.25265 7.74847,-19.67453"
       id="path8132"
       inkscape:connector-curvature="0" />
    <path
       inkscape:connector-curvature="0"
       id="path8134"
       d="m 361.06813,222.25303 28.32418,0 14.16209,56.64836 28.32417,-113.29671 28.32418,113.29671 28.32418,-113.29671 28.32417,113.29671 28.32418,-113.29671 28.32418,113.29671 28.32418,-113.29671 14.16208,56.64835 28.32418,0"
       style="fill:none;fill-rule:evenodd;stroke:#f57900;stroke-width:2.83241773px;stroke-linecap:butt;stroke-linejoin:miter;stroke-opacity:0.44089457" />
    <path
       style="fill:none;fill-rule:evenodd;stroke:#f57900;stroke-width:3.49;stroke-linecap:butt;stroke-linejoin:miter;stroke-opacity:0.44089457;stroke-miterlimit:4;stroke-dasharray:none"
       d="m 189.33079,360.86856 12.38594,1.41976 3.15204,27.23884 18.46775,-51.63818 6.30411,54.47768 18.46776,-51.63818 6.3041,54.47768 18.46775,-51.63818 6.30411,54.47768 18.46776,-51.63818 3.15205,27.23884 12.38593,1.41976"
       id="path8136"
       inkscape:connector-curvature="0" />
    <path
       style="fill:none;fill-rule:evenodd;stroke:#f57900;stroke-width:2.57284808px;stroke-linecap:butt;stroke-linejoin:miter;stroke-opacity:0.44089457"
       d="m 315.42453,370.72096 47.88147,1.16355 23.26923,28.21519 49.22448,-54.10325 46.53845,56.43037 49.2245,-54.10326 46.53843,56.43037 49.22451,-54.10326 46.53845,56.43037 49.2245,-54.10325 23.26921,28.21518 47.88147,1.16355"
       id="path8138"
       inkscape:connector-curvature="0" />
    <path
       inkscape:connector-curvature="0"
       id="path8140"
       d="m 796.27959,385.95467 12.42476,-1.02604 8.41,26.09908 8.02945,-54.25023 16.82003,52.19814 8.02946,-54.25023 16.82002,52.19814 8.02945,-54.25023 16.82003,52.19815 8.02946,-54.25024 8.41001,26.09908 12.42475,-1.02604"
       style="fill:none;fill-rule:evenodd;stroke:#f57900;stroke-width:3.49000001;stroke-linecap:butt;stroke-linejoin:miter;stroke-miterlimit:4;stroke-dasharray:none;stroke-opacity:0.44089457" />
    <path
       style="fill:none;fill-rule:evenodd;stroke:#cc0000;stroke-width:2.83241773px;stroke-linecap:butt;stroke-linejoin:miter;stroke-opacity:0.44089457"
       d="m 749.63956,215.11017 28.32418,0 14.16209,56.64836 28.32417,-113.29671 28.32418,113.29671 28.32418,-113.29671 28.32417,113.29671 28.32418,-113.29671 28.32418,113.29671 28.32418,-113.29671 14.16203,56.64835 28.3242,0"
       id="path8142"
       inkscape:connector-curvature="0" />
    <path
       inkscape:connector-curvature="0"
       id="path8144"
       d="m 463.75935,505.45018 8.9778,3.07783 -0.73317,14.45968 19.42197,-22.76371 -1.46636,28.91937 19.42197,-22.7637 -1.46635,28.91935 19.42198,-22.76369 -1.46635,28.91936 19.42197,-22.7637 -0.73318,14.45966 8.97779,3.07783"
       style="fill:none;fill-rule:evenodd;stroke:#cc0000;stroke-width:2.213;stroke-linecap:butt;stroke-linejoin:miter;stroke-opacity:0.44089457;stroke-miterlimit:4;stroke-dasharray:none" />
  </g>
</svg>
