<?xml version="1.0" encoding="UTF-8" standalone="no"?>
<svg
   width="400"
   height="400"
   viewBox="0 0 400 400"
   version="1.1"
   id="svg17"
   sodipodi:docname="eht-model.svg"
   inkscape:version="1.4 (e7c3feb1, 2024-10-09)"
   xmlns:inkscape="http://www.inkscape.org/namespaces/inkscape"
   xmlns:sodipodi="http://sodipodi.sourceforge.net/DTD/sodipodi-0.dtd"
   xmlns="http://www.w3.org/2000/svg"
   xmlns:svg="http://www.w3.org/2000/svg">
  <sodipodi:namedview
     id="namedview17"
     pagecolor="#ffffff"
     bordercolor="#000000"
     borderopacity="0.25"
     inkscape:showpageshadow="2"
     inkscape:pageopacity="0.0"
     inkscape:pagecheckerboard="0"
     inkscape:deskcolor="#d1d1d1"
     inkscape:zoom="1.1516472"
     inkscape:cx="258.32563"
     inkscape:cy="207.96299"
     inkscape:window-width="1512"
     inkscape:window-height="872"
     inkscape:window-x="0"
     inkscape:window-y="33"
     inkscape:window-maximized="0"
     inkscape:current-layer="svg17" />
  <defs
     id="defs2">
    <linearGradient
       id="g"
       x1="0%"
       y1="0%"
       x2="100%"
       y2="100%">
      <stop
         offset="0%"
         stop-color="#f97316"
         stop-opacity="0.15"
         id="stop1" />
      <stop
         offset="100%"
         stop-color="#a3e635"
         stop-opacity="0.15"
         id="stop2" />
    </linearGradient>
  </defs>
  <!-- Aorta floor (endothelial layer) -->
  <path
     d="m 23.259941,317.83757 q 63.180269,-9.12025 126.360529,0 63.18027,9.12024 126.36054,-3.64811 63.18026,-10.94429 105.30044,3.64811"
     fill="none"
     stroke="#a3e635"
     stroke-width="2.77181"
     opacity="0.5"
     id="path2"
     style="opacity:0.890145" />
  <path
     d="m 23.259941,336.07806 q 63.180269,-9.12025 126.360529,0 63.18027,9.12025 126.36054,-3.6481 63.18026,-10.94429 105.30044,3.6481"
     fill="none"
     stroke="#a3e635"
     stroke-width="2.07886"
     opacity="0.3"
     id="path3"
     style="opacity:0.890145" />
  <!-- Endothelial cells on the floor -->
  <g
     fill="#a3e635"
     opacity="0.4"
     id="g7"
     transform="matrix(1.0530044,0,0,1.8240493,-18.860237,-83.453295)"
     style="opacity:0.890145">
    <ellipse
       cx="80"
       cy="224"
       rx="12"
       ry="5"
       id="ellipse3" />
    <ellipse
       cx="130"
       cy="222"
       rx="11"
       ry="5"
       id="ellipse4" />
    <ellipse
       cx="240"
       cy="221"
       rx="12"
       ry="5"
       id="ellipse5" />
    <ellipse
       cx="310"
       cy="218"
       rx="11"
       ry="5"
       id="ellipse6" />
    <ellipse
       cx="350"
       cy="222"
       rx="10"
       ry="5"
       id="ellipse7" />
  </g>
  <!-- Budding cell (EHT in progress) -->
  <g
     opacity="0.6"
     id="g8"
     transform="matrix(1.0530044,0,0,1.8240493,-18.860237,-83.453295)"
     style="opacity:0.890145">
    <ellipse
       cx="185"
       cy="218"
       rx="12"
       ry="6"
       fill="#a3e635"
       id="ellipse8" />
    <circle
       cx="185"
       cy="198"
       r="10"
       fill="none"
       stroke="#f97316"
       stroke-width="1.5"
       id="circle8" />
    <line
       x1="185"
       y1="212"
       x2="185"
       y2="208"
       stroke="#f97316"
       stroke-width="1"
       opacity="0.5"
       id="line8" />
  </g>
  <!-- Released hematopoietic cells (round, floating above) -->
  <g
     fill="#f97316"
     opacity="0.5"
     id="g13"
     transform="matrix(1.0530044,0,0,1.8240493,-18.860237,-83.453295)"
     style="opacity:0.890145">
    <circle
       cx="150"
       cy="160"
       r="8"
       id="circle9" />
    <circle
       cx="220"
       cy="140"
       r="7"
       id="circle10" />
    <circle
       cx="260"
       cy="165"
       r="9"
       id="circle11" />
    <circle
       cx="180"
       cy="120"
       r="6"
       id="circle12" />
    <circle
       cx="290"
       cy="130"
       r="7.5"
       id="circle13" />
  </g>
  <!-- Upward arrows showing transition direction -->
  <g
     stroke="#f97316"
     stroke-width="1"
     opacity="0.3"
     fill="none"
     id="g15"
     transform="matrix(1.0530044,0,0,1.8240493,-18.860237,-83.453295)"
     style="opacity:0.890145">
    <path
       d="m 150,180 v -10 m -4,4 4,-4 4,4"
       id="path13" />
    <path
       d="m 220,175 v -20 m -4,4 4,-4 4,4"
       id="path14" />
    <path
       d="m 260,185 v -10 m -4,4 4,-4 4,4"
       id="path15" />
  </g>
  <!-- Flow lines suggesting blood flow -->
  <g
     stroke="#f97316"
     stroke-width="0.8"
     opacity="0.15"
     fill="none"
     id="g17"
     transform="matrix(1.0530044,0,0,1.8240493,-18.860237,-83.453295)"
     style="opacity:0.890145;fill:#f57900">
    <path
       d="m 40,100 q 80,-5 160,0 80,5 160,-2"
       id="path16"
       style="fill:#f57900" />
    <path
       d="m 40,80 q 80,-2 160,2 80,3 160,-2"
       id="path17"
       style="fill:#f57900" />
  </g>
</svg>
